<mxfile host="www.draw.io" modified="2020-03-08T02:52:00.158Z" agent="Mozilla/5.0 (Windows NT 10.0; Win64; x64) AppleWebKit/537.36 (KHTML, like Gecko) Chrome/80.0.3987.132 Safari/537.36" etag="bKexjJJ8zmUfdMQT08Mx" version="12.8.1" type="github">
  <diagram id="F8nlzbj8KXvDInRQ5DdT" name="第1頁">
    <mxGraphModel dx="1550" dy="836" grid="1" gridSize="10" guides="1" tooltips="1" connect="1" arrows="1" fold="1" page="1" pageScale="1" pageWidth="1169" pageHeight="827" math="0" shadow="0" extFonts="Noto Sans TC^https://fonts.googleapis.com/css?family=Noto+Sans+TC">
      <root>
        <mxCell id="0" />
        <mxCell id="1" parent="0" />
        <mxCell id="5DRYtWeYvcXPRbmkQv9i-2" value="" style="rounded=0;whiteSpace=wrap;html=1;fillColor=none;strokeColor=#FF0000;strokeWidth=3;" parent="1" vertex="1">
          <mxGeometry x="80" y="170" width="990" height="580" as="geometry" />
        </mxCell>
        <mxCell id="9ZNMO8EIXXqzyZrLgetq-3" value="" style="shape=image;verticalLabelPosition=bottom;labelBackgroundColor=#ffffff;verticalAlign=top;aspect=fixed;imageAspect=0;image=data:image/png,iVBORw0KGgoAAAANSUhEUgAAAlgAAAFXCAYAAAB+2DCUAAAgAElEQVR4AeydBbxcxfXHg7RQSqECtDgUKE5DkWItLQWK/ikNBIoH92AxIFggIZ4QJQECMTTu7u7u7i5Pkif7zv/zPXfP7uzk7r59yUtIws7nszt25szcuXNnfnPmzEyZSy+9VKpVqyavvvqqvPLKK7FfxYoVY243/EBwV6pUSW644Qa599575Y033tBnO5Cf50Co80wZ499Opi5+unVBP0Nf+uqrr8uDDzwqd/+3vJS/70G559775N7y92d+mTrItIGDrA3wfd9b/gHnvT4gFR5/Uv7xz39JmRo1akhRUZEcbKZLly6ydOlSfayD8fkOtveVeZ5MDRwsNWD9zbq1m2TGzHmyYOFSWbhoWeaXqYNMGzgI24D7fZs7v0CkRctWUobZlhnrGMx/INlu2XG3aNFChg4deiA9QqasmRrI1MABXgNuPzR2zETp0bOfDBo8Qn8DBw2TxN9wGTgo88vUQaYNHLhtgG/a3t8wGTQ4cM+es0A+qFFLyrCcEWbcjiIsfn8Ns3I3b948A7D215eUKVemBg7yGmBRYMzoCdKjZ18ZMHBo5pepg0wb+Am1gVmz58sHNT6KAywDJgdLv9esWbMMwDpYXmbmOTI1cIDUgNuP+gAL6VUGbGXAZqYNHFxtoP+AISqZ5r3aN44E6/0PPowDLLf/cjsJN3x/dfvlxY8Ea8iQIftrkTPlytRApgYOohrw+yAebfSo8bpEOGBgBlhlQMXBBSoy7zP+PlkidEEW33sgwaoV6GCFdQ4HWt9nz2B2rVq1pG/fvgfaY2TKm6mBTA0cYDVgfQ7FNnd8ibCfZABWfDDKDMyZujiY2gASq/4DeKfBJCrQsRyuAOv9D2qGS7AOsP4ttLjz58+XdevWhcZlAjM1kKmBTA3srRowkBVIsJLrYNlywsE04GSeJQOgMm1gqARK7o4OVkk7G+tELJ3vt/B9ZafOP6LFKCoqFJHALVLgFI0wCzebaNftkJfUySkYehJGkE/MGw0O/JEojVlxf0mzy9BnaiBTAz9+DcSXCDODbmbQzbSB/bENDBwQ15uifCz3IY3CHjJ0lO7+ZfkviEtc6k8+QbIlwt0AWAAZAzPY2dnZsZ7MwmMB+9jh5h9zK7AJKUgsPBI8j/odQFUUkUiMJiR9CYKAdTFTFAAoBXvwt59EAgymsI7AuD+WNuPI1ECmBg6YGsgArAyo2B9BRaZM4e2yX//BMmz4aJk2fbaMGDlWvv2us/TtN0j9o8dMEOKpu0R9qzBeewCw6N1yc3Pliy++kMqVK8uHH34oVapUkUaNGsns2bO184uBmx+hK7S8t27dGgV/gCZXWhVWqDiYCfBOIGkqLYBV5ErCEpgipcoXiydvUFYgactArLA3lQnL1MCBUgMZgBU2+GTCMgBn/2kDgc7UMAVSU6fNkt59Bkilym9KhQpPyOuvV5LnnntBKlZ8Vdq26yDTZ8xRcGXvb69IsKZMmSIVKlSQVq1ayZgxY2Tbtm2yaNEi+eGHH+Sll16Shg0bav9nQGdvd4bJ8mnSpElsF2FwUD2SKitNAKCCghoAiy7JhdFYst2xlV+QR0QCWRblMFCVyBK6qCFdrCwWmLEzNZCpgQOlBjIAa/8ZSG1QzNiZd+K3ASRTgKumzT5VYPX119/KrFmzpLCwUFauXKmb5V555TWpXLmq3sqAVAsepQKwXACzY8cO4a6t4cOHh/ZxSLaeeuop6devX2j8vgxEojZo0CDNMniGALyYOzc7T3Kz8iUnO/hl5+RJTja/fMnJ2SE5WbmSn1caCCciBfki27flKu/s7EIpyMmRSP42kZ3bpTAvW2RnjkTytkph3nYNK8rLFSksTuq2L2szk1emBjI1UNIayACszGDuD+YZ//7WJobJ8BFjpGevfvLQw4/KnDnzQj/z/Px8efzxJ+WjmnVkxsy5CZKsXd/pbiwRAkyaNm0qrVu3julghZWEnXsPP/ywbN68OSx6n4RR1vhJ7r6yeEQKC4vkif+2lb/9qYHcdc2nUu6a5vLfa5tLuWtayl3XNpU7//qpXHVyLRnYa86el7dIpMs30+QvJ9eS/1zVXK75cwcZ+Nx9InVOkO0flJUd710i2e9dKDvf/7PkvnuhZFc5SXbUvEoigCx3aXHPS5LhkKmBTA3swxrIAKz9bTDNlGdXMPDTrpN+/YcoYHr6mRdk0KDEczMDYUy8w1ixYoXcddfdeh3OkKEjUxwaXEKAFYkEiuBIr+bM2RV0+AWpW7eu9OrVK16yH8HlAiy/fGwmvOOvTeWco6rL1Wd8LFefWleuObWWXHP6x3LN6TXlqlM/lpMOqSw9v5uyxyUn7+8+myS/L1NJLj+1tpx6/GfS456/S1H1MpJd8deSU/HXkvXysZL18m8k55XjJeeJMpJV6TSRHdszAGuPaz/DIFMDP14NZADWT3vwzoCZ/f/9Dx4yUvWvkE6ZUGgXvBDXLZI2bb6S+vUay8hR40pnidC6J5YH33zzTcnLy7OgpPb3338v3bp1Sxq/NyOscuIAy3KL6zcBsB64uY1cedLHckvZRnLH5U3l8t/XkDOPekfO+8U7cvYR78jPy7wgnb/ac4BF7p3bTZLzj35Pbrykifz5nLbSu8IdIh8dLTve/JNkVT1Zch47VLYBrB4rI1vLl5Gs546QSA4AK2MyNZCpgQO1BjIAa/8fYDMg6Kf9joYNHyOfff6VKrKn088MHjxUGjRopPeMJm87JZRgWcZIsMaNG2detQ3QuIHvvPNOTMHcDd+X7o8//lj69OkTZOmpUrFE+L+bPpMrTq4pN1/SSK47q6689WI3+bzxCGlZd4Q0rz1Ear/VV+bOWh8tMuAsCtBivPylx0BnCuX1OOAN0nRvN1nO++W78i8FWG2kz2N3SlHNYyTntT9ITvVzJa/He1LQ60PJ71lD8rtUlZ1960hhQW6wo9BOcgAV6i+q+67lCPjrHsjo8Q9xxfhoeUtQ6e67dN3Tp89UlN+rd1+ZNSfYKZqaLXXgHk5BWfzy+P44x4ULF0rv3n31F+xMdWnj7vXr18vUqVM93hHJysqSGTNmxRlSh/GXkuBOIMp4MjVQijWQAVg/7cE7+QCcqZf9pW4GDea8q5GqX7Vq1apiv3428TVq9IlKsJI/w24ALAaojh07Sv369XcZoNzBa968earojlLYj2UoT+fOnWXSpElBEWKgKPAmAKwLWSp8S1Yt2xoM1FEQY3iApPZ8we6/gpg/4fmUMBpiZ11Fz7Lq1nGq/OkX1WMSrL6P3y7y4a9k24tHyI6a1wSJ/OMbXOZRMGVZqDeaRwCuosdMaEQAwKzMLpvdcW/ZskW+/LKtjJ8wSSZOnJj0dPzk+QWAyPBNIvDatUQFBQXSocPXMmLEKJkwYVJMbOtSWl5IU1esCD4KC4OO3a0dO37jJhE+HtqkS+e6E4gznkwNlEINZABWBkgkH4QzdbM/1A3X3HD8wiuvvi6svKUy06ZNk9tvv1PGjZ+oeljBFTlh73E3ABYZMyBVq1ZNWrRooeXwByikDeXKldMtjqkKus/josDD8nUB1r8vbiCXn/SRtGkySqaMWyFTJyyX8SOXysSRC2PP2P3r6fLeiz2l6pM/SOUKneXtF7pJx1ZjY/Gcs2XymvYtx8qbL3SVak92kyrPdpIZk1fJ0H4L5KJja8hNF30il57TLlgirPlLyXn5OMl+72IpmDdY8haPkKIFo6Rw4QiJLB4vkSmdpGB6b4ksHicFc/uLLEdSYyc3BIAKusK5Q6Vo6VgpHP+tFCwZp8c/2BEQUdil6Yr789+l0QOsRo2OP+umTZtk9uy5Gg2YXrRoicycOVN3jtoOjJkzZ8vQocNl48bNMm3aDOnVq49s2LBB04wfP1G6dukp69Zt0G2w/fsP1LTbtwdLovDr07e/ZS9bt26XHt37CFI0dAEHDBgkw4eP1PiVK1dLXl4AeHv27C0jR46WbduylBaABW/4LV26XD6uXVcmTpwc45vseWMEGUemBvawBjIAK2zwyYTtD8AiUwZrh8Nk8JAResBo+fL3q2pTMDYgGLCf6FFU5crdK22+bCuTJk+P7iJMPNk9XqclBFjuYLR27drYAaPt2rWTkSNHqkI7xyKwhMh5WPvSuGVz800ITwGwbi77idx+aVO55szactmJNeUvf6ghZx31rtz05yaybvU2qfF6Tznz0Cpy2iFV5ddlKsqxh7wipxxSWU4v86Y8dkc72bQhWMrbtHG7PHl3Ozm5TCU59+jqctaR1eWEMq/L9WfXlaf+215uvKSR/PuSJnLpOR2kT4XbpKjm0bKj2tmSVfmPkvv8kZL1/FGS9cKRkl3hUMn94M+S2+dDyX4EvaxDJPfZw2X744dI3vDWUsShqUUiBYOay7YHy0j2c0fJtkcOke0PHiqRaT21CqyBeI/tVk+CO6GuEmJEkXqLlq0UrEyfPl3WrFkn337TSUYMHyNDhgzTba3t2nWQuXPnS9eu3VXq9MknTWXYsBHSp08/Wb58pYwePVaX+8aOHa9uABnAq2+fgTJ/wRIZM2acLFmyRHOeMHGyNGrcTHkjgUR61rhRM5k3b4GCtlWr1ki3bj1kwYLAP3nyVAVcALD27Ttq/rNmzVGwBdADrMGzVevPBUCWMZka2Fc1kAFYNohl7Pjgm6mL/a0uOJkd0PTNt53kmWefl3r1GijQQmI1bNgwadmypTz3/ItSt14jmTN3oarLpH6GEgCssMGXsP79+0uNGjXk7bfflurVq8uXX34pKMJjwtLsq07N8jY7KFBi7q4E66Y/N5bbyjaTG86rL9efXV9u+FN93Ul4/z9ayv03fi7n/Opd+ce59eSG8xvKW893k+ovdpfbL2si151VW/5Q5g15/clvlfkrj3aS48q8Lnde1UyuPa2OXPvHOnLXlU3lwl+9K3895SO59fImcuPFzaTsOZ9L3yfuEvnwl5L11tmSXfUMyXnjD7Ljtd9LdqU/yPZnDpXct89VELVjTBvZ9lAZyXnt95L14m8l5/FDJX/xaClYMFy2PFlGtr96vOS+dKxsf6SMyNwB0YeM6iili64Sq2YXH42uS9eeguQJ3ShMu7ZfS906wYGySK34sQTIsh7Le0iS8LPjYuHCxeonPSCpRYtPhWVHTPduveX7H7qq2/6QdnXo+J1KmwBi7dp/o2pl2Tk7pGmzFrJ6zToFTbPnzJN5C+bL8BGj5PsfOivN4CHDZNjwkTJp8lT1r9+wSaCbMnW6DBkaP7stoW1Yxhk7UwOlXAMZgJUBE6kH4kz97C/1w2Gj4ydM0d8HNWrJE088pXpZ2JUrvanX5MyYOU/69hsc2z1YKgeNFtfn7I+DFWXq0aOHgEDVeGDDB1i3XtpYrj27nlxxWk258pTacvXpdeSGcxvI386uJ/+++BO56LfvSue2pkwdkcmjlqq0C+kU8U0/Gio3X1RfFeavPKWW7kycPnmVbNqYLU0+GioXHPOu3FL2EwHM6S7Cx+7SXYS5b54tO6ueLlkvHSNZLx0tuS/9SrY9cYhkv3aSSMFOFVHmdX9Htt9fRnLeOkePcdj+6u8kt+LvJPv14yWr8ikq5cof31YBRfxo0ijIMkWy4l6iF2/vFJ2lb779XnkbCVtZW7X6TCVahAGmWKbjTkoAFmeJoO+0fXu2gi2WCZFucT4aBsDFNtclS5apHwlT69afq5u/H37orEt6uFk2ZHbBUifLlJ06d5f1GzfIosVLZemyFTJz9iwZOXqUjADQiUiXrt3Vbf6Ro8bIggWLBMnZgoWLNQ97NrNjGWccmRoo5RrIAKwMgNhfAESmHOFt0QVJjDX8Jk6apvcPjh0zUSZPmaGnvHOcQ6BzFSwLuul2rdsSSLBKuc/Zq+zcQfOjjz5KcxchOli1pG2z8TJzyir9zZ68Qqo90VnKHveB3HxRQ/nXxY2l6tNd5fXHv5XXHvtO3nq+s0qkbr6osdx0QWP568m15cYLGymIOvfYd2Vwn7nBjr/o0z57b3v58+/ejym593nidgVY2RWPk5waF0tkwXCRpZOlcNE4KVw4SiLLJ4ke/076oojkdnhaJVm575wrOa+fLLmVThTAGcuHO/rVCZaKPRDJTdV+ULLKd+vN3Njs0mvatLku1w0aPFR37H333XcqgerSpZsux/XrO0h1snr27Kl+ABe6UqtXr1UJFkt/U6dOl0kTp+kSHkCrb9++Cr769u0vM2fN0XDKxrVLbKTYuXOnSsBYWmSpEYNO1/ffd5LFi5fqDkEU4CdPniyrV6/WZUSWGQF3gwcNlx49gjPYKCtXHbCkiD5WxmRqYF/WQAZghQ9quw5IGbpMnfw4bQBARd27gAk34YMGj0g4TDSMNvy97SbAssF3X3ZSu5tXwjlYHtJIkGBd3FAu/M27Mnnscs3KSKs83knOP+Z9XQ7krKzjy1SSX5V5WY4p85ouBZ579Lsaj77VdWfWkf+7oolcc0Z9uf3KZlKYHyjHGa8f2k2WPx5eWQFW2bPbSp/H7pBIraMl98WjZEeNK2P5Qq9pTAAV9aO0nvvFI5Lz1OGSU/VsyX3zDNlWoYwg3TIT5EXCArE7Dy0ulZ3qnXL1EeAIfStuF586bYasXrtGl4DRZxo1aozqYyEhQj8LYISOHoYlQnSgTKLFvU7jxk1Qfans7FzJyclR8DRuwni9mog0HK+wfHnwHvAD0mw5MTd3p4wfPz6WHknapk1bdGfg0iUrFQQiQVu7ZqOmI/3ixYsV7C1btkLQ1cqYTA3syxrIAKwfZ9AMH/QyZcnUS1gbGCYDBw2PASkXaPn1ZXGBjSSrlJTc92WnVFp5uQBLQYShHQb/woieg8VBozdd1Fgu+W0NGdJrbvQC5uAMpxce/kaX9q7/U10pd10Lad1ghNR/r680eGeQtKw9XL79Ypx0bDlO2rUYExxaeupH8vdz6qq+VtZ2dNHiRyd82WKknPXz6rqEyBIhxzRwDpYqtde4LLpbwUFXUZQVA02FBZLT8EbJfuGXklPtLMmu+kc9jHRH6/vjaWNgLArSovkrDzsjy7KILh06VZJ2tcePWyjSpTf/OIS0GYUQhoM9B21qmuBWAUuOFGzUyHEq4ULRvbSMWxbXbfzTDTP6VHYYr1T0B3uc1YfZyZ7Xj3f9rjssfXHxYWlKGpYOwLJOm87cdSfr3P3wcH+84w8Gj12XNdy8cLv+AQMHxwacMP6JtEN1tu+HhaXLhIUN8KUT5tZ/4OYd8ou3BerfpfP9xJmUxn1XfprEOMBJYh74LY3Zbhpz+3kZLba5oU3mNj77n72bEqySdjD7mt46TWwDWLEwCc7lAlQgTbGDRv91cUPVsRraG4AVRykcOnrmoW/KP86pJ9f9sb7kbI+eYA9RUaFs3pQjefmFkpddINVf6iznHvW+3H5pcz1QtFa1nopykDxt2Zgjt/2lkVx5em3dmXjx2V9J30fvDE5yf+MUyan+J9nx/auS90NlyetcSXI7vCx5XasHl0EDjPLzJLf2X2Xro4fKznculKwXjpCsV38nOe+eJ1mPlJGcJrdFqzkK6Ao5MCIike0bRbI52yswMTCljoK0lw8tvWtbnSIZiu/MC6R2Rmc0+M1tttGE2WE0bpjrJj3HP3AoKQrxuxofnO1K4fODwg+jvbDs6Rv3VgNLY7ZPm44/Wdpk4T5Pl851+3Rhfp/e94el8cPSSZMODXzTpfPL4Kb1efj+sLTphKXLJx2A5Q4ODDjuYJJeXBw8xXVECPMHPRvILc5sC8cOZvNWBpvZm015/Dg3zC+/0brPkXG79V36buo8sR3smkdAEyyNue8vzG202Pzc92cAyWw33sJc+jD+Fu+mtTCjt3bl8oTe9btpfnz3QQiw/E6vWbNmMnjw4Gh/6Q6OEYkUBCe5Xxk9yf2S4z6QwT2dOxaLRLZv2SlXnV5Lrjiphlx9Wi2584pmMrL/Qpk6YZlUfuoHueS378sVJ9aSa89uoGlv+8sncvVZH8vNF38if/lDTXnnpW7yWcORcs/1reTS42vKnZd/orpcZf/0lfSuAMA6RnLePkuyK58uWU8cpscwcFWOKrQ/c1gAkopEdjS7Q8PQv+IKndyGN0rWu+dJ9otHys63zpeshw6Rne2eUHrqAPxUuG6u5LR/SvK+qyhFG1HuDgCVYsOoCEpxlv6lHlL8ek1OHQCsZPRh4cmyd2ldd/K8w2OKO9TUUrl5uG7iubmgXr16snVrHKwOHz5cd85y+bkZu6/T/C4fc5ttNGF2KppUccYrHRqjDbPd9K7bp92duFRpjH8ymmThydK59K7b6JPZ0CajTxaejFe6AMsGC7NtYHEHCncAct0GihhU2eE0YeI0WbJ4hSxZulIWL1mhG0YmTJwqffoO1N+w4aM1nLiAZqUsWrxcRo0eL737DJBevfvrTirilizmt0IHVts9xaDWp+8gGT1mgsyft1gHORvorFzY5nafIePeFezseZ3EQQ913rffIOnWtZd07tJTunXvo4Ao1buIxwXvjJPNlUf33rpzLh4fL7uFYXfv0Ut69uqnx/kYqLd4dJhoK127UZ4e0qNnX20XLmD3n9/S+uHWxvzw/dN/EAIsv5OrWbOmKrlbp2hLW0oXEbn1spZyxuFvyWUnfignl6kqfTuz4xApUCCpIl2Pb6ZqXNkTPpRrz6grlx5fQxXiAWZl/1BTji7zkjT+MFCebt14lPyuzCt67c5tZZvIxb95T+8fPOfnb2maq0+rrYDspN+1kE53XyXy5iGS89JRkvPi0cHSn7krHCLZb5+jQCmvTQXZ9p8ykv3KMbL9/kMl671zFSoVrZom2x4/VC+G5hyszXccIjvbP6uPBmgpnNJVdn7xqOzs+KIULp2gvAIwAwjiYE6u3UFM4Ndacj+7+zh7yuoTyk6duujRDYRx+ChHMDT5pIW0/uxLWbPWrhmKSyMsLbsTv2jzlYwZOz4hw0mTpsgXX3yZEGaefv0GxKRUxoc4FNhRrOcw0SHDhio5h46aLpilL852ebq0X3/9tbz44ovCmW+ffvqpnvvGBoqrrrpKOnToIO3bt5fGjRu7SRLqiKsV7r//fnn55Zfl22+DIz1cYvJ94403lKZ8+fLC75VXXonpohE/YcIEDbf4e++9V2rVqiXoyJlBJ41y2IGuyZ7H6FPZ8HnqqaeEfCh7q1atYuQcLstVWLEdurGYwEG+o0aNktdff13T33fffcrjvffek2XLgp2jlqRTp07y9NNPa17cvGBlNtvofL+Fo6/H/aiUk7qhrO+//37C6f/o+llZoKtQoYIMHRq0E/igN/j8889reg5R5haAVIajaew98O5TmXQBVqpBggGHnw0wNgCZbWmJ5yyf777tLLfddodcc811ctXV18rdd5fTsHHjJ8uYsRN1J+7N/75Vrr/+n/L3v/9drrrqGnnyyac1j1GjJ8iUqbOkTt2GcvXV18rNN9+s29XZwo4OJnmQL+Dqy686SNWqb8rQYaN1QJ45a57wA6RRJqO18mXsOEAp7boI2sIwBdC9e/XXXdt2jRiAmfysvRitlcHCzc+7BoRzdiDH3vAe+Vm8awPax0+cIJOnTIueDRW0VXjyA1z17zdYd45zfuLYcRMUZPnK4/B0y2Hp3bws3tqV+V2a/cf9EwBY8+fb0QDRe/EcMIEE67n/tdedgPff2FpuuKiBjBq8KN7BO9hjQM/Zcsdfm8tZh78lZxz6tpx+eDU5/dBq8vezGkibT4LOWLFKUaF83mSslD2hhh5E+sefvSUnlqkslZ78TgBf//lrM7nvxi/lX9d+L0Nee0yk4Tm69Jdb6wrJrXWl5Na+UnbUvFJ2vHeR5La+V3b2/Vhyq5wkuTX+osuBO2pfJ7JxRdCfF4nkT/pBsqqcLrk1L5ec98rqQaUFE77WZ8hfOFR2fPea5H7/qhQumxy9FzCQ4pUQV2l+LANWq/ZW7KgFAjmJvUrVN1UJfe68BfLhR7VVGX7G9Dnyce36Ur9BI00bNjiiG/DQwxXk62/ih9JCx3EO7Bb0zc6d+VK7Tj1ZuHiRH6WK9uwshBc7HXNyd0rtj+urwvwuxCEBYeVzwwABDP5Iq+655x5hZyIAg8GHwZ3fSy+9lPQSdOJOP/10KVOmjPz2t7+NlcDy4Gqg2267TU4++WQ5++yz5U9/+pPSXn755TFadl2eddZZ8sc//lHOOecc/cGvSpUqSgMvDmUljIPxMIAcH/jFGKZwAH7hc8ghh2hZTjnlFH1GS/Luu+8m5GPh9jz47RmwKe9pp52mab75JvH6osMOO0wOPfRQ/eF2ebhuPw+Le+aZZ5Sv5WP17B52fOONN8ZooDvyyCPVz7EiGOzrrrsu9o4eeOABy24X+x//+Iem5ZlOPfVU4b7TVCZdgGWDBTb3omFbmA1u5vcHIxtUkEAxMP7mN7+TX/3qWLnookvk4kvKyqGHHi4nnniyTJwwVQEQ58qdf8FFcsYZZ2h7+/Of/6zPdPPNt8jCRctl9pyF8nb19+X88y+UY445RsqUOVR+6NRNwZvlNW/+Ynn9jaoax2A5a/Z8TfPOuzUEaVmyMlr6jF36YAsJJhKi9es3apOkXfOd8K6QHgG0unXvrQAYKRXgCEkVabr36KOnmQOOOYMQwMQ4wZUwpEFChQ34oh2SljSkhW7tug3S8evvE2igJU9u4sCgToH4gptBkGiR1udpfElH2fBbfpSNcrttx/0m3PAf330QAizrdHmZrjuQ0gT6SXaFjJ5rECnS3X4RDkYvTFScJn2R4pEAlLD8gzSLi6BbfDxEvm09WTau2aysbRkquEowIkvnr5XmdUdI/eoDpU3zUdq4yD13R57kFeULOxiD0lieEdEjFQq5PLpQ4yIFhVKwebFI/o6g+HnBYKDpYgrrARcpzFOayM5siWxbFZVMRSR/6TiJrJwqEikMeERPgNcCkUuCSC8ITfY/bOgoad7MpBhBnYwcMVYlVaSp9XEd7VWmeUoAACAASURBVLyNJx9Rk6bNQ/PIysqRT1t9poeXtm33dbIsE8K5uJkrCnxwaPlhN/6kuWzdvk2mTJsqX33ZQdNbfAKzYjwADFcy5LrZlchhuuxm5HiIgQMHqsQIKQmSkFQGKcpxxx0XI0lVNmh/8YtfxGhdh6U7//zz5d///ncsikuvAUZjxwbXGhn4iBEkccDPeGLzHPCJXZTupQPU/fKXv0wItfQE4ubIDl8SBE8OIzYD3eGHHy6DBg3SHwArmfH5G91NN90kl1xyiXnVJh9X4kYer732msbBh6M9oOH9mTH+5513nvznP/+J0Vo8dq9evTQd9Wz0bnyYOx2AZYMEQIorOxh4sIePGKNgC2kR4GnkqHE6uNgM3h9EOLuHwRFAhCSZg3nzC0Rv3SCMK6aGDhulfDmNGlA0Z/YCPQ3miiv+KieddJLMmTtfBzakXVu35chXX3ZU8MtZeBzCaGUlbfV33lMAxnLPmrUb5dhjfyMnn3KaLFu+OmFXll/OjL90wZW9E0DJ0OiRNoCsr75qJxvWb9Hl4O++76JSx7nzFilIgZY2xoSUVQN2d/fs0VcGDRymN23Mn79QmzPH5Hz/XReZMnmGzJo5T/r0HqC3b3AUDr+pU2bqSkXvPv0UOM2YOTsGjABltFvMlClTVE+W/nvxkmXS8etvZcrUmWL0Bp6YXEydNkvLxnPhN1DH5IG2Y8+7f7ejgxBg8SKTd3yAAvvpOw9oeeNqEuMCWvjZDYMAkviqWpAMQBSIuozO2BkQUj5OugDpBMBo9eoiWbG2UHLyY2w0Dy1OUUSBlkKxogAgURLjD18DixpGHlH9q6AOnLLF6iUARnantKWLVkBSCzo+0K872kWYAR8O/WQmggJ4lapv6+FsAZOI5BXkS0FhfOB2mX/Vtr1+jFu3ZelSBAO6vTeAy8aNG4XrcPjwv/kmOMeKIxZatPxMlxRZWrQjFxCDcxTE5q1b5JMmLbR+evWx0+GDcrp5J3Nb/sQvXbpUpVXdunWLLX8SznERnOFFnvxc4FUcuII/y1B/+MMftAhufq7bysfNCL/61a8SaF063EhjbrnlFkuix2QAHAxgvfXWW0lBWixRiAMACZ8RI4Lzx1wS8qVsYeDPLZ+bxtzwbN26tXn1nQPUeOf8jj766FhcMoefB0t+8H3iiSfkySeflMcee0z93bt3j7Ggzql7M/369VMaO/jWwuGNZAqeYQZJG1JLM2GbHizO7HQAlg0agJqWn34unCLNdwWQYuBq266DMBHhNgUGmTCJFtILJEfcigCYqlWrtjCYIpF67rnn5Gc/O0KPMQG0kd+cuYtk8ZKVsnRZcFH63/72NznllNMUcAXLN8N0wtSwUVMB+H773Q/K38CdAaxf//rXOuBx6O8555wrl156mUpM4KG0A0oXTOzfg+qP+6zUN6AmJye4TQVA1OmH7ipZAsjkF0Rk46YtOtHncGfeGZN+7m7FcO0Z/W5+fqHeIct4xxmE3OXKETnQbdiwSYG65cEqBpKr5StWybas7ZK7c4fk7ihQKRlSMw7pxHAtGu2X9kc5V0TvkN2xI0/z4ko1+DP5Zi/R5s1bdTUDYQRx5Esckw9rg9j7b3s4yACW3/HyUulA9QJhEEJRsINQ33bCXyKwCvjEw2IgRB2WMBi4LU7ZA96MJmrvUiZH8tS++Tip83Z/afj+QJk/fY3CJbgHPINdgIE7GhiI02JAxMCelSgmpVL05JRPCQK/QsUYYLS8YhySOgByn3/RVljbD0zAr82X7XUAIIwZ0csvva4fnzGK16WFiJ6h9f4HH+pzbs/K0WU/PlIMH1vduvWF2VPTJi3lizbtdNbOx81sqWatujpocDXO++/XUEkgujTcg7h2/Tpp+ekXyrdDx2905mMgOZ57apf7vjjTCz0rloCaNGmi+ldt2rSRDz/8UJflWHpj6Y+lqM8++0xYNnPTk5Pvf/bZZ+X4448PLcSsWbNUyoI+0gsvvKDg6oQTTkig5XR88gRMwIsBv3bt2jEak2ABUDEsaaYDWmIMog5bIixbtqwgBUPnCP0uM5UrV9by2fOZbfHYftj111+vZXF3euIGHF1xxRVy5ZVXqptnMOPzsHDX5h5Ulvd+//vfC/VF/cKTa7zMnHjiifoc5u/du3cowCIegGUSLKPHZrkVvoBvTDplgy4dgGUzcmb0tes0kDcqVZM3KlWRuvUa6PfxyKMV5OWKr8qDDz2iEx0kWv7AAg8AGldGUc6PPqqlEqr5C5bKs88+HwCswSNUigEdOlb/ubuclLunvMaT5oILLhDOkzOANX3GHKnf4JOYBGvFyrWqw8WyDQCrarW35He/+50qyNNXXXzxxar3tXLVOlW2V+X7DMDa5V357650/CwpD5fuPfoKuqoc2IzZsGmjcCA04ISbNZC4Y+bOnau3bTAxtIOcub8VQ//Loc0YrjfDzJ49WyZODNyme0mfgFQXPSveP342BM2ds1AGDxqhy5JcUYaZOWOudOrUSzp0/F5BIPT0scOHj9R4JGiAqRUrVigPAu1uWs42BPQBsjp36baP6nNPwfJBBrB4IX6nh3KxNSh9iz/Sn5ZLJUxBAZj5tmtFAw5AGRKg5YuDQTFre76sXLpFduYWyPhRC2XOjEBRHJpJ45bLpvVZsmrZFhk5KBDhwnHUkHkyb+Z6RUxLFmyUscOWSt6OZICy5JVA3vUbNBH7AI1Dw0bNVMpkfg4bfe31Ktopb94SfOBBHIAsAGXof7iK7dxnOGdO8GGjJI+kbOGiJfJJ4+axYxH4GFs0bx37GPmaWQJB0tKzV39VcGdgRk8EuV6Llq1kxYpgZm5lK8722w7K/AMGDNBOhbs2AVBIXwAt6Fyx5ITyO9IilLdRjqaeUhlAETpCvH90qqwTRBKGXtDPfvYzlXChi3XppZcqjcuPeyDRwQJMABoYFAF9ZmbMmKFhLBsCxABI8CQ8zPjPbDSEP/zwwyohQ/pDPihDm+FSd6QaPA/SEUAhQI8T833D0ulll12mPFBItzwJp2wXXXSR5nPuueeqG9BIHMZofZ7F+SmvuxTJ0hdlNWMACymkb9CBe/zxx3XZ113iZIMDfF2TTvlKArCQQDVt9qk0athUqr/9vrz91nvSof23OtFAofzZ516S5i1a61IdgzKgysAZfpbwAoB1qHz4US2ZPWeBXqQeAKzDdNll4cKV0rJlK30WwCht6djfHCOXX3mFSsomTpquRzUgEQsAViNdxmUzy+dffKmX4SKF4IL29977QA455DC5557yCmDR1zr55FN1GRJl+dIBDns60P100iPRYdmP5bbu3XsqUKK9IoFCMgWAAWghHWIFYM2aNbozmjSY2bPmB/bsuTJkcBDGsjP9E5MuS4sKBtosbGj47vuuOrlGGd6+W1YeTL/KJFgsMXbr2lvGjQ1u3+DboQzDho7WsYF4+nN0cAcOZOd/RJckAYWALgDWxImTVe/L2pXb9i2stO1kefjf3q75HmQAy+/s8DMYxo9p0Lbzo/zFTlVXkBVIp9Dlal57mHT4dJxsWp+jyvKzJ6+WQT1nSPevp8ibL/WQ8cMWKs30SSulX7e50uijITJu+DIZM3iRTJ+4WiaMWiZdv5kiQ/stkFlT18jHb/eX79qMk4mjl0r/7vNK7VkXLVokdes1lpwd7FgLgNKqNaulxoe1E5bJyHDL1u2q7M6yhm8QI1d78x2ZPmOWILHhUNCPa9VT5Wxoud6GD5WdJvHlSJHs3Bxp0rSlLh2SP7tRuL4HMIV4mo+SXYPTps+WbduzpXmLT/2s0/K7bQgpEKfKo5i5adMmBUW2pASQonMijjTsLKxbt24MEBgfsy1zBnkkNfBGgRzpCwbJFH5mfyUxgLW77rorloTyodB95plnqsI80iv4ouPkGr9cblyYGzAJADQD0IQv4AugZyAMyZtv2BAAMGFno5svOzwJ57gLDHEsSRJW0t2fbp6AV8rWtm3bWDAAC0mc5W8AKywfABa7M5FaHnHEETEeppdGXElMOgCLzpkO2xSPGdwaNfpEvwEktygCo/DL8g/Sp1078wBEBBKsYImQDSdImQBCzz37koJZBtKVKzfKiy++rFIpBjWOWUByxmDJDkTysfJMnzFXJ1YAJ3YQ//yIX8jLFV9XngycXPh+ySVl5fjjfy+///2JCrp/+9vjdMAdN35KjE+y8mbCSwf8GQhwdZ7mzVug15TRVtHH4sYLlM3pJ5l8Iplau3a9rvAEelsBoIEeaRUHN9PXspMQg8SLq8bY7IQki4US2lanzj10tYAbPuhnSIthsvDtd50dHaxpmp6VF/pOvlM25XDLB4Zr1PjGuDeWpUq+Vb4ddoZjKDvA0ZYF7Zn3VhtKxt/CrRzJ8z/IAJa+Be+Pc7Dc7dhe9I/gDSQ56Gt92mC0fN16gvT8YYZKq5DS3HRhPRk5eL42rvcq9lKx69b12TK033zp/t00yd2aL306TZfGH/aXAV3nSpf2U5S+eZ2BGr5g5mppWXeYtGkySlYv3xpfstzDJ2VG8Wkrlt8CcMVH0q//QNUL2bRpg4KiIItAtwxFWnQ3fINiI4ro6FUhYUAJs8aHH6tSJbQsQyK96j9gkHTr3jM2IALIPvv8K2UXDMSjpG3b9lo/LCPy0dPZs9OQ5ZNvvzVdMb8E6fs///xzqVixokqR7NgDJDTs0AMIcDwDBrE4bQxpF8YGcbM1MPqH5MskQQAJlp0wBjZMkuemSeVGufv2229PSgLo85XRfWLK6ZfV9yPBM30w0qOA7/oJoyyufpLl88UXX4Qui/LMACF3SRBFWOoFoOiXwfgls116eHz1VdBeoAcgUPdmAPfk7Sq5EwcPNg4AINk1anVnvP/3v/9p+YxPOnY6AMs67bHjgt1VFV9+XZ555jnp1bOfHq/wWIUnVCerfYdvdaes6bFY527pGdS++baT6mBxeToXsNOvVKtaXcsN3fIVa+W1196QI488Ss+3Wr9usyxavEJ/SCsYxNDPAazl5OZL+w7fybHHHiujR4+W4447QV6p+IYOrACxQCF5hkybOkulIhdccJEuEaLkzgBEflY2K2vGLh1Q5dYj0kb8tuvO9KPMZrmP684wgC36b5TXN27crGoZw4aP1HYC6DKpLleZ0XaIY2kOXqarxfVo8OAcNXT+WDKGloknfWVBQUR1BQF8/GwXoUn42WxB3rRPpF47duar4nxOTpaQL9IqDGd5sVkKw4HWrFBYu+J591bbKh48BfWdOv+fAMBq0aLFfgKwTD8rUJSPFIp0+Gyc7hw0idCEMcul0hOdpOvXM2X54k3y4et9dAYxc8pq6dNlrgztN1c2rsvW63m++XysLJy5TpcJVy3bKkvmrpfqL/eQ9i3Hy/qVW6XeO/3kvTeCk+S1de7h34D+QxQI8RFh0JWq9ubbsnzFGp3ZvPJqJf3AiEdpEl2pvn0SL1YGJH1U8+PYx8OgBT1LHygxYlBS37Rls858bOZEOGCrWfNWOmsiDUdALFq8VFauWqMDzvLlK+XTlp8rD5ZUfImNRpTwD0VolorQD0IywwDDkvO1116ry2KAFxSzOa8KqRRxNhD7WSHF4Uw2lNJZFmOwBwTAE0OnxoDPGU4staH3ha4Xx0OYYZmPcCQoRgMPVyHbzx+ACE2Y8WmhIYzZJSADpXDy4ceyJLo2ZlCeh2/9+vX116BBA/X/97//NZKYzW6+sDKwYYBnvvvuu6VOnTqaD+mhdfW9YozSdNgyqbtEyM5NnsGeh3O5yAfJJIaZM8uevCPC//rXv8oNN9ygwMyytfoi/uqrr1Ze0LPUm8qkA7BssESC9FXbjnp8CRIslII5euSGf92k3xu6WTfedKsOaoApGwiso2eJkG8FJfd//etf8uabb0v16u+KHcMAMFu1eoNUqkz7O1R1rypWfFWefe4FeerpZ6Ve/ca6zAifps1aSKXKVeWW227VOnnooYc0TaU3qsmihcs0byRugCwU7xlsAWCnnX6muq1M9mwZu/SBldWp1TU2urCEM1EFTNmyGuFz5syTdYTpEl5vPYIBUEU6wkg3ZOhwVX5neRhwQxvjKrLly1bLmtUbVE2jV+++eowD56Kxww9QzsoDIIi7Y9GRZYmQ9qFSp36DhWN09BysseOlS+cewpiCvh/0SFahLyzMV6A+b+4imTJlWlTfMJDqs5GJ78Ge1X928++OnQ5Pn4Z8wsLi+f8EAJZdlZOqA9wXcYACpFag/sBEVHrVtvlY6fL1VBk9aKE0qT1IOBdiQM9Z0qLOUKn2bBfp/f0saVBjkCycu0aXBDdv3CZLF26Qr7+YJIP7zNPLqYf1nydD+iyUMcMWKe2AbrN1ybBzxynODkjLd/dsZhuApmbNW+rBog0aNNJdRTwOy10sRwCO2M7bsEETYZcgImB+mJ15BVKzVu2YONgGK+KQan3/fSfVR+IYCJYj0a/a4uhwtWnzlZ5rxWyqXfuO0vLT1grOWLYYPHio6oaho4Uhf7bh76nhMM0uXbqo7g5gh2MHEH+ji0O7AvwgCQHEA7JY5gszPCvLeAArlqo4e4ilJxSCLQ2zOIAckoKf//znSsvRAi5g6dixo4bDhzjoAEImoXXr1NyU7ZprrgkrloYZHR57V+hBMJiaThj5oBP2/feBVBA6ACw6U5SFHzQAGOrLeJrNchxgJcyw9MguNNLzw23HKUBvPMLSJgvjIFfqheUHMwBcnoF6Jx/qGR0zM+jC8W7QK0PJHb0kzivj8Fff9OjRQ8Emzw09um6pTEkAFhIsZulvvvWuPPLoE3rkAn4U39//oKbu1H31tcpSt14j1UUB2Fgnj81AhVLxY489LkcffYyef4WO1K9//Vs9LJRlPc64Qs/rtNPOUMX3w3/OOzxM66X8ff/THYALFi6V555nGfFwleKxu/CII36h+lWtW7URzrmzgYR8GUhZYrzp5tvkjjvvUt0vwowmY+89cOXXLfWORMk/OR2gZGEsOUMHqEHCxGYEwpCEAYgAMijLc84VcYAowtgVSDxp4WVnVNHuCCcMOsCc2y5RgiecXefkByi3MHgGeQdLhYDCNl+00yMj4AcgZJwZMXJ0rKw8C/wtD78O9qU/eRl+AgCLGX+ys3xSdYp7Jy5YHoQ3YIuzt5BULV20WdauDA5ii67AybgRS+SDV3vJwjkbZPu2YMstg40Ngps3ZcmCOWtjAGrezLWStS1XlwQ3rN0mK5duDpYHFdAVlMrjILpl6QDlSdbjYW0DIOftIPZlSYO1f3tGk84hIVi4kOt64mnUEwVofFQoUmJzOB6zGpeW5SRAHstz7lIcStOkY6eo7UREmkV+bnr1FPNnz2Jkrh9+diilxZv0w/zYbhrX7dKY2+LN9sPNb7ZPZ+GuvTs0bhrX7fLF7ca5bj8uzJ8sjHDXGF+z3bh03JbO7HTShNH46X1/WJpkYekCLOuoGbz4sfTCQIIbyRM/loBYfmdgNAkBNDagMBAyeAGk2J2FLpemHzZGw8gDGs4+YucY8UgehgwZonovLmDDTTz6MOjoINkYPmy0/igHvKzMNuBxThc//BZmZcvY+w5k8V6C+rdLmBOv0gl7F+77tHh44I7zC/hYuNH5dhgvaGiLflpoaZOEo6PLeYeMI/j5IdWdNDm45snyccvj8zOaktjGA77ppiue9iADWGGdIFIG21qarAPcN+G2RJiYG2VWoBINRoMJP8cSzJu9TkFSoCAfSIK44sY38ec2moDCzuVShn6iPfBbfmYbK/O7UjoDWBYX0MaBZtxvXHw7/DDURH6JaSzO7MTY1D7SuOlct5/SjQtzu2GWlrCwcIs3e3do/DS+33gXZ1s6s136VGFunOt204e5jdZslyYszI0vzl2S9D6t7y8ur2TxJQFYDDRIAwBRABU6cbbeMzDxAzzxI94Gq8SOPhhY4cHyjQGeUSPH69ELNmj58dBxICS8oTGgZuF2yKmVCRo3X9yEAcoomx+f7qCVods7IMx9V9RxmJ935sb5NPZuwt6tvf9kaUhLOjcttD49EiubOFgcEi8kXPCgzVs5LN7uPrTw3bHjvMLrn3irn/T5H2QAK1kHt/+EBwDIFMWDchnYMHAEoIhu9VfpU7z0ceBCmJ8uTpfo2hWQJcan6dOyWJ7xNDoIxcrplD1OEuLy+dizx0ljdWAivXhUCleg32agLgVhsVGlNbgmyyiMv4X5dhgPo/HjkoWnS2fpzfbTpeNPltbCzYaX606H9/5AY2U2u7gypQuw/I473ukHIEvPlBoUDDDxuPABYRdeAwfHBqYgzngG6V1+rjvOh5l94uw+NZ1JUBLTxPmlV+4MfenUk72rgUnOJHOBD3Vu9GH178eZP7CTvW8fTFl7itNbeuOXLG833tKE0e5OmPG2+mCSgj4i93fahCZ9vqUEsLg6BD0QFH4PBJNux8izuLSuu7jnTEabLNzlF0aTKixVXHF83fjScIeVpTT47nUesQNgySkSU6bXfGMAMnkpfJK4Pw4eLSywdw1Pzj0aowmDdCbpDGISga3lY/x8f1i40hhhkUj8NC/yi5fV0vq2JdXwmCfYUerSEhWLjvKN+11Kzx19P7FyaaJouRLeHRn4+RZffrfc8fKES529kgUHBLt1ZgyiZWS3FrPysI7ZOnLr2I0Gv8VZWElsnx9pi+MXlsbC3PLAJ52yWNowWuLs58b7afCTX1ieFuemD3P7PH2a4uJ9+oPZ79aF6w57ZuKT0Vi42Zbe/GYT7rqN7sewrRxIbzm2BFDVqvXn8t77NaRBw8baBlH8HzwEKS/ANw4Ow8oLP/QSuZWhDEq6xRl/8GTpDeVf0rILiJ1RHLjI4YsHg/Gfl2cKCyvuWS2N2an4GI3ZLu+wMIu3ON+2eLMt3vxh9u7SWDqzw3jv32HBQByXFKY5MOtDAXJSLP8x2NrA61YCp/OHhbs0u7Q7H0B4xOZNg284KWUCygRb/NN5nwFNlD76qLHsYw7LLbDT4RtLwaE78ImYlDIWE2WGFQK4SBO9AcFLsYtX35+GwicArXalVIx3LJW1lejDKfIL2kBAG7wjYhcvWqEdNtfWuD/uAnT9uLmU18Jctx9GnJs+Fa2f1s0nLJ1LTx5GY3m6fnNbGrON1vxm+/Quf5/GaH3b6LAtztw+Pzfej7M0Lr+D2c3z+8/s10/Y87s0Fu+G+W7Xb/RuvhZvttHgtzJamKUz2rB4l3b33Qu0bjjXa+GiZbpjveIrr8krr7ymV05Vqfqm4AcssREFGj8vK6PZxO/YWai8igVYfmfIHW2PPPKIKkdaHDanX3NPme0EsrhYv7SPHVxj4u4msuwJY1s928zZYs4Pv7lT2Ubn2y4P275uNC4/4gh387Ywo7N0Zlu4b7s8/DjXb/yNn6UzG1q/TEbr8zFaN9zCLB/jG8bDT7c/+Bs2qCcNGzaWevUbSsP6jfTdNGoQtAfiii1j/boOTT1pWD9oU366+g0aSaOGQZur3xCaehLY4fRu+noN6kuDRg2lcX3K00iCMtOO/HZbT+Ma1Iu3bZePvZvEsHj5iefZ4U99WHldet/NMzRsUCdaB400vU9jfqsbaxtp1W+DBlKnQX2p37CO1G3YSOvXniPWbhuSfyPnPTTQuk2vfqN11qih8I7qNwzeoabVdxtvAw31/bn+hjJt1lxxDxNWEagCvohUrlJN7rvvf/Lww4+m9XvkkcfkoYce2YWWcONh8Wb74fiJc9MYjfE328JT2X4+RuuGW34W5udt+ZkND9eN39Jiu243zk1jNG487lQ/N00quoM1juenDnk+qwuz3TDcRufWRTLaZDQWbunSeX9GS1rc5jfbwl1els/u2A89/Kg88ODDUqlSFXnwwYcVWHFumItfODOvTp16cvfd5RR0WVnMtnzxW7kAaDfffEvJJFgsCb788sspz6rhvBm7zd4tpAGcvWX7eSXbRciWe87f4Qwhzh7iXJx77rlHypcvr2HY5ucsJE7gfuqppzSONMl+lsbi8ZvbeIf53fyId9OZ32gsPbbL03UbjYVZWrP9ePP7tqW353L90Pp+P71LExa334SVv1/K3XuPlL+HZ7pfyt9bTt33lE/+rsPKDg/S3Hcv7eg+de9KV07uufc+jYeG/HalSczX2kNQHtKU1zIG4UE+8bKWU37QkA/h7i80r3K00/sCnvfep3WhdNTFPYllCU0ffR7LM05TTstq+RNevnzwTVA27sEzfzxNeH6xtsbz8K065Qrc5fTKlqBug/d3bxp1S76koRzwtfSE3x1tE+Flo88or0dpDBoSXO0R1q9xb+ODDz6oR19w/AU/32/hTFr5cYQEPwuH3vxmh/EgzsJdt8vXjTf+0BpfC7NymB/b0hL36KMMfsHzpLItb2jcMoWlsXi/LEZL+AMPPJBQVp/WymhpXJs4n973u/QHi9utE3uvPLc9u4W5dDy7+Y0uWX2E0VmY2T4PC4enG0c4fvfnlsXKQLzLw8J316Y9cwvGnXfeGfYZx8I4ZJljXMAE5OWW3dxWLi6e/8c//pEewLIcuJPtm2++MW+CbQCHrfMAE8DYj2k4B4gtyK6xMhLmul2aMDfnA6VDnw5NqrzTTQ8PO7YhjF9J+LjPmyxduuHQubSu281nv3LrSk+wXKfOokLVQ4rp/KRZWNIG6QOHugMtHY9DRAIphyXwokO9ESkqtOXB6NKirWEFGUWXyaLLV8Wyji6puXRFBfoAys54h5bFC7T8oxs03Oc2ty2d2XJbLEl8TdZj6nkjwQ5bS68VHWWCZfyCVMEyXxAYf06Po+ct0HeivGJl8pZwNROfX7TdxNLANpq/l0Myr/uN2Dfthrnp3HDX7dLg9uOS+d1w1+3zc/3QGa3Zbnwqd7r06dJZXj697zc67FRxLt3B5naf29xmp/OsxdEWF59OHmE0YXwtzOywdOmGGQ9wDbdJpDKcWcgh0+karuordokQZhSioKBAl//sxWLEMAAAIABJREFUTrZUmXDdRNeuXfd5Y7bKomwcCMnZSW6YPQs2pzBz4vGECRP0UXw6Av/5z3/qNSAffPBBUhoiwtJqAhFdOrVrOTjBOpnxefh+0m3dulX5hcURbx00bpcG0OuHaYDz59K7bkvrkCY4uQIhjMblkZBgv/O4g2R0AM3bIrJxmcjWFVK0dVXq37a1IltWiGxdLUXqXiWyJUiDDQ/iZPPyGJ9I1nqJZK3TX7H8twb8ZNsakay1IttWS9HWNSLb1io/yws+mt+2tRKJxmu+21bG0pAuMb81sbJq+PbVIlnrRbKC8HSeX+m3r4s/u9bBMhHydeohsmVltNyrg/qgvnYpT0hdw4/y5KyLPgc0zvNvDd6TYGt+a4T6FcqUu8F73l35U4+8G9lKPvw2BPXHO9W6jtYr7zL6PFrXvNMty0QKg2tFEkCegs1EoNW9e3epWrWqtn7/2+BsOSQJHEqLakMq46Z13ZbGwrC5L5NT+blSiQlnmEF3lgNaXUM5ww7sZYBBBYQLxXke11i+FoafpVzuhPXjjCbMTpfW6Hw7jGdYmKULiztYw9CRRgpYr149mTlzpj4mF9bbHYL23H7dmN9ssIC5LY3ZYeFuGOcWordN/lxJxkoTt1owxtJeaWOoIfXv318vgDa+2MbHbDduT9yUCX1ybJe36zb+vXr1Svv4J+o7LYAFcx6+SpUquxy6aBljW4G4q42TnX9MA8AyCZaVyy0P95Vx9UWbNm3c4AT3UUcdJYj5SQ8ahSd30aFTwrUcNMzGjRsrmARU0lhdw51m5cqV0/vbAGucKo0JK4+lSxXHfXVuvYK4OS3bNW563Jw+/txzz7kku7jdNBZJGPWXLK2lQRTqXlRs4fBx3cZ3f7MDwQT/AbgCpBYsGSOFC0dIwfLJUrhsYsofNAVzh0v+/BFSuGyyRJZPkUgszWSJLIXHVI2DNrJsghQsnSSF07pJ4cz+KXmTd2T5JC1H/uKxkjezjxQsnaBp8pdNUjue10Qp1DgrwwTJmzdc8heMjoVTPn2eKA/88MlfFvAsWDJO8iZ1lfzF45Ru5/Igj1R1kD+rv+RP6yYFyydK4fIJWlbKWLBsavTZg3JpuVcEdZM3b6gULBipdZKKdyxu3ggpnNRNnyOykmeYrPVA3QT1G4TF62KyRKb1lIKZfYLnjb2PXd9l/tIpSqPvcWYfyZ8/Sv1a70snxeob3vpcSyfoO+E95s4dKnmr58TaDm3bJJ8GuOwb4KR6+hubBFk4aRhwiGNCOG3aNL2yiHBuSkB6znVKRs91RppPYaEsW7ZM3e7ECzcTOui5GQG+XB0EiLMJXn5+vixcuFDT0v/NmjVLy7VkyRK1KWulSpW0z+d6JpZGMCyXEkcYqhWY+fPnq80fk2+7u5O86BNtAouOLoZyrVixIvY8FqaRzp89rxNUKk7ja3apMD0AmAwcOFDbwmeffaYAmRsWaBP03YAGxgnGM04E4OYI/EuXLtW2wRgDIOJ9AoZYSmOZDBq7LopDoAFMvG/GjTFjxqgONBMGxi1UhwAwtG/aJBvjuMaKzXJ22wVxlOf//u//dBkaGtoXZWb83RuGdkBbZeIAcCzO8Jxh52v67Qk/9Zg2wCJjPrR0TkfnCokwBfPiCl9a8TxckyZN9KXYg5vt5sGVJYAl3xgt98xdcMEFqlNWtmxZOe200+TMM8+Uyy67TAAW2FdddZX85S9/0etCrrvuOmVl6dEdufXWW+XVV1+VE044QVE5szoaDACNtV/K+c477wjXcAwfPlx1Qawx0ckxm+TeM3TfuDwX/TZ4MCM9/vjjtTGSKfep0fEh6kTHDCDGnXqsGQMMmRkQjoiTi7CfeeYZvfIF/nw45EXjARyzFMwJ5iBwrkHhg+H6GNaZef81atTQQQHwRR3A2zX2/G7Y/uoOBsLoLjA2rOXvkKI1c6KreFGJVnGFz90mkpftULnpnKMfdOktWOqLrJiuUignUbgzdhRBRGRdMEgBBm0Ax4Fb/bFAAgpEcrdJJA/ppVseP5vEOIBGwMzJw0/i+reulcjKqUEIu/aiy4tBeYx3YAfFi4jkbhHJy3K5pHBHRPJzFVRBlNi2Evm7uwYL18yWyIZFKfg6UVaH0OcHtyIEdeDQRJ08Q1CGoFy0FTX6cMFuStK6tcfF3tYPAG4Sn0Gkffv22j/wnTLIoRvKt8qgxHd+9tln6/fJ/ZJc64PU6emnn5ZbbrklNkAxAyf9pZdeqlIKBg2uAeL75zvmYm3uJSTd+++/r+VBHxVeADx+F154od69+eSTT8p5552nfdzRRx+tPHhGBmL6HAYODP0IZQCkMRhSNvJgkGYyzuSSAZT+imuIGGyRfF1++eU6oNmtC8rM+6OOkKIB2Ch7cUcBWZ0iCAAwJjN+X5WM7mALB9wAXHj3vBPuAuU9cyA3/fhNN92k7Y5xoEKFCtqOaCuMUVxSf8cdd+hVX1x6ztgBKAIoMR4xAUAtCCEC4yVtEJ1G2gZ3sHI5PG2LGzGgJT9WuODD1VbY/ADeSDy5Oow7T9FhQvrK9WC04b1pqlWrFpsMJMuHNsZGPm4RSWWsLZYYYCG94cMxY4zMj81HSGF/bANwQsyYytBxffLJJ0oS9iyAKRoYFQqQAq3TeOgQUXznXrNPP/1UGyoAiE4UY7wAZYQBSpB0Ia6ncwF40chPPPFEvS/u+uuv186Uhn3MMccoWGI2SKOj46Qh09m2bdtW74Gj4RPOLIQGy8yTi4hvu+027UApI4377bff1nvYmD0iTaOTQ0QMP/KCB5fb8gFRLoDfE088oQp/LPsBxrjPDikenSgfD7SE8yzwoSyusWd3w4pzF5emuPg95Z+QvnCHRNbMKwaUJKTQ5bFIdnB5sMUUV2akM0Ublxp58XbBTomsjQ7mxVMrBUuFfrksaQB2zBe1CwsEKZYU5nkRyb08A9Ie34Q9v4WxlGrlioUl6DElcotkb5GiJcmX8hOpg+8PAFu0NpCuWB5G5/stnPdelBW8x9D6cQLhAa3lYTzCbL53JmEMcGGDPxKmU045RSdZLLnbxdMAJDp0BjW+Qb43+g2+UyZsTPIY+FC4BeAwqeJ7ZeDkOifABBd104/QdzCIMknmO+b7pS+ANwMg/SW7MplUMlhyFyM08KMMZpAyMNEkX/oOLkNnEPzNb36jE0X6OfoZ8oMHZaZ/y8rKUuk/fSJ9CJdmcw2WGf+dUA8MsNx9Sf+J8jB9EP0iYIs+CLBG3TEhHTlypNYHE0RAI2UnjLRIb5g8MmjTT9sKCxNaBm6em7Ftbxj/uYrzu2Xwad24krp5L0yQf/nLX+oYRhu46KKLdAxgnGAsYTziDlSWEKlv3j3vDpBPu+E902aoRyblgHcm30itaA+8c/gw/uDm7lXGV9qq3WeKIIAxBgkXghjaB/S0UQySMe4CBZjxvQD44IOQwtfrLs36QXpsqkDJ6pb25+KfZHQWnhbA8h+CWRLiNHe90mhYdqMzQUy9L43l7+bJZbpWDj/e/HQKrAGb32z44AY52xLh6aefroCNxgiwonEAYrBpCMzW6DiMB+J9GhaGskDLTI60dFg0JBols1I6XzojeNx8880qmkcSBcAD0dOBsrzI7ING/p///Ec7UWa6GKRgXGTLzICGD+jBTTwzBwx8+LjID0kb/OhweV90SMxY+QABhMyemWmzJMCsBHDJjASedHqIjPmA+Dj+9re/xWaX9uxma8Z7+Ge8zPbZJQv36cxv9GZbeMwuJYBl/MjH8nJtQEkygGV0xkPtEgAsS+8CGXhYuLoTmEc9ewiwXP5h7C3MB35uOtdt9EU5WxVghcYlAWYArAAoB1z8tL6fpTsFS9mbNYGDpeL15gZSn2kCLCRYfHdIDZBcY9z8bYkQoAAt3zffFtIBpERIhRj4CGOgRKKDG10ovnW+XwYhdkIBeMgHQME3DJ3lBTBCqo0UCv1TgBzfM/0MAI3vn3yIYxCENxJsvnEMgxx9AjT0naRlEGY8QJ2CgZk+l/xZvoQH+dP3IRWnb6J/YWmIPhPQ5deFBkT/AIkALQZwBmGkHdQPknrc8CYv+mDqAj9AickjbpayeAbqHj994YsvvqjAgAvAAQv0p8RRHhsvUpXJLV9pu+09YZvbzyNZuE+H32ixee+mW8cyH+CUJT4DQrQh/KySAJqIB4AyDrFMx8SAfp/65Uc6xvvNmzfrageAlyVpVq4A+iy3AcxoBwDclStXankAzHwDvFPGVpYeadM28eDgciSdrJKwFIekCz8AjXLvTQPAAkC5Uk6rQ9ouEw+kcBZWXFnSAljGxGXKrAGQwIDPbIoZAB8Qflvbd+mNx96wi8snVTwfq714t2yWhoZkz4N+FaASQ8UhOSIt69iI9WkgdHxm6DxMUZS1bBoenQUzKl4gS27Tp0/XxsvyIIYGRZ7kT6eEngPSKXihe4HOFY2dxmnr4+hoMNOlYdJw6ZRo6IjWmcFZowQ00YBM4kV+PBNlgBcdMiJ7GjPgEEOZeQbW0Mmbj4FnpR7gw8dCHZKfGas7swk3N7brtjRhttGFxbk8w9x+WvObnYynhu8GwPIBg8+ffP28wwCWT5PAxwNYKWmjCV2AZfQx22FuYZIEYMXinTTmTCbBsvgw28oF32S83XAkWJHFJbstwpVghZXBDbO8FJCFAKwYrQOwtOxpAizjzwAWZvj+mLgBjhiUkJQDtpgxI40CDKCIzqSIb45+BDombAycgDAGPKTUgDUmwfQDgEZAjykPkwbQxUDJxJI+iwGMPqlly5Yqebrkkks0zKQ+KBzDA0MfBFhBgsESJP0CcfQzDMRIATCoPJA35YE3fQSSI/ot+jMAEs9i9UIa161MnD8kFyxlMXAj9aLPJS/y5Jnod1mtgC/xxBFu/R/l4PnoI5GckDf9HP0tNEi0GMB5D65JVSaXznWHpfHDfL+lTxaeTryf1vxmGw+zLZzxg/fpGotzw9Jxu+lcN2l9fzr8XBpLb3Zp8HT5mxs842IbvjHA50cffaRg0fI329KF2SUCWD4DkCsNHOkJMy1Ex5h0MvZ5lYa/NPJNxiMs3A1L5rbnsniz06knOgBTukuWjnA3zvIz2+Lo7OiI3Xwtzmhd2+LMduN89+7QJEtDuB9XEr9PS1ktzLXN7T+L+pMALNKwbGqKxW5aAwxumLl5h75om7gwgEW4lc2AvfGRKMCy+Fi442DAc41fLtqBGQcrWJCEASw3v7DncAGWS2tMXSVoC/PLZeFmM4C6prglQvJlwmIGf9HKGbss31n5zDZ6s5FghS0RAmh0EuFXWvbmXfIwXmZbXmZbeLo20iIkD77x+fn+4ugt3tIBypB4A7x8YzRmE++6ffo99e8O791Jk6qcpc3Pr7OS8Pdpfb89R0nDLd2e2n6+5jfbf/aw/Ny+KSze5eHyTUZb0nCXJyCdpWPDNiZ1Np4urYWF2WkDLGNodhgzizM7jGZvh7l5u0uE5OvGJSuH0ZidjK4k4T4v3+/yShXn0vlu0pUkbbq0qej8ONeP2/W75bVwdjoBIsMAC/RGhyTO3MaHGSszaDNIEpHAhUnSmMkjpWNGHib6NR4x2wNYlje6hSwBo9RvYNXS+BIsS4MEkOUWljeYJbsmmQ4W+iUsE6MLg3TAeKF8n0wHC3BBGvToENUDCEiXCsi4StixciWRYCF5sDIhLcHEypVEB8vKhK4Nz0EHap0o9VWUEyzFxfIW0eUGlqKpY3SNeA5MKgkWnSG6SCjGshwUm5SsnCGFqwOgZmV18wpzu0uEVj9IOXiHLON3bJ/4DtNdIrS8kpXDD3f9gHqkDK6xeLMtzvdbuGuH0RBGPu4SmZsGd1g6nyaZ30/r+y1dsvCweJfW3GZD77otvWv78b4/HR4uv5K6w/Irjke6aZLRJQsPyzcZrR/u+l23y9PCzXbjSuL20/v+kvAqjrY43sXFwz8tgJWMUVh4WFhxD7K34sOU3EtavpLSp3qWMF5hYal4WFxJ0rm0rtt4JbNtMLR4S2u2haeyjdZso2XgZFaOAiMzBcCSiecBSQaeAGAsl9DxM5BikG4gwkViCrDCsPQCHwYiwmyJk+UN9ExYEkDRn10q5G38NbH/5wEsopEMoRQKUGP5Af0TjD2XAQbzE8dzoLfHMizpzzrrrBhggK5oxeRddLBY30cfhufmOY444ghd/lW+BTuFnXFuHrhZ1kX3hmV6DDp+LINgwgCWvVdfGKMJCgukcOn4BCV3lqfR72GJxp7JQIym2bQsQcmdMrEkhe4eyzS40XFJkDA5Su5azqIirRt0A225AiVXW3JyJVhGr3mLqE4PekEY9IVYBsLYEqHVl28rkffnK7kjReR9UJ+8w7P/eJaCxBivNJcIvWwSvMYrITDEY3TJbD+J0bnhYWEWb3FmW3hxttGbDb3rLi69G2/pzC4pL0tntsu7JO6SpE9G64eb3+zdfbZkz+Hy9Wkszmw/3vWH0YSFFZfG4i2t2X44fosz22h8u7h4nz5dv8/X98MnLKw4/mkBLGPiZuC60403utK2w8pCHih1o69gxgYW85vtpnfdFo9t4clslzaZG701drawG4OB33ghmkcvAoMeATsUzeAHOJhhfdj0wNhNg+IdyqnwxhhPozc7WbjFJ0ubKl2qOJev77Z0DNiALHTOOD8FcSw7TKgPpAa2hRx9ESRWAGYGX34AJfQ80B/BUEeEUx9IWNCrQMqEoiS6KfBlGRspFoqtKHFaOfzyiQewoENCwq5RDLtkzj333Fh64sOADArBp556qqZhIwEKtm4bDJNg8Tzs2oEndXPkkUfGJTJJJFhI1pCQYXh2wAz6cRjK5UqK4GtlMAmN+TVBiASLtkqZMCgts0MMAy+1HQmWhfHukPhg0AlCEdkFtW59WRp0/Cg7ftIfdthhMVDtAyzNNyp1AfhiAGPUF20DYwBLPdE/y8tse3bzuxIsng7lbXb3YXiHF11wYey5NbAES4TRIiSkt3wtrrTsdPmmS5esXJbebOhct6WzMLMtPMy2d5KMV1galzZVHhZndjJepR0ell9YmOVrcWZbuNl+uOt33Ubv2m79Em70Zru0rjtZvBuO2/xmu3m4/Pxwl96nKyltWPo9DbPymZ0OvxIBLGNoGZht4fubzUBts9mwsvnlL6k/jGeyMCQfKKrakQvormEABMzUGRQ4DoIBBkVXDOVhZx80gBGkCOwCBIwhQUBfguUgtsHaFlhN6PzBw38uJzql00/n+1MmDol00yNpQlmeHSuAFSRSLPGxG4jBFckBCvkotUKDkiyKquz0QSIEL6QjKB6iC4gCMOnxc0QIvAFV1Av1h4Ir6dAHYrcToC6p8QAWdAA83hPgmJ1TlNM17hKhPScKxAzObD9muY9do64J08FiswJKxuwaZWnNQIryTKKDhXSP5TuW1tgUwc5UM1YuKxPh0DPxeOW1V3WnUII0qiB/l2MaAPSUiR1mlIejQFx+poNlYdjkgVQNUMJmDTsfzsplAMvSEE6bAMghjeL52UlnJtkSIenZTk6ZUAY3sEW4v4sQXkjjePeAXyR+NrEhjjQ+wKId2TtkCfK5ZxLfYUmXCO153Oe2MIAs3wGSVjeeMgOiadtIY11DHN8JR7hQVte4PBhUmWggMXbDXXrfTRtxlyb5vnzDt0mZed8Y48036erRIZ1OdeaVz7ckfsvTzd9P79JYXFhYKh6WzrddPkzcqA+b+Lm0TACYSKIwzeTYNbw7NhCwFM9Ekc0NyQxSbjaT8c59w8TSpPrEFXdMkaV3n8HC9oZt+Zidbh4lpU+Xb0np3HK47mR8dgtgJWO2v4UXB7B2p7zpVGoYXzpNpDIMNgweZhgUkKqwY4jtwwwqdjIuinWPPPKIkvLRov+DwiuGOLYgI7kJ6/iM//5qM7AhdeNHx4+UigEGqRO7Humg6ZAYBNFJogOijojHzbITW4gBl+hYsbuRQQQ3UhzqBzBFegAbQBs+ADaAF1uQTU+JOgqkOVEF8ITdetEDSEV0xxVLZIBkt+NC0mGSItqHu/RGp4mOGWD4kyaB7pK9E058d49psLYFuGSnFZJJJHDKn6tXCnZK/prZ3sV7QcmpL9oX0iJAt5kAYG0JwIOBiKIiaf1pKz03bfBQ967OSFTJfbxECgOJqj0MZWKQRIJF5+4aA1jxsKAeN2/dIlOmTNLyUOeY2BWHSNayNxh7jdO6KyrSnatIJ92z9Dgzy87BgonWcbSit2dnKXhmtw87Zc0UrZwlReviyvJWv0xWALz0D3ETvOeCtfOi53PFNwPwDlesWKXgtWlTL03WpoSjIOL84mADgMryKPVHW7AfAMTdNACAol0CsgFUfCMsdVPngFXiGUAZnNEvhR9tHNDPNwOgRwoIDyZ0AEkAFd8L3wP9C7vs2M1n0kTyAhRgs1uYtORN+2OwJz+W1+EL8AV0MVmhXWIIA0xQFtJCx0nc1BkDPcv48OOHTh3Py25JJju+sffjh//YfsrFOYjUNX0M9Q/wpK+hbm1FgXLyrliloJ+grqhHDCCYSRCScPox+myWnA2EEs9Oct4Px/XwvVCX9IF8e/R35EN+TPaQplPPvDto+PbJiz6O985kFP6ccUbfSr/J7s+EyVSKivXfhet33SlYlDhqb/EtcUFKMUEGYCWpTHvZ1mExUyyJsfRuGpZ8OIeGZSMGemiQOLiNHvBlHyUDuW2Phg+dGoAMQ2fJcggfLAeT+orHbr77g9uvD99PGd3Zsl9m6siVNvjx5je+0OOmQ7QwQIhriEswjP4M2gZkoqef01myLIjhvBYkS2aMt975l7VBg2GxauVyue3Wfyu7bl07KzguKEjMz18iRAqAlAyeDGycL6QgEK4wzd8h4lzLonkXiQ6+ixbO1wGNk7TtlGGN5y49Ds6MghErt+/XaB4/slMKloyXokiepmEgRsKIoeNG2ZsyuQaApc/iBP7rxpt1YFixfKlKv3Jy+H6c59+2Wu8KtCSUFekkwICBi+VUBngz+gxLgkGZstoPoMRgUphfINzKwIBuIC6yYqYCLHhrXUSZuW4N4rmjy52mg4V/5crVcvutgTSwc9cuKrmkDRqtwvKc4ncR8j3ThthggSI5NlIINnkAPDDwZDLAIIv0gvaGqgCgB8knyvuAZ0AU3zrL3LxnloJtmZ1JHP0HfQLSRgA650ERzoTApPkcSIzOIrwYdJm4IYkCACFB5D0g9UVCjKQWCSEgDhr6HSTpSGEwnIvHMwD+OFOPCQ9SS0CYSZ0B/KhrIDVEgkMaOzpGmUSf39yp7Hjdp6Iq3TjyBKygAwpgwY/0iGOJ6FNckIz0ibqhf+ddAJagpU5YbubcJ4AX8bxjO7aDdwEIRg0CsIrhjCneO+ALEMWB1uhmkidjA/VLPO+Yd047oA0BYHlnTFJQKSEOqTvtaJc+z6l7nqu4+rV4s92atjCz3bhUbp/e96dKu7/HHdQAi+3GoPeSGnvBfFB0CjRYPhLCmUWwqw0pE52kAS9LkyovZh4YlgKRSNFh0ZlhSM+MhA8YQyfM8iCzJjN8TAakmFUiwcEAvPjIDkSDlCJsFyH1UVyduvHMGplZAkyoxzADvZ1L5qa1cd/C2K0XSIoCQMCgyODN++B6CP+dM9gXbl8rBdnB2WHkvWNHnvzfHXfJ+eeep0Bp02Y7eDcOMgAlkU3xc3eYpbK8x6GSHOyKVC4oU5AmUrgzLi1RRBSEP/jwQwraARukwdizqPK9nkwezzcg0P8YfwUsANKCQoksjp/knp+/U8vEEiGAj9m0bxIkWNFLjhlcTj31dLn8yitk5vQZcUQUTRyT+DnMGBCYfHC6tIEBi2aJkHsWMUWaRxDDYHbiiSdL2bJ/UQloDMQVFQbHNIRIsIxnoh1RKWbR2gVSlBXsTs3duUOlxADMq6+9RoHfLmmyN0nhuuAbtTpPpBEFvrbpgjijo/+gvZpBAoekCxDDRIpdpwBGlrk56BOABQBlILWlYyaA9HMM8vR19FUAdfoHBlQkIuSHFBegg7I+wAlwQJ8GL/oOpHlIR8gTfkilWHZFXQFAwDI30hLCUXUwCS4DOWWGH9JopNBIOOFHeWkvSLJY2kRyg2oEEmv6VqsHe/6S2nuaPt38mFAY6OE9AFyZaDDhYNkToGtloY/m+agf3OiV8h54t0i3+JmEjw0wSP0wAE6kT9QdqxL0U7RtJFnUGcDKNnIAxgByjA28G8AXIAoQC/DCzXuw9wjI4puCj5XTf/awcD/M/L7t8/L9yegtHHrX7ac/kP0HHcByXxRLAWyT313DjIJZAzxpnHROzEL4aOhA+IjoCOnMXOOWgXAGZBq8GaQMiIiZzbA8aAaefIAYdIrc5Q7CmJUC0lxJD5IaBn46WjN+/hb+Y9tWLrMpM7vk6HgJYxaMxARxNzNoOmE6GDoSOjFmbHQozOypT2bf/DAAIEAr75x6YrAgDYccIgWED8sS8KXjATQxYPCO58yZp5Kp3NzsQLBjS4RRsAB/3iF5JzNFW9fo/Xr2bNDRMfcbwFVNwV2EllaxEaHeEqHF064SJSVRAZTuIowCqCgqNF50skh+3PzhZ7pOKm0xpXTP5qFJpyArknhVTpRUlxiSSRBVgrUiaH9WHvIeNmK4bNoYVba3h4vaBrC8YH0nSHYwCc+Ss1EKF8WBs+YTzWz0qBGyYF58ImJlKFw1S4+1cPm47nje8bsiC9bOkaLs9VoXSMJYKh3QL/G6LZcHGwhUbyvObBcXAANJk5sOIiZrNkkizgZxwBJSC5bt+B5M8oOEibYM+AR00Z4BU3wvpAeM0f5pq7R7BlwGbNoT/QTAiu+FfOlfkDyRB+AHXkja6I+MN4MDAA2JF+kAUuQNwLCNOLYBh/x4FqRlX331lQI+cwO2kTJSTgAXIM7UIHaprDQCeFa/LtNIttskSH2QYJEnz8SGDZbcMDwP/YwZACgTPWipVwAx/RcAlTGEjTZIqXiP9EXWVvDeAAAgAElEQVRWj7x79HBJD6jFNokW4Bg3gBcDP753DO+c/HjvAC/yY8zitHzeGUANqShtAemhL31WJiX8s7o3200eFkZ8svDi4lzeB6L7oANYpfUSaBA0WDolDLMzZhHMHJiZYQBJACz8yRoQ4Uho2BFFZ4eyLzbSK6QhrkFqwYfIQMYSCZ2Z8aXzQoqAYQBiyz+ABGkHs9BkxtIni9/X4W55mPVyNRB1AXiiY2YgovMHfCFGp/5ZbmA2xyyQ6zAASIBRZpN0UhjSsjwBT0Tv8GCwYHYOUAV8MaDQMcITP4OHzuCfeFylgJG8ncHykimTp1E5wfNEBICly1gKfJAWmcQosOOLatFwJCwrpkpkQ6CjkTIrEAMgKD9PitbZMQ3RS5UJj3ZgBixcXkjW7M4/C7cltDh9dD+hAoqdUrhkki6Tap6WyLN5bnuXAKyiZQCs6HNHGcef2TrYSEySBcCSnI1R5OgxD+mQC3MCCZaWtIhl38JY2mjptR5iZQDUchehI8HaNRcLiZcbsJS4pBq8L6szS2F1V5iVPsCytGYDdFwJluk8WTw2A6aZWH0b6rUIzzZpmdF70epNFefSA9b4TlJJhV1642s2QIoJqRkGeMAexmgsDhsprhmLN9sPN//etgFYJhmm3+H+WgzlApS6Eiz6ZgC1TUas7GbDy9xWbkCub3wapFuMQW44faXp0gGizZA/kiw7qsXCzTaQlWq50Ghd280bkIeeHeDO+LnxrhCA5fGwd+7S8ywHo8kArOhbdV+2vWgaLwqhKIoCcAABzCaZPSD9QFeCAZpZjZkwPsQBzuBlOlVIYJj1uQZAwcdKY2SW4/IiD5fe9CFsBmR83DSu2+L3B5tysTzCcgbLGtQJy5zMhvloqQdE5tQZHRpgCRALGGOZio6DH7M0223DIABPdnqhRwIQZjmVZSfieH8AXcTl8IQfy5NIBT7+uKbOCqkbHTgLdoigTB5Vfbc6s/o02w0HxER25kSDgiHfBuEY2AJUaccckBWsnCmyZZV6fJ7GG9viSBtZtziIigIrAxdaVgZezTQKGEibvUFk57YYGDFesTJFM7Kyah7LJgTl1LgAYETJYpbxwS7cvEJkxRyJASothqULbOMPA8qsdwvmZgXFjXENd5C2cEeWFC2fqHnYM8dBT5CHhVte6FNFNsSvcHK5W/k1TBMES4QKeHdkB8HR+ozT2jM5nHZsTUuC5Q44TuqYLhLxSF6ZPNDP8KNtsrxEW0fKi81kA0kqAzvfB5IVJE7YTLiY9LFEhaQdwMZgCz2DM22fbwnQgzQJcId0BN7kT7/GsiHp+P5MUoaEHoCBJIQ8WRrje0J6Qxn5bhlkWS2ABz8mM9CwBIaUhXzRXwSo8X0z+QE00I8CIpn4IGHhm8WNRI00SGZc8BB/F/Hvwq3PveEGiNC3IC1kYssF12ZQF3FVHAA2LOUhsaN+bVnV6p146gNpFfXJswJA0Z0ijIklz0wdM0YwyScP26zAu+X9MEYg5eSHtB61E+ipY94Hul3UP/kiHWMsYwyBnqVL6h6pFu+Hd420jXdjE1vaFOCA8YU2RR60B9oK7QmdMiSRtB/09ABIPDNgkbZL/wodvMkTOt4dPCkX75R2AD/6aNyucd+zG36guQ8agOW+ENdd0hfip6WR0HBZUmLnDo2MpRg6ExopHwIfBjMX4gEIuP0f5TDeLH2Z36UnnpkPYRhmosaHD5x4y0cJojyZRZC30Zrb5W1x+4tNB09HjOGDpPPnkk1E4XyoSKL42BFz09lCz2BjS33UOyATCRaDCIMA9QVQI4wPHNsGBRsQ6MRZ4mBWxaBDB0dHyHvdtj06sObvkLzFk0Q2r5TC7etEtq+Xom2BbW7zm124fJrkr5mndCqd0XTrdIlOkNbgz9ogBds3BWHb10jezH4iC4Ypf+MbZhdkRdNvWiZ580aKbF0u8IxkwXNNLM+gLJQzyDeyfaPkr5wtO1fP3aX80NizYRdtR+l8lcjGZVI4rZvz7PCKP3tY+XiG/Bm9RbLWSuGWQKle62Dbei2nlUe2rwnqYft6yVs+PThlHZpo/ZJPZCvPGoTF7XUiq6ZKwdSuyq8wa2M0TZQWhfmt6xRMRrLsXa2Rwpn9pXDeIK13eBlv93nMjaSPckbmDVHdLXXHeK3XutJlTeoia0Os7v6fvfuAt6ymFscP9qc+K1aQ3qQXAUEUC10Q20/FgjwsT6zPggLSRUGkNwHbHxCkCIKIKEUEAQGRrgLSVUSkSIdh7uT/+ebOupMJe597zp07M3eGnc/nnLSVlWTt7GRlrZXsJ/5xXXrs9rCVi7dyet9YM8bs+i1yfsLBbHivSYpIaTFQ3gPj3njns52ykbPBoCaCy9yDGWF76IQhW84XvehFGad3ZaWVVsqSXJJd+CyIzA8Yx/tIso0JWy/qO3ZUFlELM9siP2F1brHFFhkG40WCTMquTd4/7Wf3Bz8mwKLMhpS6njRZf1w2awHVLx/KNScx/CaJZitkgacSI9m3mDtFrS82o/rnQ8yM4jGUpYu5tEybWeGYd9FZ27VVnzCY1oeybTbBTvg5OGAOYgZCoo7Rkuc0MTqijQ0iuoIFYzH2zB0WwPCwx6RSNLd59pgUbVA/Rhdjh56YFcySTTlpvfnNPOfEOmYPU2dOxdjRjMBrXGDoPQN9AksjEDiMAUwdhs74MOb0xSEcY86zDCbOyXZqSX1AD+2El8ZFX21oqZltqH1pwoEJ8z3Gy7M2pjCNtZuVz7iue7zicw2D1UQQg9BkM1aH6zcoce+YABOKHYWdJAaLPZSdnbgBCMbEIzyWXz/l+8EPz1jqn5VlvFDoqk5MlckKY2jhsBu360JfE4hnAMYkDgbjJc0EUy5e+g0ew+sHp2PQFjPwnl/UA4eJUf411/45Xfi7C/JR/JSeyFKVoTuuTZNvvDBNueXSbFzNwHrotsvyCTu+ePyeuP3yzCgN3fL7NPm2y4fTb/ljVrW5WmDSrVfksumWS9MTt/4xDd32h8xgWMwfv+n3OS9wBe7STzf/IZcD88SNv03ptkvSY7ddkYZuvTwN501tS9QdbdWuG89P6aYLRtoF7/DvD/nkH5zDdV2aJt92Zb7FfdINw/1Ot1wytb3T+lu2K3BN/uvFadJff5Mm33p1xvUEY/Rbprb5tivz9QrD/R6uG42m3HhemnLz7xPaBZ7AHbQIH77JN12cHr/hokw7dJzW7uF60q2XD1/jMPW5YODS9eemSX9VZlr7y3KBn59uvSQN3X5VZrAev+Xy3O+oxzMcbmPQKuKXpSnXn5vS3cNSxbYFgSrQe2t8miv87OxJcYxNjpQEDKkAxoIUw/uBATGP2eFbaC24xixJgY2axdUiTRLM9/7YkJBmWSyVwTyJW+C9bxZgbbDBgdsiYB7zzlkcbTzUCxacOrw/5lLtYsZAcmWjiYkgNWHsbU7UdguqDY02WXjVYwPDHsj8aVNj8wMXCYaF2sZJ+yzIcKjfu64tmAXlQ6XVRuexzvOjlVOfjRpGwJyBScJs6I9navMdzjNBU9Jx/Ud7zA06mpP0zzxkc+iZ6Kc0tGB7hxboJ85He3MaGJJH9MQwYXris1+enXrFwYMxXjwj7cYMmm/hJ73yPMBiBDHRJIjaZOwZLyRqxoFn6JnAg/bmZYycZ0boIJ/GxfMyNjxDm1x9NU613zg3T2OiMWskatpEYooh92xtis3vc6ObUAzWeL84xO0GSOc6CnQU6CgwkSlAxYbhImEebR6UPxpMP33FFJF+lwxClIO/ZGhIiaNODB7mq3YYyYAp86iPLKgW6F6uqSz4sh1Rvg028ieCr42hrcC8klyOxZV2acrTcmBuQ61r49nmwGBqa4dZI20KN5oNVBu9jdum8RN4+drwVHUThsFqe4C9HkyvMvJw0HY+neso0FGgo8BEpYC5ikSVOofUg/SCxIGURDjsbkhASApIREg0qOFsIDFmpAHULuY7ZUki2EGRLpFgkEiQYJD4YpZIy0gOSDAstCRRpA1wYwrAOcDj5BvJBgkEyQNpiTpIykhLSKOov8JWhwTD4q1N2o2pCrtV6j8SHZIPp+RIUrSPtAU8BkR5DAEGgoTIgRQSObBRRr9IfsK4eiI9V33TF1IsTCi6kCSK6z9JEXp5PmhIYiXOJ+nBrGDG3HWljyRd6CyMdp6b5xVSeSpf0h80IRHzHNHQ8/a82LcaJxZ6kirP3lghYfOc4ROn9tNuzJyyfqRLJFTaQpqqD5hy/fI8jDOHhaiTjQmSLeOFlEq+scy2DA2aXK/1uwl+TkybMAwW4pUEJ4JkuGfS8IDH4oguPejOdRToKNBRYCJTwOLEFgYzYUESZitDnYdBYltjw2iRZV/l4AabF+o69jQOf4SNonKvetWrsh2TBVAe2yiLOzUiOxifVQLPzsbiTBXHDudlL3tZZowsuuxw1MveRj3sodjW0Ay4uBLTBa9vU1rcqd8ttBg3RvbwYQBdpkwdpU6HT9jeKMs+C/PF3ohNljrYhlExWZgwC05JYxDYivneJvUYZsCt6KXt00R4thg+zBSah30VZpOdmr6xVdI/NGdLFf2lckRrdmeYKYyLMaCfaMQGzV1s1Htg2EpRA2LK0c8zNUYYm4PXBifVMafsrDx/z0R96Iqx83wxrOzl4PQ8PFPP1h1rbL6swezrMN7qMm6sp+pmJ0ZNyVefMFsydfphzo1B4wOjF1K4co2fCM9sZrdhQjFYZWc9WC+lF8qApAem12060hrl4uHx/TxoL3znOgp0FOgoMJEp4I4pEgzzFikGSQhpAAkRaQWbJRId8x+pDzUdKYN0c5yFGRzJD2aNHQ0YEggMmAUbbswLhsYCi+HCXGFUSEVISUhWxElFLKTq9yPdUAd8JE2M1vkWXPhJK+T5WVAtyMqQmpCKaSc8FnU+SZj6xEnptA/j5XALRwpCUoJBw3RqpzaT9sCvzriiYHY/V3QNhx76hSnRR7QkxWG7JM+z0ge+PqERWnpmmCV00i/PHqOl//BhgJVBZzDoSxqFCbWIGy+kUaROJErGEzzWTAwQqRhYtDSGSLaESQ89D2OLMANTZVxJ0y8MtbJUyfKFtUudYLRT3cKkcJg30i7PShx+4SYVZEm3oN/c5k8IBqskdIRx1SYDjkGeB4nTxykbWKWLMpEWcTsfA7dzHQU6CnQUmKgUiPnKgoyJiXj42s3uhoqvtLeRT2VDelTOifCEA1PiifQmn61TbUcFf9zppAzV4aCurL8Mw1PGMSNl2wetZ3bDR1/4EW5rU1M+ppYauHZNsDXMaHE4jJ3SHmo0vBgxTHrpwh5OWlm+KVymlfB1eol/bgtPCAarJqoHgItu4nrBeum50R4Uzt0OoXMdBToKdBSYyBRwrxGpE0kFWxeqQVJ70g4SDipBG0bzImmIdBIvUhGSBapDkg3qPCoq0gOSI1c8kERRH7GlwiyROLDBgYO0AT5SBjZftAXiTseRsLDRAgsfk4v40kTQsm0ObkqPtNqHK9ICb+k35TWllWVmV7jfdvWCa8prSos+9soLmPAHgY0y4beVbUtvKhew4QfM3OpPSAYLsXHadM9sAPzor0mwHAVtcvHAwgeDQbMj61xHgY4CHQUmMgWoXjBQbJdWXXXVbBqBsWLLwjaGTRbmy4TN1oVti7uUSBgYvGO83E/lniJ4zJ3xLTw2O5gkTBYpGMaLXZC5lGqQbZM7sTB17HXYcMFB3URlx3bHFxHYSbHVcSdf7cp5N/Ka0iKv9PuFK8vMKeHoW/jaXYb76Uc/8P3AlHW1wZfpTeEyrcRXhttg2tLLsnNbeEIwWDXhxRn40RPTNcePzpjq0M6qcx0FOgp0FJhbKOCiUepBDA87G+oiRuNsW0inqHfYTLFpYovDGJlq0FxJ4gWWnQypFGZN3CkxdygxkyC5YvjMRsbGk20POx3XQjDEdoeVH1scd17BpT6SLFoA6jtlzb1hB1vP2+WziLzwy7y28CCwbThmZ3q0v/ZnVZui3qivjo+WHvn8trIlTB3uVabMK8M1jrktPkMMFoaHOJlBot0OA8kZdYjv54ZXRnu1o/Zz/HdWOYacDCpNUDEwwo82OCFR2kBIB9PU/igzml/XMRp8l//UoMAg4yJga392USraMWj9ZbkyXOMZa16NZ3bEy7aX4ba2kCI5jj+Ic3FnfBNukHJjhe2nH4F7ENgo0+QHnvCbYGY0rQ13W3pZX8CEX+YJt6XXcF185lLAxoJKHG9DBe8gxliezZgYLEbnbAJco0C/b6fjpEN83sEN3NygDSrhMTZOVdipqcsJCDYJjqOWar+yjDrDCE+63ZvvR43VOZFDzM7ugAjedRFh5Ml2IdrhmCwbBru8MEK1G2TPoB92iePh6r7C2ZTWb129yvbK6xd/Bzd+FOj1PHrlRQsCJvw6PeL8GqbMG4/8QfHV8DMSL/tWhmcE5yBlyzrLMBx1vC1tkPoCtgl35I2XX9ZRhvvFX5ep44PiGWv5up7AE36dL17mRTj8JvgubWJRIJ4V3oZkOK6IIrV1spJq3M96Pojrm8GKBkCOyXHUt3ZgnPzTOLr+sTp4/DBVbBLiCK9vGBGBR1vCb6uHbQLx+mgu8ARzFvCM6TF4jr0Sm7NLcJ+IdrkUkDifKJ+NmPtNSNbYNSiDMcOgOebqKHLUUftRF+aNbUTdXioBdXNRtg6LUweoDwzG0kDp5Ri6UhGEK3H3Sou8zp89FKjHaLSifn51HFydNlo8cPfj17jKMm15dV/a4EpcZbgfeDD9wJV4Z0W4rU1t6XWb+oWry9Xx8cJT463jdT11vIZvi/dTrh+YEn8/8P3AwNkPXAkjHPHwy7Z14VlLAfwGLVmTs94TttBW9fus+mawVAgpbs59JRGPhpQV4vrYUI3FBR5Gmhgb0jBMilMsbLEYe7If6OUCh1M5/V7TEGXChx/T46QOY1NfUCeRwki5RA4zRXJHfUi65b4uUiyndqg3tZs4npGoCwLjorW63Zgnl7W98pWvzIancJTOh1ndB8ZF28Iv4VwYh/nkXMKHyWpzyr/whS/Mat0apgl3DdPFZy8Fej2jMq8t3Kv1UYbUtdwkSTemalW4DUZp9Bzla+Yp6iThJektXZkW5aWV9ZfwYLxPpbpLe9kNlQ6cwzIlHNskdzVNdBd0qNvZll7DNcVnpGwTvqa0pjo8m/hMjnw/zyC0AfBIYzvWKy3GFClC/QzrNPhsTstLqqX148D1gi3z2sLRp6gv4MJvyw/48Ev4SOv88acAOhNwuGMuXBPt2SC6oLdfNxCDBSlGouk7VHWFLgrtB065siPCXiQSoriDw5fg40XBXGG2mlzgCb/fi0YDvsQpzYTtyDOuFpOEYXNyh27WJwxMBrhapxvd0+XhsEXDJPncg0WAYanTOeX9I2U9Jgplnvvc52bj07ItpFDLLLNMvlhPOnoGHUo4i8YiiyyS0ZqknATiMIcueuMYtlJrmogskm78jYWHfpmzULLTsLBFPTmj+5sQFCifeRlualxTflNaU1nj0cm1pZdeOm8owNhYOL32mte8Jo91aT7TYXPgVuo2Zijwe2edZiPtdZrNO86+QZoTwpHmPZLmsyJMDuo2U/k7QbfsssuObFpIuN1q7pRbzBnG72abbZbb5oZteEjd4fZ+uKyyxh1tnVl+1NfmD1Jv4Oi3TMCHH+XqeKQP4tc4yjhp/5prrpnHiXmTc3hpnXXWyXOQeRW8edYzdKO5NE6acVimuQnec/YMXUvBOSHp1vg3vOENecMLnzVj0003zRtjl37WLtoYfp0vPta8JlxtaWUddbiMt5Xv0sePAoQ37mEbje7GtDW3HzcQg4VhMJjjHqpeFTjZYnEfrbFtODATXkS2XU7SaCgGh3oydjlNuMs0L7QTNzPqgphwR93BMJm8qdrkuSSOqk44mBc7t7DVKttWhuH0eQLOsWzOiSJh6lYOY/nSl740H7+2oMw333x5sZJHWvasZz0rf5LCZzQMFIwSUSfJmzY4hj3vvPPmhcsiZqLi2Llh4jwvDCLJls9TdCc1M3km1F85Ztoa1g9MW1npVPzLLbdcBjGGnSqzQK2wwgp5XGNcTELU4AsttFCGs9iVB1y0oW6HRdJYK9/HMi3gpdnEgYs0lQiThBjbCy+8cB6z0py+sxkzT5Ca2yTYGKkLM4gBBEf1/sxnPjMzdk4i2xTNblf2r6ktbflt6U04mtJmtHwvnIGbz1DYWDInGleeG+2GayicRHQvl0/z0EyYgzw7zNWLX/zifFu4MSdt7733zWPNoSqSfo75B6n92Wf/Jj9naWxhbQJoFHxahsOoY+A56xbJaHyc2LzMrILD8Ds0EHN1TkwpM/HaHyYXGHxx8N4PY1KZ6HfgAmNscsra4IYWQxuiHnlg+1lTo02dP/4UMK+5B64fRyvmm6D9uIEYLAPK5Bci/nJQ1ZWxV7JLHNSVOL2UDNzhoZ7DbMQLUcI11SHfy1pO6E1wkdaET5p+eDFImuKF6VUm8vhtOAMm8p1S8O0nbu21186fVnDBH3su9fs0wYte9KK8KFBXWoTs7IQ5kgASLDgsIjhsuE1CdopOM9r1u4SQNI2Kl9SKOpN0jmRLHtUmpk7dJj0u2pgj3d9sp0D5PDwjUloM/qATNAlrHLePTlk0SJio5h0ocYCFI6myGJIAuYtJG+K9Yl/oG2XejWibBcwiEo5qEXNPSkWqZLybS6RhdiyCpBHqjzRwtS0EnDYONgIlg2Tcu//p1a9+dd5MWCjVacKM94oq06Lm8yGLLrpo3xNk9GE8/KDPWHApOyPlo87xwBG4wm/DyV7Fc3IC20aP2YdNs69xYJwwVeYd85y7tjwfTLs0cxiGWdqCCy48cqeX7xpioBdbbLFcZtttt8++Z77gggvm+YwKxwbAxtKG0Vjm1OldiU/sKINBMr/bMJP4x/oSfZMnHRPEaY8NN8ZIv5SnNShpgAmjKQgzDeM23lFljGH1eAeMeRoFeMMFrvAjvfNnHgU8T7xNPOe2mjwTGqpYH9vgIn0gBkshDI9JtpczkF1MFwOsF6y8GEjhSzPJb7zxxvnlseibiE2YRL++uVWWy5GGPwuCO2XG6gz6+eefP98DY/eEkcG5SvdS2dkzFvdQLCoYmV6nFsv+lW0ilbPjli88zzzzZDWo3Z5rMPR7iy22yIwm6YEdYOzC4MEk2b1xPopK0oc59XFVah7SQIuVxTA+1kq6p07OpIdW6EzqqL62tuYC3d9soUD9TKjQLFqkj1R4IUXCkMcnN+KqEJLW2HVZoEiCvKelY7NCakAiJP/1r399VtNhuqQ5ZEJyGkwWfCSn7lEqncmKjWLgd9s49Y93g52DTQRVHltBacYc1Z0FkfoH42cSo/bB/BuPTuWGc4Ak7EBJdn1UlgrSJiKkb2BtRKjow3lnSEB22GGHSJolvoXUe4xpIG22qHoewuYy84hFHN0s2Prv/TR3uYOqnEdjDITfbwdq+DreL55ecDVOjMNqq62WGSZSTgw7hsUlp5gvz8pchRYk7xgrH462qUQjknRz0mtfu2z+ph7mRBnj3rxszrr33v9k6T8J/ctf/vJsuoG5oRGgbYGDdJMzHoPO2orOmC2bE7QnZao30cphhsqFt9xsk3zUZaRhorxnnDihhPZj5NSpbn30A8svXdAy/DKvC88cCng/R7PvNq8ak/Uzb2vRQAyWh21wOK5ooDY5MAY2ZmSszmAz4ZqYamfSsWvvx3mx4gReP/D1YLbr0A+TvclB3SZsDA0JUCxwHgx7ARxwLHL91BcwbAdMKhybLrt4Dn67LzsyakGTkcXGbj2cNpuwqP04DBa1SExsmFRl4TEhkVJZoPTDc6QqlGZSwnxJh29ucPXzrPs0Wn4NPzvjTW11gIJ0CROFifE8SYeoSDAcTrx+5CMfyWPDOMZwGLeYFox87ZTD3MOnPkwWnJioYNTY7pF+2cVT77RNNJiYKBP1wGluoMYpnTSS1rKPypO2Uu2RQmFEIp8km/rJ/LDAAguMfL/O4RNS24DDGAbzZ05ZfPHFn/R+BmzZnrGEe+GxeNsger9Ihz03z4adKmmONO+hDY931QLu+dikooNNXJPrVWcT/KxM82y0zw9Tpe/xnUXPArPh8E58ygyTo4xna1FSThoGfMstt0o/+9mpiYk6RgfD8pGPfDSPc8zZ3XffS8mXNt/8/Xn+1E8MzFVXXZO22urjWfUHHwYLbeVxJFjB3KjbmhYSLMy4dvKlq5MjjWJvqG2YJeMy3gHPWRl5YEKKGwxW5GM81c3ZrGOgtY8LP0e6v1lKAWMBkx9jICovnwlGnjSfk17mBXzpD8RgBVKTG702Q+8YXAY6KQ/ujrQkKg6/rLQpXMIJu4uCOJiazw9TRTVgElVPuLJcpJX+aPklbISjDOaMdMDpPBO53Tdxtr6bLELyY8I0UWJiLFLhAk/E23xMWRgJ6+fb3/72DKo+Ox/qE/2m5rDLKo381eEhmoiESb1IDyxKymGc4oZmEgp9YdPm5WewzxDUTsuL7rnaTc8Ic9zWx9mXPv3OUDvQKZ5N+LOvfaPX3NZGCxRm3yJgoif1NQ69i8YtCRCGC6NkEbcJkI5BChu8oAcfk47B4uD2LhszkYYx9+Oe//znZ2aA+v6II47IadFOvneCJI0zKZm8SGyocYwxzJOFpkzDaEUa+6nyBHDgtkCSrHEmOpI1zoYCQxJwFkWSslhMSeYwm94zG42xusDfVL7MK8MYDHWT4pECekbioTL1DnqHbY5s5LyH6IDhkmaeDVo21TsR04xH0iPO89dfzEfYmtoYGJfWD3Mrhy7SMB+eP2cew4gaP6RcHGbcWsB2df75h+E23niTPNaPO274U0L4FSrjww8f3ozH8/CuCPthqjBD4TwnjB/H115OGbCRHmWCAQt7XOWjDBjvIRf1RBvkBT4wUSbyc6Hub5ZSIGiP4afWdjtASOA9K+e+hy0AACAASURBVJsczFdo7wK+VyPBDMxgBUKLPRseOy4MkEmWb5IP108jAjZ8ZaIcfCQq1AF+dn2xKw6YKDczfEyLF5uzE8asWHCoRkzcmB+qDkyPCRFMMJzRnkHaScLAnsUC2Oaa8PWbFjh7wTflRbmJ6k/fZpPi0MgYqttcwpbhGm4ixuv2UvmGJNmihJH2oxI2IRirbKUszhYjDJTJHB6SHq7GifGhjsYIhMP4WCBJTzkMEpsaGynMgY1A7WxAOPhJZzFCGKBQU0qjwjZpBfNAQmtBleYKlLpt8JG+mXc4fYYDM2jjUzpwIRUmQbDYY/rA2ljMamdTqO8kf5g8JgaYEIutgwQmc5M7OodqyU4as2VThLEsXdAm/DJvVoeb2mCceZbUwDFutCvSSgbf5tGm0tgLF2ngAj9bPb9hFS8j88fTZpu9K73rnZuk7bb7Wi568823ZuP3d77zHemww5xGfPIGK+oo/aijTBs03IQj0sLvB+cgsP3gmxtggibhz8w+sa8yxxBk4EEIKqjsm7RT0Z7w63aNicEqkeHa6SVrsVpUVMJG2oz4Jiqqu37dWOtXzi7GRG0CpBo1MWKqMFPaIGyBs3iZME2MJlAT6Vh+DNUtLuhp0bFY8j1wO33x0fCC0V7wYKMMPFG2xAt3CRcw4ZflIm3i+ZfmPjy5rZenyy7zu2yEnmXbnww/tudW4pyVYQs0ZlydnrexakyyvyN9tSjLB8e+KWDkmTws6GV72fdRwZCYKGtDYSxRYbDxMtaNe8yTjYU8MMZ/iQdzB0Y90uEkVcWYkZxKg1MbMBBtafCXeIWl6aOwd82mhtSYlCE2P/EOeCfBYVDkoYWNofQZffbxDmFmvfe95pmQZPCpibSVj7myiZOOBhhBNEMvc0xIpeWbX7XbM4ifuOcU8dnla0O0Ldqj/fpkjGG2ov02o9I4+eY6/aYKRkNpykoLJj3S/vWvf6df/QrjPpRpzl7trn8Pf0sRvjvuuDPP0zfedF1WmdMp2iCXdIq2RjvRLNoefhsdyzIlTFN64GrKK8tGuIQrw5H/VPdjrQ0JY7/rf79wTe+v9zPGYoknYMOPvKb4QAxWjSAQhz9afsD18kscJvMQ00UZi0hp9BnptQ8PdYiJcKyONMqEbnI2Mde/pvRIs1gJR7wu2xTHrFLVKSu/LFuGo2zANcUjrywXaSbxCCsb4RI2cM4J/rXXlnT+03R0G26//nqGV43kXX31tSP9nhP62NRGDEMwDfEMwWGmIp0fedIDj4lDPJ45GD+Mk0WJH3mRFuUxbJgb8UgLvIEH01Wmqa9OUw88AceXhmkr06L9kVbWCa/JN/LCVyZooP1gor0lTaKPUa5fH35lMWoYgF7OXIShGu1nQgdL5WTeC0asDNc45NVpszpety/iwVjqjzbpT8zvwn5gpUW/o+0BNxxXftop1ZSeSENThi+ajbtDAz984QJX+EFPcXCR3uSXsE35bWk13jpelyvrCdigSw37VI5bi/U/xkU84/HwA2ft17gjv07vFR+IwYJIJfHrhXhG8xiUM6hlgB16TzjZXTAE78c58TjaqYBeeJoIGmnh9yo/aF7gDL8uX6fX8Rq+jIMdBD7KjqVMlJ11fpMaYFhVGCqC4X5E2pNVY7OureNf06DPaFB4LY4y4Tf1os5ri0d6+E24yrRecE150iI9/H7xlXC9wk14A74tL9Jrf7RykR9+lI/4RPT7aWMTTKSV/pRQ82U78Gnv+pQpbJzquLEaFBnOC1xS28JRooYp05vCJb6m/NHSlJ9RHKPVMafnB33Cnxn96Rd3G1xb+kAMVokkwuGXnW5KK/PrcMDz/YiU3YNDmmO3zNjWaTg2F1QCcWKuxlPH6U/jvp46byLGgw7aVoZnRltnNv6Z0eb+cU6bdPPRo6kT7nCf2+2z+sc/MSBnxjPshbNXXhtFBi1Tw5fxCIdf1hlp4csrw03xsvyMhOt6ZqSuJlxNbesXrqnseKeN1pbID7+sv0wrw2Cmi09J6dzTr0tf3ur4tNW7jkxbvfPH6dMfPCYdfcjFKQ1NSSkzW8OYg/GaxmhVuMoGtISnq3sGYFqKNib3U2djwadAYtAGbzAznXqiLvXU8bruGrbOH4jBisIl0kgLP/JqP/Lb/ICXL+ziubjrRhpDM4a3rm8IHX5ZpglvvwxW4Am/CVdT2qDwTTgibWbjasLflKY9benR1ontT2OgHn5ocrrxhn+mW2/5Z8qMVm74zH1BZxZtPJPxfC5jxRXlwi/725RW5s9IeKy4e5XrlTcjbe1VNuoMvxdsW16UDb8Nbnakl20qw9oiXqf108YH//No+vT7j0tLPm+XtPTzd0xLP2/XtMA826VFn7ldWuxZO6SNVjs0XXjWTY3SrOklXCOirdZq29rXlt6KaAYyZmVdM9DMWV50ZtNlrPipdpkLsJNjfhCHVBBoTAzWrKAse4Q46RT1saFw0qTNoD7gwu+XwQr4zp9zKZDVCDayUyanSy+4Ne32xdPTJmscmN6w6F5pncX3SR9e/3tp/13PTnf/K2w05kxGa859Ql3LR6PAWCf4Em8vHGVeGVZ+tHhZx0wL439IozKrNOzfc9eD6d1rHZZeOc+X0nrL75fetvR+aYMVDkr/+64fp3e98dC0/rIHpmVfuFNa8Gnbpd//9rb8/o+0b3R+agS0C3QUGCsFaNbc03bIoYeln53yi3TWWeeMXL0xYRis+gV3as8VEO6acicF323IvpHnioQSvgyXRHJ0u197rbJcF57DKICxmno1w4G7n5uWeu5OabFnfD0t9uxt0xLP2imtudBeabX590yvnne7tNZi30mX/PamOV6iNYc9oa65PSjQNn/1KDLd/FfDjYavzq/jNb46Pih8Xb4tPozXxmfq5mdKSl/735PTy+f5ctp01cPSRisflJZ4zk7prF/8Ob+/e27/q7T083ZOm6xyUFrp5bun1RfZK/391uELQafhevJl1W31d+kdBWaEApdfcVU65dTT0pVXXj1yB5prq+ZxA/nsdPULK+7SOcfFHd99xStekW9Td0TTN6bKizZ7tds9OI5od+4pQIEpKR2292/Sy+f5Slpnyb3TmgvslT77vuPT6SddnXe7ayy8Z9p4lf3T8i/eLb32BTunG6/9d89F6ilAsa6LE4gCMQeG36tpARN+L9heeWX5OixepgWeprTIG19/KN1w9b/SCvPtlt68zL5p45X3S6svsEfaeBVfvBhmwA74xm/Sks/bIUu0NnndgelV83w17b3T8HUPYGa2vc749rfDNidTwHvxwIMPp/N/N3ztTPRlwkiwNKh8eX3mgvRJGkN3t6kyendbuk/XlLBluMTjHhn60c7N/RS45bo70xLP3Tm9aYl90jIv2S1tt/UpeYzQEuz42Z+nxZ+3S9pwpQPTJqsckpZ5wY5ps7W+m4aesIjM/bTpejhnUKCex8a71f3gb4OJ9NofnzZOU9dPex+H0j47npUWecbX09tXPjBtuOqBaeGnb59OOuby9Ner/pVuvv6e9KMDf59e+/xd0oYrHpw2WPGAtPxLd01bv+8nWbo1NM3ocnya2GHpKNBCgYcffjSdccav0/EnnJx+cfoZ6dJLLxuBnFAMVrTKS8xYLD5gLF0aRst3/zBO/biYDPqB7WDmXAqwu/rWV89Iiz1r+7TxSgek1effPX36vcem7+93YZo8eUra8bOnpeVeskvacIUD8kS8/gr7p6X/e5f0xwsZxnauo8DEoEDMV+GXrZLWlB4wdV4dD7h+/H7K9gPTT13tMEPpCx/5SVr+hTunDVc4KL1hib3Suq8dvq1/x8+ekv5y7T/TkYf8Phu9b7DifmmDFfdJay+yd9p09QPSow9PSkNp+DM1Ie1qr6fL6SgwYxRwp+J3v3t4+tOfb0hXX/On9Le/DX/9BdYJw2A1vbAuCj3ssMPyx0L322+//AX28juEJVnK8mW4hOnCcycFHnt0cnrH6oemNeb/dpZSbbrqwWm5F+yS1l1u36xO2OX/Tk3Lv2j3tNGK+6f1VtovbbDyIZkZO+Rbnfp47hwRc2avfCnCp8BcOFw7aS5NdlopXD3P2YD6Fmm4Ol+cRN/lyW4a5wIGfpe8RjwuCY14CRv4Z66PwTo+LfeinfI77fTgd/c5P939rwfSK+bZJt13zwPpgG/8Ns0/z1fTJq8blmCttdCeadPVDkmPPPzEsPxqaFr/Zm5bO+xPZQpQRd9yy23pyquuyT838cd7M6FssKJRHpZv/1ATbr311mm99dbLH5nFZPkQo89rtLnAwXcjdHlksq1Mlz5nU4Bh65uX2ju9ael9soRqw+UPzvYaH97wR7ljO3/+52m5F++WJVihTqBa2O5TP5uzO961fq6hgNvgP/WpT2W70+hUzGXu8vNtNOYRp5566sjkjQlyk7xvLLq6xoeS4Si/Bxu4+BYCV9346Lfb7UvntvWSefPFjDggBNYnbrhoU1l2fMPT1IXf2fGstNDTd8jvtIMr//zHA1n9d/7UKxn+fdcD6TMf+Ela+WW7543TCi/dPW39nuOm2mjB0ykKx/fZdNiaKPDYY5PSVVddky686OJ0zm9+mz9ZFnATRoIVDeJ7iddee+2RJIbt0vzs8Fy/0I+b0Zvc+6mjg5n9FLj73w+m9ZbdO71psb3zbnf9lQ5Mqy2wW9piwx/kCXnnz/8iqwjZaVAT+i31vB3Sbl/+xexvfNeCjgIpZYnSZz7zmfy9SB+6Zh7h25G+s+hjyeZAp6odCff9Q9+GZEZBaoUB22KLLdLPfvaz/PkZh5Z88sc9gq61ie82Opn9hS98IR1//PEZL4ZNnutwMFM+J/TrX/861+0LGDvttFP+csaHP/zh1sudx5fhmsZcGRTXXfmP/N6+ean90psW/3bac5sz0o+PuCxdcM7NmXm65eZ708c2PSqt9qo90karHpLmn+eLaf+dfjVtPOXTxdOiXaijwMygwMUXX5oOPfSwrCJ0krCUYPXNYDW9SGVaGR6PTpBW+UwOsXW40047LTNe7sMK16teUrDZeYqwbFsZjrZ3/vhR4GPvPCot96JdE+YKI0VduMUGwxKsXT9HgrV7Zr42XGG/tNGKB6bFnvP1bDDb2biP3zPoMLVTgGqOFMgPk0RiRbru+2qcDxeT1pvjNt988yyN+n//7/8lnwzzQeSvf/3r+XCPwz6f+9zn0gorrDBSmU+JHXDAASOS/a997WvphBNOSB/96EfTJz7xiawN2HXXXfPR8S9+8YvZLmSbbbZJP/jBDzIz9ZGPfCRfgQPmpJNOyt9stDk977zz0sknn5yZq2jnSKU9pFnjNtdNSemrnzwpvWqebdM7X39oWmm+b6T559kmXzJKB3j4fr9L883zxfTONQ5Kr3v1Hmn1hfYYuaZhWjunZ9qmpQ8mjXMvo+flucVPvLQHxsB6fqUZS9DCt/R8AxZ9a62KuG9yqgOT7GPtvRzm95RTTnkSiO9yGivhMMxwzm4XNJjd7ein/rG0dfidHr4eRB2Bg/+TY44d2zUNJZII99OB0WBKXK5oMBlFow3QEFuXcJFf456Ri0ZL/GU46mhKi7w2fyxl2nB16dNT4LSfXJHtMTZe5eC04Ur7p9Ve/c205aY/zPdj7fG1X6alXrhzYgy70UqHpDcssnda4RXfSHf+/YHpkXSxjgIzgQKYpzPPPDNLm3zw2mLqx4RBOuaF/dVBBx2UJ2cqvzXXXDN997vfzRIk6kHMD6YH40SSRRJlQcUEvelNb8oLMwmYL2CQbtmgrrHGGnmxd38gKRi31VZb5TpIxtRNGrbSSislV9pQP5JgwS9+xRVXJNK0XXbZZboFvdc81itvNNI+uexQuueuh9NGKx+QFpjna3mD9Lbl90vrrrB/2nPbM9LW7zk2rbPkvpm5ckXDeWfcMHJR6Xgat1Ofnn/++VnaR40aHwQXvuiii/K9jPrmeX3yk5/MQgHMlmfMkTJ6tp7Bz3/+8yx5DFq4NFueL5VgrDHKDnJhoDxfH34Oh0mnEoaHHZ2F3dhxLyRYwgg+nH477LBDZqIxhOoAV7ugefh1vnhTXlNav2Wb4ObktHvvvTedeOJJ6aSTT0lHHnVs+t0FF43Q7Nhjf9wfgzUaQUfL74eAo+GQb0ATnY/mwBrwg3yLMOoPv66jLR2cvF75gasfmIDt/P4o4MTQ0BMpX72w2LN3ylcxrLXQXukD634v3frX+9I2HzsprfyKYQnW+ssfmF45z1fSIXucn9WH/dXQQXUUGDsFqPLMW00Og4O5Mi/EZhIc5keaRRMTZaElTXLwh2OUbsFVBrNk4WU+4VJmzgLvu62ca22uvfbajC8WfWXdK8ix34owVeQqq6ySmQJ52oDRwlT062KOK++hirRmHPVloD53Ne0U4OMPpvTZzU/I17As9Zwd05sX+25acJ6d0uLP2iWt8IJvpw1XPSxdeNaw2nAaYzVNctWr7l550VYLaJtU6c4778zSR7DUQdSpGNQjjjgiM00YJsyx50blatMPF9XtMccck5+rZ+wi7Y997GNZAkWQwFbOs8QkYbjhg59UChNH0vXNb34zSyC///3vp6OOOiozU9/4xjcyMwXWs8RwY9Ax3xiy0VwbPaS35QXOXvnlWAh4fq8yJdysCpftKcO96r/kkj+kE074afr33fdm6WTJyB577HGjM1j9VlQTbJBy0QFlopzJx8DzM0icKCROjfzar+unIuyHwQo8ZflIo2Jky0CaVubnyAz8Bf4ZQNEVnUoBaj70vP3m+9Jai387LfS07dJbl9o3qwL5Gyx/YHr7KvunNRf8dlYxfGmrEwtD2I6MHQVmLgVIMJrURmq12FqkqZrMbyRGIbUIJsjYLucLMBbhmJPK1pO2BBMVZcThjNOJGC6SDrABQ+pFikIlufHGG2dJSrmRBedbaxxmjiG98sGYyacG86UNpx0xAsq7u1Df4tSiNmBYMICYNrShxnL/1eOPP5EeeeShdN11N2S7MOqus8/+Tbr/oX/l9/XYH1yadv2/X6YNVt89fXDDg9P2nz4tbf+5o9NxP/npSD+oDu+77550++1/z23VRnSFK/oa9KrjkV77+hCnM5Upy6EjxgUDoR4HCEipqGap8kgi0dXzYhuHvtxyyy2XGS/0w3xT12600Ub5oIH4pptummExXezxll122awCNiZIL40beAkRqJbVSf274IILZkbcGMGc+ZqJX3y/V91l+8u+Dppelg0GKnCEX9dXppflJ2q4n/Z6t+I9qPvRtw1WTaga0XjEy854gZ0e/PjHPz7yI95+z3vek0Xr/dT3rW99a2RA9wMf9YfPWI041o3ydgl2ol40EyLGy6RJzB9xE4cXjo2YnSWxMpUAptCLUdqO9dOeDqY/CkxJk6ZeKziU7r7jofTJ9xyVVn3Vt9LCz9w+LTjP9mnRZ++QFv+vHdJaC38n7bvT2VlyNe1Cw/7q6KA6CoyVAuYIC2LMKyUeiyl1DgaEWo7BuQXUokgqwSAd82P+ee9735sXaWYSpFkM26n0qA2/9KUv5S9csL9ymtDizm7LzyRPeqINmKPNNtssL9pbbrlllo5Y/C3UcZgIk2RRxxyQwJgHMQd+1FfgPvjBD2YfwwA/dRnJDcaAlEY/4KeeNIf/z//8T8Zls8w2jESF2ootGPXKVVddkd72tvXS5pu/PzMe7373u/NpLCqWgw89KH36M59MJ//86ORdP/TwfdPnP7d12mvvXdNPf/b9tMOO2+Q2fHrrz+eN+NFHH5lPXH7ta9tk37oxiASufD7CJBLBYEVePMtgsKRjcgLOplzfMTbbbbddljJ6jmjEZu7www/PDDIGECMUNCOBwmyRbnkmDiJgVq1Dwah65hwG2/qCpuBJMtVl3SPdkuanDeot7ZmVjz7U4Yy8+ithq6zpov3CKTQI7HSVzMTIIG1qgo208AdisGZiv6ZDjRt+4xvfmG9vny4jpcwwGYxNLjoVeQZ8uQuL9NH8wKOsSYDDMHlpME2bbLJJ3i0gnsG777775hfEhGhiC6bQhGmAG/B2NOBKF/WUaV14DBSYaqk+7A0fz77umrvSDw44L3/0+Rvb/iKdePRl6a47HpqqFpymPpimUhhDvV2RjgJ9UKCUYNXvPAbL5stVCFRJGBQMUqiFMFiYLYvppz/96cwcUSmadzBVVEWYKqognxDDvJj3qBjNQxZc9liYDIyZK24Yz1NBYZbUhQnjtI20xobSPGZxx9TBa7E371JPYQ7gVr/5EUNo8ccckKZgyDBOrtmx0GsDbYK6MHokLezJ9I3Exzx58cUXpS222DIzbZmB+9D70k033ZLVo9895LD01je/Jc+j//j7remHPzo8bf6B9+Q+o5P277Djtukzn9k6feLjW2cpoA0wJk0/teH6669/0pOqn8WTAKYmYLBIhJocBsvaABdGOaSHYG24w8kn5YALrUpX3jlGCli2i42Vgw2Y3nBlvjT51LicOlzVgTEunTW1Nnj3rDFv4dqkMGV90XZpBAtwkA7qVwkXOPlg5kTX1p+6L3//+x3p6KOPSRdf8oc8FkKaB64vFWGNULyuvI43lRkkzUthl0QM6mcHZ0dAfG1S6scN0qYmWAOHrtyE8853vjPvPOzUiHdNenZF7oux2zOhmSDZPTjls9pqq+V2YrqI5FdeeeXpdhBN9fXTpw6mgQLBYBHfy454GrYxyUl4qpxe23s04OuSOgqMIwVIvl2HUDtzAIkS1ZtFMlRqFlWLXZxWKxddC/g///nPjCp8RvSkExZ6C12oAvlUcfLLhZREDWPg95vf/CYbt5dtiwVfGmYpJB/aqU4LKx9ujIz5jZMWCzCmEYOmvfBRo+iXvsRiDJ5U/957p2c4Hn9saMRe6G9/uy3dePNN6eFHHkt33nlHrufaq/+S+6Rf99z7QLrrrrtzmx5//NHchkcfHWZK7r773nTTTX8d2WQ3zblNabmS4g+jxKi8hhVHA/TgMMHme4wsumKarVXSSZcwxg4SYMSoFT0H6lS4MXDogU6eo7FgbeGsM6Ra6G/94dSNaWanha7Wo8CLQVWP509qaW2iEdIeWhdwmC2M82c/+9l8spEkDC6MmbDnjr6hitZeZa2Hnqk6MMmYY2Ftx0hh4MHqA6ZW2zHyymDaqVH1F5x6JpKL5xt+U9va8i6//Mr0gx8elfbb/+B03PEn5aJg0X3MH3v2MuGsiT4hQtC2BjQ1tk6LsuEfd9xxWTRqh2ZHZLcTg66tbJ0+o3EDlP2XAWEnakJhTGrg6T8Rr5cKjEFEHegFM5gMNO2VbvfWuZlFgVIi1VBHZqzi0sESNtIaynRJHQXGiQIWKvMjm1LzSfzESXFigY55z6LNkQ5ZaC2QtYoLo2KOaXPmHsybRTzwWlRDioGxsRm02HIWz2iHOKaq6SoA1wxQSYZjvE16EnVIxxgGk6cd0Z8owwePMQh31113Zqbkyisvn2ofmdJPflLQJgNOfV+nvs/DGybv8/A7XbZhGG/5rg+nPBkmWtDuo5l1DtMUz45vTaCui/5hktAUbdlOrb/++nldoMGwRki3GbcWUPl9/vOfzzAkgPCTFtKOgCHJZA5jnfEcrLHUrDbqGBuMm7UI02SNsVZist7ylrfkOhnFU8Mus8wyWWqIybHxX3TRRTNTZfwoQ6viOiRtoGUh1CB5pK3BfJGI6kvYlFmL5b3vfe/L9ThhSgDCYahf//rXZ0EDeNd/kFaSehI+OO2qT9qvL8svv/wII91O/VmTE+MifEx18DbeUe9Rm7vvvvvT+edfkK644qp06623T9enga9piAZ4YAiNIyXh8UCJkIlkMRQz6ry09PhsDbzUfDsl+maTQrRjtHr6hWvCgyPHVJFk2X0Y7Haj7CUMahMYnbtJxv0n8nDn+m+3Iez0jvbbGZhQMWfdr6NBNwbmnjFAEjSaw2TZgJobTNbmFYtjMDUkGRYvUnrzKXhzrAXXwmuBpmqzMJkD5YX6y4JMNWeBpzIM9SJ13IYbbpgXNPCkDRY685a2YJSkWUjN5eYx6r/3v//9WSph/rUAawO7IQyCucwCafEmuaBuVDdYCzF1pDLstUhdjHO2YtpPcqV/mAvqTmkbbLBB7o/2aMO6666b8esj3G0b6tHoPd75JDLmd88ufp5fGO+rTx+YkHBoTNpDkkd66bCVzTdplnXMekCViylBd46WxjpqnaBSRT/rDibbpl2aH8ZFuXCkWqRRGB3MHEaQxIxAwrpJUsScBe3hNIY8S2pmY4W0y7Pw7DHtyuqHOCYDM4nZxzhrm80ClXGsafCQuGICjRMbAn0BIw1ufTVetBENtANDiJFvU01G/2a1730yFj2L4G30hZAnpLllm6z1P/7xsen6G25Mt9w6LPmL/DHZYGGqcOHBuZdMDAJ70Ur9c1Q2mg9P/LzUTTs0en4PrM1FefkGLiZnrM4uzIsVIk8DrAyHCJ8Uy25MHHykhx8i/shvwhGwnT/tIr+OFh0t5oQxUEpiyrmmnBfL9AhHPt88RcJgbqWesXBbXDEzFiaMjXwLK7tOvsXRXGsSt5hSL2F03KeEgWPYzA6JuYXF0OILzmJNImbBZbsFh7nWgkeSgUEKuyuMEGN1zJ9+mn+10eKL4cNckVKAtzBpI2mYzTbmjerI1QXqUl4dpCSYQ5tSJ+cs3jbUGESSDzZV2kvCY/GeiC6e3SBtY5vj11S2Ka3EXeZjcggZQpUrL+x+Ai78EoewdEwvoUHEa5g6TlNjTA7q2toAT5kXba/TB61vPOC9aw4dWLNLp72YQ+M91OCR/+ijj6dLL70sfe/7P0w77bxrOuusc3KWMgMxWArgZrfddtvA3egTk+LeSyI2AhaJActHcGJFXC7uHAfvR4JkgsANN7nAIU/YCx/HYpvg+0kLnOH3U6YNBo7AE34bbJfeUaCjwNxLgfr9F7cpZYslzC+dzWwYC8snDSL9ksYnkeAsuABG5AAAIABJREFUDJhSzsYvHEmKhUE5ziYvduNUYPItojaInLaQomHaSF4wa+ZljF8sPvApCyacPHDaE2qVaLt2R1nh+ClLCohp0GY45elXqDAD/0TztbN0ZbwMlzBluB+YEr4tDM944OqFI/LCj7bU8UgfzR9rudHwjjWfytWmpZcjQCKBLZ33gJH7/gcclH5+2ukjV4SAGYjBUsBuJY6JlpXUxLL7IPau08sydbiGxUkSL6vTyQiizSa7gBpPxO2i+rkHK+BLv25LmVeHe8FGXvjKluEaVxfvKNBRYM6lwGjvdlN+U1oTBZrgmtKaykZaCV+G5dfxMq1XXuAu4SOtqVwTXFta4JkIfvSlzY82Rn7ZpzKtTI8yg/pt+Or0QfG2ta3GW8dHqwf8oGVGwzme+dpGSku128uBo3ovVcMYrIsuujjdetvf0k0335o3C4FjIAbLzgL3FruQQBJ+SUA7nn6ZobIcXOJ2NMRxxMtEycTRdM9hUBd1hl/jkE5viisdT6eeprqa6ugXrqlsl9ZRoKPA3EOBprmgTCvDs7LXUW/46i7D492WmYl7vNvaD762/rSlj4azrVxb+mj4euXXOCMefq+ydV6UCV9+hMMfLa3GOSvjJLbMnmrJcVMb2JCVjJgyf/3rTenKq65Jf7js8hHJsH4PxGBBRHdOZFy7kojyMEIMLgdxgYOImbSKXQADPWENZTdA9dgkQVNPlA+fQeBYJVhluwPfaGllfoTrshEPP+A6v6NAR4GnBgWa3v1+03pRCI4aTxmPcPg1rjq9jtfw4mACrs2vywVcnR74mtInWlrZhzLcTzvb4NvSa5zg+oVtKluniQe+8Mu0gO+V1wRfp0X58APvRPAJjRzM4JftawoT+JTXrlx22eXp4IMPTX/+y1/ThRddmk455ecjjFpfDFZZCbVdnHpoIyDjcIaToYMflIAYOUwV+yknNxztjDsz3NVRHhNua4N0hpIMOsfTlbQo8ZbpZbiE6cIdBToKdBSYGRSY0Tmnrfyg6ePVt7Z6xwv/WPDMija11dGWrh9lXhnup48lfIT5Ea5xtKU3wTXBNqXVZWdX3AnbOAWqDWVbI0wd6OBH2CqCc9HomWeenf5w2ZXp9xdfmq9rICTi+mKwMuTUP4yOI7oqCheViws7heLUSMQDbhDf9QYuFXXfBlsqNl2OE+tcWXcvnNrgyOp4uLKPNb6mvKa0ulwX7yjQUWDupMB4vf9NeJrSZgYV2+ppS29qA9gSvgw3wUsLmPDb4GZVelM7mtLK9oyWX8IOGh4P3GPB0W+ZEi7C/AgP2t9ZBe9KEKdgy8Mhdd0O2RHc1H1R5qqrr03XXV/elzXU/0WjgZBPgsQeynHR0rkPwv0RmKDxdqRibiN2OiWuhyjr0K5oo3RhetW2I9Rl2YkcLvs0Hu0cBN8gsP20LfDVfj9lO5iOAnMbBeI9iH7V8dHSI79fP/DzI9xv2Q5uMArU9K3jTdhm9LlEHeHXdbSl13ATOT6z++DeLleFuC2hdK5Mob3za2pDU5ryA0uwolJGXpgpNll8d5cwRHdHVYjHAnasfjS69F2cRroVLvIiXvq98kq4OS1c9qsM60cd77dvdbmI134TvoDpVX8J04SjS+soMDdQIMY53z1FPpi88MILp0UWWWTkV8bLcAkT4TLfLdyRzo84mKZwpEUZ8RJfGS7xleXKMJiyrsA7t/g1PaJfdXpbPGgVNAq4oHv4QcfAX8YDRw1bxstyAV/XCSbyyrLRphJHr3Dg6AUzs/O02e9tb3vbk6aIeN+elDEDCZgrPA2jd/e+sfvGWLlgtak+16Kc+NOT0y/P+HU64cST0iWXTvss1pgZrGg/ZofR13nnnZcnlKYGBGwvvy5Xx+uybfl1eh2v8UyUeFs7y3ThOq79ZVq//WkrU6ZHOPzAXcfr9NHya/iId35HgTmZAjHuw9cXNqMu5vRzM3TccO2EM9MHfvzsnmkHwEVa6dfwcJrA3c1T5rmINNJ8DsWBI+1wsrvEV4fhcGEouPDrMuqMuoRrHHNDPPpX9yXSm/pdpkWYr4xfhOEMPDX+Ml6XqfPKuHCJv44HLukRjjZEWwNfGS/DkT87fWOZK9+vmTlfUBnibUpNXVPd99xzX77/ao8990qHH/H9dMqpp2UhE9gZZrDKDjZVXub3GyYBo95z14Tbfd0MjKsU5pcX25V1Rjh86kQ3Cc8pzoB2BJTTBwPKPWA+XSCODr5gj6t22Wv0EzwRpk8ehHNJX+CSRn1rci+d8srVt92XeE3WDhz4HlObK+HLcJsks4Qpw234u/SOAhOZAuUYLsNNbR4tv6mMtLpcHY9ybemR3+SXZcpwCduU3pRWlpmTw9E3foT1p46PZx/renrh7tWOEk8TjjK/DNewvfJq2FkVr9tUx2e0HYEv/MBXxsuw/EceeSz9+c/XpeuuuyFdffW1I7fkyxuYwaqR13FIIy38aOQgvs8svOpVr8r6UAu8H2bDxyfjBuLR8Pk0RNPndkYrN6vzHfn0/a955pknf2MM3RwU0H+30ftgJ0dM6VMWiy22WL4frGzn0572tPSBD3wgJylv5/nMZz5zBMQnMZ7+9KePxOPZYNgY9nGRFkDUvT7e6QI2n7eQ724zO+ySyQ340i9xUZXoh1uk4yOwTfWV5btwR4E5iQLleG9qt83PZpttlu/2s3msnU+XbLXVVmn11VfP3+Or88t41MV38qm+tmadddYZuS/Qx4F9BcOndZzGjrIlvjJs4+YbgD6P4501D3VumAK9aNcrT+kyvy3cC27QZ1DW0VS2zo94+FGmjkf63Oy39bktffLkKfkerH/+81/pxhtvnu7rAwMzWP0Stq0x/ZY3CdF9+lxD6UbDW+YTZ47XKcKyDeMdxsj4SOpb3/rWkWslTLbR97XWWitXyWCfzduLX/zi6ZqAAXrOc56T7/yK/mNQMWzhnvWsZ2UGzKc1fEfMN84wST5WTbpFFErCFZ8hIi1bfPHFo3ieINxDtsoqq6TnPe95WTrmGbmtP67j8IFWomeO5NCltJhh95E9+9nPzgcj6kMH0d6RirpAR4G5kALe5yWWWGK6W57LsU+NN++88+ZPg7mPx3vlOpy4b4fkPu4VZJYRtq6YJ/cS8mMzucIKK+T5BBlf+cpXJp8us8HadNNNs2bAdw3NA46a2zD5BBlHQ/C6170uvetd70pvfOMb86fKfMAY82deCDhzg3Jj+T7dRH608TzafG2v83r1J2BLmKa0Mr+so07vJ17jr+NtOEq4MtwGPyvToz21P7PbEPWV9Uir00mtfvijI9NPjjsh/ej/Oyqddc7Zg92DFRXUiCOd3yuvhBstXOIRdnv8WJ2FnW3YRHfRZ0Z85f0a2m3SjWOh7CpWW221/Nmg9dZbL9PcVRQYSZIodhOOi8KHYSPBcqUFaRZmy1fcTZgkey972cvyB2QxRSZs+eDtXjk2G9JIDTF+GDITOKkaplUddsRg3vGOd+RJfKmllsoTusXBl8fBYpJJ58DQaXeuo8DcSoF4j5v654PLr3jFK/L9gL4D2ORsnl760pfmLJ8HW3XVVfMmhTRp/fXXz8yP94jEGbME5zvf+c68qfnhD3+Yy0oj5beJ0h6M0nLLLZffS/OI+RCjpy6npZZffvn8HntHfTUDPncY+hbshz70oWyKwNjXfOHDzK7oIUW36TM3zA0OncyNNpDmQoxjPEt+bHSb+oq5dW+jDWUc74+yJXykTZo0aSTZXDyW9clpeptbXzupXdQjr0lSCj5gwsfE22z77mNohyKvxj+74zO7XW34Iz38kg5/+cv16R933JkenzQ5PfzIY+k/D9yf4jnPNAlW2YCxhJs60pTWCzdpynh/KqdXfTOS58b5UPHB4yoKpzMwieHKF+btb397FuFjcOxOX/Oa16Q11lhjhEHDRJmIMUwmVhOzXS4GzolP94vZhe6yyy6ZYZLPBowaMpwdMxravZpQtcnEHg5DaCJn66UdFgIv9nvf+970ghe8INttmQzUpw3coM8w6ur8jgITmQKjjWsXGDp57T3Za6+9ntQVEiqXImOQbEy8W+we2V8qY0PFAJ4k+uMf/3gu70Q1pgczxFZy8803z8wSxsimi3vta1+bpV1gMFRUfswtfIaMyhKj5acOUjR2n5g5EjcMlw2SzZL3Ho7nP//5eTNlA/bud7/7Sf2YUxMwi07BYyZJ820i0Z4UEfNlkxo/l18zd7B4grHxRTc090zYtKKzZxIHwEgRqV/33HPPPO9iyMy/aKisudb4OPPMM/MHh82bmB51GhfyjRGqZnOyudq8rJ2kmeq2hqiHRkEbPSNtoZm46KKL0o033pj7o5yNOXjlaUAwlp6/gxYu+BYujbvn1Oc6O9pN4ssshpuwDFZNmGhwnd4rbiCO9VM5MWEiFluEiNutkMSIY1jqXUTAaVcZ7tVOeSROdoecl9eE6mWBA2Nl4Ie6wG7ThWdeYAbvJgfHWL2UnBfJZPu73/0uT5za64Xxsh500EF5V2siEXeBqxcOflKqsMcqGdO3vOUt+aX2wtnhenG9lMGMaYc41QOcPoZpojCZoBcmDxMoHpz9ILTJner+OgqMIwVi/IU/COqxlLFIrr322nkjFKq2sk7v2wtf+MK8yfJOYnqo40mJ2Vk5Lu/iZYsyFZ48tpCYIO+630orrZTnAnD77LNPRm+jQ6KMefAe2vzAZf4wx7CtlI7ZMq+w9+SD866TpJkTSM432GCDzHCRlrMV08452ZXP0byFqcVEYoows2iLPhgsG1GbWj9mFS7ctqHFBJun0Qi8fEwXRpmqFg0xqZ4VTQDakgCay83Lnpt1Ci133nnntP/++6cVV1wx29WZ9+Ny7U022SQzbZhkm2MMkvlUPUsvvXSWWv7gBz/Iz818bDMMl+sG2OSpE2Nvo/vmN785P3trgnqppLUFPoyYNeVFL3rRyBiak5/xrGj7Qw89lM4//4J09jnnppN/dmr66U9PnrgMVjnohTEJCyywQJ5ocIN2XiUMAtbxSCPFOf3008dMY3hx84zDQwRsorKLIE7GNHi57FpMmmAxN5g6uxG7Ai+gE33RprIxZbtNdl4Wzo7RjpL6jmjezgXTQsVgcjPZBTMF3i7L5BcOs+aluvDCC/PEqR0maZO1CdRE7wVlI6UuTJeXc9111x2RmJls2GN4oe2SOQxYtMtFs3a53Kc+9am8MHgxMV0ma5OFslSU888/f3ruc587sqsu+50RdH8dBUahQD1m6nhZvMwTLuNtcP2klzBt4bKuMuxErU0MtVCZXuKRRyLMWXgtcuY/zsJnkVb2uuuuS1SC3NVXX50vU/aOk4SwpzQ3xcZPOQu1ecmc4VtrVP1OD9sgqpOUw0aIby5xetuCSwqCkfCTZ05TDtNhHiCRmQgu6FmeWo60tvbV+fplg6iP+k11d8MNN+QfNaD+Y6zMq9YhjuTKSXX0Vc4G2dzrII+ybNUw1n7WD3H0JXFSBhzpv02nZ2LdAOfQgjUDE2bj6nlK8xyYgcBjDHj27OakeY6eOfzGAumX9oGDF8No/BkHNsierzrgtUYRYGDeSb+osKWB6cehZU3PfsrNLTC0Qtdc86f00MOPpkcfm5Ruv/3vIzZY7s6aBwc7u13bA3IKxgJvx3XFFVfkF9vD7+UCF0aoabfYq2zkBQ4MlZfKi2MQY3qETXxeDu2y2/QiUJHZJZAOYWCIiTE1BmrgCz/q4UsjHXJhGXf22WfnXZPdhpeEwyXbJWFcwgUuE6cJIuJeIi845sZLTCJm4lUHJsikID1eJmXVbcJVDwcHBikm/Ghj7IzZJYDn2CxgskLChgZ2TOEwZiag2kV76/Qu3lGgFwVi3IQfsGW8DEf+aH5ZpgyPVq4tP3CE3wYX6SWcjc9oavUSvsZR59Vx8JEWfuAo8+o0xvHmIe93zFclzOwIYyaouvzMy9Sx5jrhth8GyjwbXwWpadAUl4bJiXmvhIlw+EGHJs0LGPNvk6vLN8FIiw02+LpMHQ94DGK4EqYMRz4/0h1MQi9S1qAvGte0LWkOFn3rQ00l/rkljFE94YSfposv+UO6/W//SPfdd/9I1yaEijAe5EirisCSSy6ZxbNeaKJap2JKu6QCNAcDV/h1/mjxshwGBINEskRUjhu1c3Tk2S7CC+2zQHY8mC6MlV2knQKGy44gRMaj1Vvnl+2o88RHy6/L1PB1vA1nCVeG2+Cb0utyTTDSOtdRYDQKNI0lZSI9/DY8o+U3lavL1PEo05Ye+fw2mEHSwQZ8+CXuMq2suww3wURa+CV8hMu8Mhz5s8Mn9TEH20hiAP1I6iLMl1enSccAjdYPTAIzCptWc751iGaEhsBGlDmEzTemA2NBk0ErIG49AG+TbQNKG2FjLp9dFc0Bhk2YJIQkET7SKdoRsOrArNgkaysJFU2ONoQUjSrQgTDrEo0KySU7LWpAKk9tkkdKZ61yypzqOFxNgzJOMhi0LOlY0jvyg9bytDO0N1HP3OpfccVV6fs/+FHae5/90rHHDl+Iqq8TgsHSkHig4ceDwNQQlRNJ+zHANJBquICfET9whu+l8fJyTlcYoHT10ohtvRSkaiRFfl5CL5KXjOSM+NbLFadQAm/tR5vr9IhHfj9+lAlfmTLchiNg+BFug21LL8uV4Rq+V14N28U7CqBAPWbqeBOVSpgy3ISvKS3K8MtwXVfk1em94m1l2tKbcLXB1ukRD38QXDVsLxw17KyKU+GZk8u2NYXLNG2r423txRixj6M9wPSQ6rNRYyaBUaJRoR5kymIjjsFh0kHCQ+LPVAVDwyaLHRaVHsNzphrsZ5Wh7XAKEVPGpgqMxZl9HK2DQ0y0IhxbKaYYJIk0POyzXvKSl2QVIfssaep5xjOekW3lbPJJRLXDIQX57PC0OU6dt/W9Kb2NbmW6MOZqokg5m/oxXmn6yAbrL9fdkB548OHp0E4IBqt8MNO1bmoEo2OQG3ylq8vV8RK233Dg4Nvd2BkRrWqDnQRmSZiaja2Cn91G3BpP3SaNKJmP+JguzBY1GVx8ceHyF/mRVpaJtDY/yobfBlfWW4YDvqltJc5oU1tZeAImwoE74iW+Mq8LTz8eOnr0podxZNfvIEqM2xhbdufo5x2kBqLGjjzpEfbeekdJq6V7l72vkW8DZQFXT+AEF2Oc6qTcpZfzRz3n9MqrYcUDvg4HbJkfaaU/Wn4J20+4xFeG+yk7M2E8P2MgXFPbmtICnt8rn20TSZGxYF7HNGFwMFDGijXCeCApkk8AAJbEiRTHZpv6jB1UlDHOSJXYSLG/wmRZO/zA2dCTZhmHNvYEDerQTjZd1iJ1yGNUDz9VqU0+XA4msfXSThIxtlbq1g/tVT9YVzOM1v9edKrpVsbRzbOZ2533//TTz0iXX3FVuuDC3yfXNgQdJgSDFQ8gGhVxPu7d0WSO2m2++ebL4som2LKcsEFpMhyrM8BNzsSdJFT88ictRKJluISXXpaNcJQr8UU48sKP9PDruiK9DT7ySx8OIvMyTThwh1/nRx18MHV+xMeaF+U7f/qx1tFjmB4x/owvqhvqeGqUej7w7hrfFiFSZ4tLCRNhmyXzRNjVWBBKaQjmilrFjysNqWNeCVwRr/0yvwz3givzxlKmqZ0lTuFeeAO2CaYpLeBnh+95YaQHcU196DfNmmJcNMFrQ1t6tK/Ot5FnehJ3UAVcm1+XD7hIx9TZOHAYtiYHNuCb8su0Gi7i4QdsHfdMys1HwM1tvrno3HPPS+f+9vx8ktAnc8JNKAZLo+qH5E4YRtLhXv3qV49q/Bl4GFvj3EdzdZ1t8OCaYCOt9ms8kV+nz4x4W11t6f20IcqG30+ZDqajwHhTIMafHTJVDBtJp7wwXCQK7GTYunBOtDqWzm6StCAWYxItUnH3BzkNS/oQBzeoYEgOQrLlXqkNN9wwzyUkWX7scdRFOtGPIW+0WZuEy3hJn7b0EqbfcImrDPdbvoSL8uGXebM7bIErJSVjaeOgZQI+/H5pEPDhl+UiLfwyrw73A9NPmbHggbefct4Tz2ZudySHN998a7rzX/9OF/3+knT55cOHv9Bohhisfog8FuKWeF1J4MoAtwu7E4QdFsPBXi7Kz8g9WL3wd3kdBToKzB4KxLvNp7LDSFF1xKWZLrV9wxvekKVSJnj2KdJcKcAOBjPmok72K649sMumonGNifmFT1Lu/iL3SmGg2FqyaTEPYcjcL+RwizR2LXGiqxdFSNMcf8cIxI8UJG7/TkNT0l9vuC6d+LOT0xNPPJ7SFNiGhj0+pqyoQI6yTi0Npw/DBIg0Rtg/+cnxI5KRKVOgHUp/+9tt6V933Z3Ecx3DgSg64getRxL6CIylTB9oxwxiDAS9y3DT6b4xVzLGgv3SygJuYxD94Bs7pLml6xdflGmCb0oL+M6fRoGSTo89NinbX/38tDPSIYcekS65ZNqJ+YEYLEgDce1H1ZEe8bH6gYeI0y3jDAiXXXbZPCnCGfm98HcMVi/qdHkdBeZsCmBaSLBIn5zYJXlycSImyCaMATLVHpUJFaB0cT6mzI8tC1hMFHjGxw6psLNhgIz5YqdCDemUsDuF2LSApXokBaO+7eXY4pCkq8uPvRdbHepJeIempHTdDdenz33uC9lg+vJLL0k33/rX9NAjD6cTjz8hnfSzk9PQUEpTJpv3Jqfbb7813fH3f6T9Dtg/HX3kUXnxRYthN5QevP+BdMed/0xbbvE/+STZwYcekJkpjOB9992TTjnxZ+mPl12cHnogyqQsvcOAcGx0Yn51X1PpIl1aGS5hIlznR7z2A368fVJIdrtoHbTnS0f7GXHRh35xgO+3TAnnjizj1zPRdn0xfoSNqThZGO0oy0Za+L3yAqbzn0yBoFvtByTJ95577pX2/PZ30lFHH5OuvXba/WEufe3rHqxADmmEw4+K6nik9+PXZR1LxaW7l4nO2yRK9E8sP7Lr64EYvo7B6kGgLqujwFxAgdrWiNFvOLv+Xo4kIE4k1/NPlAsj4Ig3+W1lAxZzx0CZq2EZyWvnww8/mL7//SPSQQcdkuyI9z3wkLTNl7+SPvW/n0gf+5+t0q/PPDvj+MzWn01f23b7dNH556bPfub/0q9+9cv0i9NOzRcQ++LEMccel37wo++nu++6J6tF1XnxxZdmxu3/vvjlfKoZjUjhDjtseLftiP93vvOdbDyN2XQSjeF02K41tbvuRw1T59dx8Fxb+tTsvrwSRxlG2ya7JmtKyWBhIo2F2llnnBaHk6qrtvMyNlzaCZfymJ6oHzMbX60o8Ua+tLZwwMvHOFNnl/BRznMM20H52lGPV7AOAATc8Fib/qQbO0VXOlhvS4eZs4EgQWty0Y6mvDkxrexPGW7rS8AYT8wPbr0Nna+ezu6tLwlWIFJRhNv8aIz8gIm0Nr8Jzice7DDZX/ngcVzTwI9B34Yv0k0iTlx0rqNAR4GnFgWa5pSSAm35belRtswvw5Hf5NsUxgkw+VGOT433wH/uTzffeFP64x//kL7xzd3T7jt/I1166cVp6898Ou349R3S9w49Iv3oyB+mX57x8/S61VdLJ554fFYLkrp9a8890gUXX5I/lfL5z30mvX2Td6TLLv9DIhb78jZfydKsn55wYtru69unb37zG+n7R3wvM09HH/PjdPDBh6YvfPH/8kedqUdJ0zAMJFm+i0oNWqvSou1lP5r6HGklfK+0yBtP311QNVMEPyaEDV04UkoMJUlEnEbEIClLRYweLl125Q6JUVxOan1x1QEGFXOLmWMXCA/mlKF5yeCRdIbxeRNdoj2lz75PnbVT3pgytsJRe7vegYQr1IeYM4wYG0UqalJYvv4H4+TUoefvKgdO3zF2rqVw2a0+RXuFo/8YurCxClwBF22q45E+Ef1oa/hlGyMt/DIvwk15fTFYgSD8GlEdb4OL9H58g8RDDrGoMnYaHn55C6662+onxifu71xHgY4Ccy8Fyve/DA/S46ZydVrEw+8Xfxzjb4J3uvHRBx9If7317+lL39gnHfHjY9KPTjol/er8y9KRJ/4i7fG9Y9MRP/xRvjBy3733Sd/cfbd0zbV/Tn+//R/pS1/+Wjrqp79Mv/j1Ofl7d9fccHv6zOe/nG6/58HMgH19xx3Sl762YzrlzAuyamnHHb+eLvnDxenGG29O997z73TqSSekb3/7O3nBZaNGdWZ+5XyhAgNRukH7HWXHWi7K9+tHPeH3YrCsL+GofTFYGChf6rAo+iA29SLGxHUK7r2Kr3hgUpxSdYKVulk5ggA2fZgtuJxMBe+glesSrGOYFQcmMG2li/aWaRFuYrACvmawXCqKMXZ3Fo0PZssBDgyW0/jaQlKJMffdRDCcdZLTF89d3/UHsx0MJFtHTBg8+s1W0afUXHaKyatP6cIX7czIJ/BfWzvb0kfrG6Y6NiZ9qwiDPlFp+JFe+6Pl1/ARr8u5zM3381yyFlx5DRNlw4983HV8+iXyOr+jQEeBOZsC8X7rRRmOXvWb1lQ+yoYfOMOv0+t4E86QYNV5ypJg3f7Pu1IaeiQ9fPtV6R833pRSejT948pz0r03Xp6mXP3rNOk//0yTUkoPDMHwRDZMnzQlpTvu+lcaeuRv6YH770v/eXxKevCu29K+B303PXoHqcZQenBoSrr1L040TUppylC6U9EpKd183XXpvPOGv3EIjiO5sfCGzZUbxi3ApB00CaUKLfpcqj4zkpRGVK4x7wZs5IuXaWU4YMbLH43BirqZnrg8lGRLX1366fAChsShCDSgNcFQOCjh03LUfxgYN6qjGenff//3f+dPymg/u2EHs9j8+VC0tpBqMX1xWWnU3dTXMg+DFSrCgI18jFMpwdIHBzNc+cAmke/AhvRnPvOZ2XbQc3nTm96U+6CvHHtDwgwM2nLLLZc/g4ThRgOfgXO5t+/WYtZIyazFb3zjG7M9ojEgjdQuXLRPvAxH/kSvqKSJAAAgAElEQVT0B2lnDWt8OEziQ89HHnl0OvHEk/J1LuDGJMEqCYTAYURa6n/rRpRlBgnTGdsJrLXWWona0C92H011lGlleJA6O9iOAh0FJjYFZvTdHrR8DV/Hm6gVMGxcwgamhrNI/u2xoZSu+3Wasu/aacolR6bHf/qVlE78XEqn75qGTtkhTXnioZT+cWVKlx+b0v1/T1NuvzQN/fn0lO68Mk0+7VspXXxkmnLH5ek/Z+yV7v3Ft9KUM3ZNj526Y0r33ZSm3PCr9Mg+a6cnrv9NSjedm9K/r0nb7LJ72nXn3dIf/nhZ+u1vz88LJXWQAwKkLxgOu3CXV77rXe/KqiMfESatcEs5plC+BdkCjnEgsXFBpnxwbHowKNtvv33GU/d7VsRJoEKdVdbnuZQqQv1xGzsmkuE4xpLaDCNFqochInki0dMfkh5OH/WXY7vmtKpDF/rvuWJcHLzwmTfMKwnW+9///sys5UKj/GknhihsCWM8KSZsTJXjynPwaTfPimmMwxgf/ehH8/MjcfI8SKvkk2CFdsez93FxDBdasMEjeQGHmUILazD6YBz11WEQd1yR2m266aaj9GTOzEZb0md+bDyaejJ58pT0wAMPpfsfeCjde9/96c9/vm5EgjUQg1U+YAPGKRsvGe4cx+xBGGS14WlTo3qllfXA7UPCyy+/fLbDevrTnz7dy1HiKcuV6V24o0BHgbmHAuV7XoYH7WFT2TItwuEPij/g2dCYaM1lVC3xwwBgSu4jRLrx/PTgp5+bHtr7bWnSqdunhw5/T5p08g5p8jXDapxHvrFqevgrr0yPHPXJ9Oje66YHdlgiPX7yNunxM/dNj+y2Ynp4j9enJ075akpHvDs9vO9b0kMfnTdNuvTYNPnWS9ODn5g3PXr0J9Ij31wtTbn/irTtd47IpyM3/9AH0qILL5IXXhILiygGw1xrYbdxXn311fP38izOpBtUSOZj6inMBwkPpsGCbZG2AFNDkZ5g2F7+8pdnQ+mgRenPKF0DVxMeaXF7OmYnaC6MgdK3cNQ5zE6sW8rpO/urwMsGy83nHElfSPMckCDJAhd3oWE8Ix88VSIJB+0LxgwDGy7wR7zJh1/b4263GEN8Y6q0MQPLForP6Udpv6UdESekkM/pH1VotMfJ/chj6B90Aav/YXclnbqQDdvc5LyTeBtSXHTG22CSSSKDRmV/MVc+9Ex1f8mll6Wrr752BG4gBiuQ0s3ijFVeOrsFL6ldTTzkMr+fcN0BHX3961+ftttuuyxe7QdHwDgBUQ7ASB8Pv25nibNXHrjQzwqPBlvi7cIdBYICJkWTYKjNI30i+GEorC3l+LbjLSUKTi1ZpMKxU7HwUTfEghV5bX6Jvw1mIqQzDmYUbGGLn5NHFj1quqF7bk7p9t+mKff+KaWbL0yPXXp8mvLvG9PQHX9OU4YeT5MuOTJNvu63adKfzkyTLjkupT+dloam3J2G7r4uTbroh+mxP/06DV1/bpr8l7PTY1f+Mk2+9JiU7r8jDT3ynzTp4mPS0F/PT5P/fG56Ik1Kf7zyT+nhR+5Pl/7hj+nXZ52Zd+gkFxgS9Kfu0i7zJ4bLIsHGhoTDfEoKgonw/CzGnhsGhC2TBZdqjATFKTRSEFKA2vV+bsNqy7KMK7tu/vM96bBv/Tbt8dUz0ze3+WXaZ8ez0jlnTL1uYWj4nrC4EwxNH3v8iXTDjcP0JrEKunsO/ZxEL+uf0bD+YrbG4rzrVIHRfr4+lO/ZWPDOaBl9Gus6P6N1z6zypJT/+7//mzcQZR20c1SmLiyuncMLF1xwUfr/jjw6HX/8idnGEQz6DMxgOQXhdEkvKRWplh3PjLh4Ae2Oag5ZXuTXdZTpDPLCkK+Ga4qXZZvyI62Gq+MlHGbTxYYYRRMUsbHvQTW5wBN+CUN3H8aIZXoXnlgUaHp2TS0E1y8scf0nP/nJjIa6gLqcWH/VVVfNxrdN+MeaVrapDPeLj72Hyz3NERyGSpg0g6GwhZpj+LvRRhslFwljvLzjPobrPXnOc54zYmwN1q6fiiZctCv8SJ9T/Ce1e8qwZdUfb7s7nXf1tNNtw/3BbEy7aDSuHpV26hm/S3c87HIskGCm+lMJMcxsTI1k74kMOu1e0Scv+E9qW1l8ari2tynLWHDN/+VBpBpFCT+cp+3Rjxp6uI377XZmet2rv5nme9qX0kJP2y4t9PTt06vn/Wpa8tk7pa3fd0z6+83Dd3jlPk9Hhycza3UNMzse/Q1/LPVF2fADRx2P9Jnpl3WW4ZlZ56zA7fBBzFvqa+ob6axf6WwGfX/wnN/8Nv3ud9Tn0z48PjCDhWEIvXNZSd0gCwIuux/X1JEot+aaa2bVoNuZfX3cr00qFXjCn9n3YEU90dbatxt0rQSdPL32GmuskbbccsvpjmwrEyLXKG9yKnHbbeGsfbiTk1dKwaJc588+CpTPq1crSrgy3KvM0572tLTuuutmEAavbD8sci996UuziqlX2UHyyvaU4X5xnHrqqfkGdOoMx9o5YnY3nnsHSNvgZRz83Oc+N+/AqZbMKZgo84rdI3uYcCQ/3iGqKi7aFX7AzQl+2eYyHG3/4Ac2Tzvvsls67rhj0/nnnZP2+s4+mWb/vuuOdOBBh6Tjjzs2XXbZ5ennvzg1bb/DdunNb3pL+s05Z6UTf3pyPt1FgpRdvrEdsSZnxivwZ+ZsyjSGo2bAmtqkbJ1ex2uYpvxoQ/glTBkezp/WxqEnpqTPffD49JJ5v5jeuOg+6c3L7Jveuszeaf1l9k8bLrd/WneFA9Miz/h6WuWV30o3XU8aWLppeMpU4SfXWUNMvHjZ5jI88Vo6Z7bI+kqFzAV9w48ekbhTFw5LnodTzWskWFddfW36/e+nvzqjbwZLRXYn7spoMviqG0KNaMIdxNU4lMUkOUlo177UUktlOwAi0hK2DJf1zQiD1YYz8Jf5bWG6XEaHjA0dnyWm9pVzdgp2+hxG1PcW45I3Uom3v/3t+e4RC5M+M170WRBqUjhJMeDrtUuMdnb+zKdAPP/aL2uOvEHSlMGsGDNU76FikL7OOuvMsJS4bEsZhj/aG36Z3xamYlpsscXSwgsvnDdC4NhkLr300vn9ZaNjY0DCRfXEOQbu+Le5RT/deYeBVC/RuxNKTjExNC5d2cYyfaKHm+k5lBklx+P32++AbAP1spe9LL34RS/I88J737N5ZjLNC5//7OfS4ksukRZbfMn01e23Sx/+0OZpkYUWTvO97BVpnTetnf5557DKMegQEh23xXNDafKwtCgApkrHIlq3L+K1H/ClHzDSIhx+wDXHhxmhLMUKwIwkpYP3OCe9dJ6vpDUW+Vb6wDpHpBv+5FuQD6VHHp6U7vn3Y+kDbz4svXHR76SlnrtT2uwNB6ZHHnq0wADvNCYr6g4/VzFNnFeUm1jBsr1lm+v0Wd3q2V3/ePYXk+TEpNOUozmbRerz6D9+6Oyzf5N+9euz0plnnj3dIYa+GSyVBoPVZvcRFfIxBW2SrqYOlGXrfLZedme11CbKlPBl2iGHHJLLlflt4bJcGVYn+wIq0eBaIz/8Emek8Z22eO1rX5sXEMaFDBAxU0sssURWFVo0GYw6eeI0hpMeq6yySuaQ6XupTzCW1K0kWHb6pGCOC2NguaivbEMXnj0UKJ8Fu5RSlRItCpg2P+DCpzYj9SS5DeNZ40F8vJz32tcS2HnEZ1/YHNT39YxWn/E8//zzZ1tJ496O0IbM2LYpWGSRRfJmKaRbaOBdcJSdFNcJLXWS2JFSf+lLX8rG0i5xJMH2DgXdRmvLRM8v++H7gBdc+Pt09VVXpEcefjD98pe/yrYcV1zhvqShtP+++6WPfex/0lFH/TjfUfSJT34qG5j/8Y9XpF/+6oz0q1+ekW2nbNpuuvnWouu+r5OmmXNMmZy/RTisTpQxvQwr2hR+gagx2AbXlN6U1oiUPVrmiYbSnbffm16/yHfSWgt/J62xwDfTR95+ZGYOf37CNekzHzwufWvbX6Z3vP6I9Nal9k8br7J/etU8X00/OujCqWinZ66irrIdZTjyO/+pSQE8jfmmFFo0jQ9pNocOeHABc99992f1+1133Z0efngak983gxWIcHnlSYi2x+F+kCbjxib4wF37YE26VAR2t+4nefGLX/yke0HKjpbhQSVYUX/gwM3aTTuu6/4T6hmnJyM/B3r82ZE6eRCObQJmyoLCLgteTjvt1DFXHgibFAsTWy2LC7WJC+w4J3nQo2xrzuj+JgwFjBmnshyDZnNUXjznRBDDYG60Z+jUEUaFLeEznvGMPC6o3RdaaKFx7StjeTZQGCL33bhs0ubA2MM09eO8F5ircCuvvPKIuD3SvA82B6SvHCPvFVdcMUvmyonNh5apDp1Ac2qNBIwUOy7BDHxzg28MYHPaxoK8yWlo+FTXUMqbvcce9amTYcnMcPlhy6xhPNOokuMj0bDRGuarIu9JUqMR+PY2FSAjwab2R1rtjxSaGhhuQ0iaol8pHb73eWnBp309bbTqIWn1+XdPW250ZGYYP/6OI9Mr5vlKWmDer6a1F90jbbraQWnDFQ9Oy7xwl/T5Dx+XaTOtzulri/TpU7tYR4FhXiMYp6BHPV4IWlw0a04PZx4755xz8wef3YNFjQ9O2b4ZrEBGNEakX7q6EWwo2o40luXKMBw1Hvk+8sxmw4RP/2kXXBuZ1Xgi7gixW3hHc031KoNBtLhxpBGxkyZBsFCWtiIlDmEEXnTRRadjyDBRdvMWDTYo7FOc3nHqhl7XPSkWOkbNFjsPh1ol7qKhJrTYUMGU97iM1r8uf9ZSwHMlpcEMkUR6ro76GouuMmHwLezEVZwEivETvosNl1xyyRGplTBpJyYFA+eYvHEyXo501Xvl+22uD9AHYzKM60erxwbI5ouUCQOojd4RffQukLg5cIJxWm+99fJmZb755suSM0wcpopja2buMNGRqlENUpNzQZscmZv+hthKccMSp6mRqd7UtGxXNSyVCUaK5GuEUYrymfEahstJbK4AcdMBPzFVgBWMzVSQqSqzmtZ1fBh6+v+Aqf3poZpjUSYYR1Bf3PLktMwLdkzrrXhQWnWBPdNHNvh+YqZ/792PZoP+c0+/Ia326m+mty27T9pwpQPTmgvukd7zhsPT448PG/PXNU2rY84bS2Xbo19NaZHX+YNTwHxFitWLroQhwdsEnDnvhBN+mi8adUXD5ZdfOSI1HpjB0mzqKhMvNUjt3H9iIej3mHVdvo6/+93vTs973vOS+68WXHDBLL0hFYjOgS/DUV6aybm87yTy2vzAEz6ViVN/nMXS5I/AiGYRKRmsGid1DgP90tAfY8UujRTLorLZZptllR/JGL2uU1U+c4DpwsxRje63335ZGkKChXOmrsT0oXPnJgYFYrxEa0ggqccxVp6hiyY9Lypgkh4nAI0j9klxqk7ZwMM37sqTcyS5mGsbDhLNxRdfPEt3o84Z8dl2kQ7biXGYP4yh8dqPTYIy1FPswvyo5jmbope85CXZ5sohD46q3z1LVH7q5MwnNg1OGWK+qCw5dMCUbbjhhjk+p//F823qR/BAmKAynOkwlTfK5UYyI7FgpiKpgJkWHGak2GBlnBipaZk5rZ+/tj60pdc4e8EN5wXDN5Q+96Fj0vIv3i1tuMJ+aY0F9kibr/ujNOmJlH58+AVpr22HN847fvbnadkX7pI2WPGAtPYie6VNXndweuihR6Z2LXBNa0Wv+qdBdaGnKgWsszbBoWUIOpgjzWs0EzaMXDmW7rjjzvTAgw9nxj/mLzBjYrAUNHnG7bYWDTZXJn52QvWpuNyaAf6i4XwTvA47PkkqEItAP+gCTz+wNYyymETfZKKeIFFCYG1hJ6LvJSGjfK866zwnpMr7WHDCvVw82F4wT+28ekKt403U6QemqdyT0+L5xg3O7hPC5JMMYSbYzZHGkvR4TzBcbfaMT8Y+nOIwhPdrPMcCaRkpKZWmQxSM1amxB3WkvPU7Qf1YbjLQSJ9re0Y2XyXcoHV38HMwBTKjV76Hw+Fd/+8XafFnfz1ttPJ+aaOVD0rrL39QesOie6Yl/2vntPTzds0G+7/66bVp8f/aKW24wgFplZfvnrbcZKptakjyKjuzOZhKXdNnEQXwMjRHzIJoHlwpw6THhrhcr2O+r5tVpg/MYJWFTZ52u2yy7DRLm6sSrm5Ar3iUozqhdggpmav5naKhvgiYJjyRV/tNsG1pykZ5EiOLosWDoS4xIukE1Qe1ioXBz0kCF8Lxxd3/Q6XJDxj0sjiGb5HEGSsXCy2mDjxfWQwmeD/1kYx5yOKB9ynv3/uvqXRH639PpYvwVNrfN+3Z3Hv3feneu+9JfPl3B8zU5zgWWsYz9xyVxzwYM6Snnpcx60e97gSsMURK6ecZ12MHDs89xkLEMS/GJXslYWNpLO2ty5CguqPNpkmb4GXvRBJXw7bFY/yWY16/ghGMtuqvNL+gm7xwjOzLOuA17oNGZd5ECHvWMenGnKEvZTj61vm9KDDNRmwYaihddM4NaYn/2iWr/1zP8N43Hpa+tOUJ2eB94Xm3yxK4M066Oi32nK+nTVb5bnrNvNunXb5w2ohkrv1urV7t6PKeyhSI99a8E7wN7RLBTuQ10Yda0CGU4447Id2ZT/IOQw3EYPWqALrR8psa1pSG6XjNa16T1YEmbOoyx7fd+8PA27X+/bhB21PDW+AYs5ngSZv8pJFgUf046VTertsrzGYKs1jeKBzw0pvC0mr4EjbKdP5NmX7DtHFbdnlj9vXphhuuG6EvWgUNwx8P+pXP1+bAooshJ5XEQASDgFHHZGAkpKk7nnGv9pQwES7LzkgfjONg2jGJmCvjnj9WvGUbA0dTWuTVfkmLKCetTK/LzKp4tIfPjMDzLOeOtnA/c9ZTF2ZYahW0y/6UlD66yQ/Twk/fLq254LfTh9f/Xlb9nXLMFWn3r5yeLdA+/6ET0iqv2C29YdG90hL/vXO6+tL/n737ANu0qA7Gv9EYkFgQQUApSm/SsQJGFFEs+Su2T5M10fh9SYyJJjGxBVsQbCCCCgSJgqAoNgQFBKR3BGRZivReBEUUdtl9d/7Xb973vDs73vdT3rL7LnvPdT3PtDNnzj33PTNnzpw5c+s4gzXalqVkbMVt3e7JJ94C8U0GhjqO+frc576QnPo98cSfpu9//4fjFg/oyc6K02yBoJ9fVlCG63K98mpY8YC36sdIGbisEIXpdXEUY3spuZd4XUBKUXaiLugJvxeeJpg6rY434athyngZVraON+Fb8dJioI4nX3KAtRux2Bo2mCXzo9QwfrwHfoSHKd8G24SrKa2t/DDpgTf8YcrWsIEj/Lb8Or2MT6ZsiWe6wyWdZXi6631s4tcXR6WboR4257I703NX2ydt+qSPpRevt186dP/z0q03P5DuueOh9L8HnpO2X2uftPNzPp/WmvW+9PWDz8rM1WLTVqP4Hptt1T3VVLdA9N/wS/x1WsT5FsoOoPnuXPwc5m3kDSXBUmGJuCSgzKvDNVxTPPDKY3tqiy22yAqymKttt902F9lyyy0zs0VHhCvLlOGcmVKWfIVBw0gb1i/xluG6/ja8vcqUeWW4CVdbflt6E47Hdtriaz9GB9hgnLBTi8NLtkGkL5k6kdhUvod+uCI//InQ26tMibcMD1Im4MOvy/RLr/MjHn6Nb6bES/rK8Eyhb/mgY7Q/jurfjx5zx3BddN5N6SWb7J+e/ScfzOYZdlhzn3xtzjqz/jNt9PgPps1W/Xg68FOnV49YbzlW2V20a4GxFmjqr01pwNvS7XKxSzdnztwl2nUoBqsN+bDpS1DQQjTJFZs5u+666/iFsEw0NF222IbPSa3x6yNqoCre9gwV2Hh0EPheME15kRb+eGVjgbb0Gm7FjcegOnY0fQkF1+K4+xRLmsr2bntHdXrEwy9xDBOebPmyrhpXHS9h28JRJvwarkwvw+DqeF22iz9WW+CPFzokWPk3Jo76/UPz0uc/ekp668uOSHtsd1D+vXnXw9O//s1xac4lt41tCwae8B+r7dU919JqgXJMKsPqjzgVi6OP/lY2z3DmmWens846ZzzPLtpAW4SBrO3B+uW3lSvTe+EIZdmA7wULRv4wDFbgjbJlvAz3qzfKDwI3LGxJRxcuW6AYUPOoPJJOPPaK9G/vOi697ZVHpHe89hvpE//643TRmQx8gi3s5MReRIluguF45+E3oemVF/CDwATsVPnTUWcbzrove4Y22F55vcpMVbt0eJZOC5QGT8twrl2XHbcqsSD94ffz00O/mzd2gMKiiumJxRLspUNxV8tjqQUmM5Yw6UC5nQ5WzWANLMEKAmp/qho58Aa+Ml6G5dfxKFP7E2GwAnf4gbOOR3ovv1+Zfvk17oAPv85fUeOxpeD5LzzrlvTKHb6UNn3SJ9J6j/9geuasf0/PmPX+9IxZ/562XP3j6T1v/U6a9/DSGYyn8j1NJa5BvpOJ1DdMmWFgB6F3psE81p9v+ts7+mixeLI4IojOi6LFmpR/vEaqykw/sV0Nj7EWaOq/TWnx2PTF5869Jl199bVL8CcDM1iBaDr9pgdg+CtODTblt9EDlpHOU089tQ1kifR+uPvlL4FsCCawLFfWUYbbYMr0YcNt+OHplTeV9QyLqxV+bHV7/pk3ZGXYrVb9WHrRcz6TTxZ95TNnpsO/dF569fZfTFuv9qm0/uM+mN78ksPS/EfjXrZWrEs1Y5g2BzsMfNODTLZ8E84ubWItUL6LtvDEMA9eqqy3rdQgMG1lm9IDX/gBU8cjnd8rb5D8EtdE4OvyXbxrAeZiTvv56enc8y5Iv7jsinTVVVePf6czisFqelXuI3NykKVod/m5goPWfpsrOyBYV39MxsFX4gxcTWmRF37TVkjktfkl3jLcBl+mTzd8WZdwv/r65df4Jhq3gv39Q/PTi9bfL221+n+n3Z97QHrBOp9Nl5x3a0ojC9O8hx5JN1x1b3r5ll9ML93kC+lZs/4jffg9PxzdWvjj5e9EyZiScv3arMwvw8NUPtFyw9TRwQ7XAnQ1yquPBnlHbPRxYE8/vVbyHk13YIghWTC2Mthga8Md6eEH7tLPFTb8lWUi2+I2TlRFGh9NTeklTBM++ZEefluZpvyAZc6jNGrLGHAcnAqYzu9aYNAWcDXTHXfenb5x5DHpq4ccnk4++Wf5NKHyA+tgDVrZVMCVncPlsyuttFI+PehEoV/T9TdlmaCBMU52tNocu1astpYXN5Z4hFncZs9Ih2R5u8wPvJEWvoGS0UYu0gI2/Lb0yOczdkYK5xnAu77EFUUuAZbG4CkDlt/97nezocjTTjstHXfccdmgZYmnDlPK81ys45dmLNTBtg+r405F9KKxKW/QtJqeycdH0hFfPiet/7gPpVdv96W0zdM/md7/ju9mtH+/15HpuWvskxVmjzjgvLTJn388vWyzA9JWq+6drr/23jHl2MlTMBUYyvYrw4PijjLh1+Xq9DJehutyXXx6W4BtL/ctum/S9UScQz4cg7P6Ihf3VpLoM3Ts/kaMFRiLT46dtXBwXHDBBfmqIbbY9HVXNhkX2WHzzuEUZnuQE+YwQW4NYMeNqkXQYCzkxBmi5eAwHqHJ7QWRzgK2n3xbKOHct+rqJAtl+NDB5lqM1cZj9XNRL/tsXLSLfM/BwaMNOPbc4kYMdAQMKQOnruc973n5ujKw6nJFmXkFk9X1g9xM3d8EWoDR6u99/4fjxtGhmFESrLaPm3FPzFBp8RnxNXzEw29ro8h/y1veku90czdadNAa7xOe8ITEThhT+XvssUe2oh3l2/AzK+EHzkDAd0Gka3c4lri5Ek+ZZqDR+T23jm9wQZ+wQYzRVWb82d7ADDFfwer9a1/72mwA9YYbbsgDZnltSSlNY0ds7bXXztcBPPnJT860qI9zF6J6uBjkcmTsr8QjP+KepWzDeJ6y7HSF1f22V/xv2m6NT6VXbfOltNvm+6e9XnJIeufrjkrbrL5P2nnDz2QG6+tfOjdtvMp/pVdt++W04Z99OB112IXTRdKU4y2/lUDelBZ54Q8CE7DhT6RMlO384VuAlN0F8u4pNW64pojvwm2Xe7t02/2jTlVjevT9NdZYI1/dscsuuySLUMyTqzyUw0xgrIwLFmgumTd+ucsUc4Nhcserq8cwOu95z3vSW9/61nwn5Pbbb5/h4dxtt93SX/zFX+Qx0liEPvkWchZ5b3vb27JNQoye+zUZh3Zfq98HPvCBfO2SeyRf97rX5QvttQxpkXs0P/ShD+WyL3vZy7I5nXe84x35KjLXTG233XaJaogFJXM9xiQ4vv71r2ea3MupjdCA7p122inXZcxxylz9Bx10UHrnO9+Zn187YmCVly+8ww47ZDpIGDBi6Lj88suHf3ldiRW+BcyD5k+bITfdcnNWaRodQ0fSMcd8c7BThEuzFcsB3jU8mIF/+qd/ytzga17zmiUYE7AlfBlGc8TDj+cQt6rKHOasWUswB2U51/9gOF7xildk6ZDLbA0mGB2d1f2EGDADwNZbb53Ru5HbwPfP//zP+fJblugNGgYggyDYU045Ja86t9pqq7wSNeD9zd/8Tb70GYzBy2XS8KDTAOeyayvVnXfeOQ9UmCsX5SprIHbHHamWtjIoGdzcpbTffvvlVZuBlnMn3ote9KJsvBXtVsSYTQMaepjGIAlDJ2bMIL3BBhvkegyEBi5XqjD+ajAzYJOiKbfPPvvkVTJmz/PHqjRXPE1/99/1UHKVxks2+lzaY+uD0qt2PCjttvkB6XnP3C8ruf/sR3OzpGqvFx+anr/ufvmI92Z//sn0X+89IXeKaSJrQmibvtNAVOaV4cifiN+EpyltIri7MoO1gAu/SZQPO+ywtPHGG6d/+Id/yBdfu+Ae8+D+UwwLxoCEiNTK+EBSbsxwcbbL4/VDY4Rrj/RPzNCee+6ZpUjGgFVXXTX3Zwyd3EEAACAASURBVNeauWvNuGasIZk3zohvuOGGuV+7lsxl9BiRMOyMwbNIdA0UhvDggw9Of/Znf5YXj5g3kiDljAPGS3XDaYxxTy1n7Nhmm23yM7o4Fx1rrbVWfnZqIPLe9a535efzXJg8C0pjKMaSBN9YiiZMJ+bOOIchI93CfJHSPeUpT8kMqjIWkS984QszLS4Ud7csHNoaPGv8GL/47mPRONjb66BW9Ba477778ynCr3z10PSZz34+K7trE9/TjJdgGSQMMDoTUfAzn/nM3IH6vVQPd/HFF+frbErY6ETSrHie9rSn5VVdwMgPmPDpgAVjYYW11157ZSOoe++9dxY1EznTFTPocFaE6DZA7b777pnRwAhhjKzIDCKYIKsmA4yVpMt2DRQGEAOslagLpTFPGCyMyjrrrJMHBOWsIuUZWMAZlNBj0MKQYpgwWeq0AjYgW9FymC42xWKF+1d/9Ve5PszjyiuvnJkkA6LBFgO15pprZgbOKlg5A6260GoFbDWNeXR3k5WzsMFr8803Hxfp54qn6e+uW36Tdt74C2nXzb6QXrXNF9Me2xyYXrXjgWmzVT6a/s/uh+dav/eNy9L6f/qhtOf2X8p3m232pI+k//qn46eJoomjjW+uxNCUFvny+uUHbO33KlfDdvHpawHSeZIifc29Z/oR5uLAAw/MfcyiChOGKeCTuOh3mCYMD6YF06Mshijuk8TwGFfiwlpSbgO+haGFKmbDuEpX1Vihf0ujNmERCS9JEyZEnaRG6MTguRvWGIFBg4M0SVy/hyNUEIwxFm5gjGEWzOignmDsMrZbjJEkwW9RZswyLtouxVhiiCwKqTZgBNVl0WcBSFKFyQRrOxGjaRzF8MGFCcS4GbMshtGC2bIYxQyKY7DMFVzdJ+r49H0FHebltQUWLBhJDz74ULrzzruzsVGnCWP3Z0YxWE0NjFHRUXQaTIrJ24DQy0WnsDLToducFaEVlg7WS9KCsTF4GGgwI1ZnmCqDEmbLwGflSH+Js3LDlBnEbCticJR96lOfmpkfq1KrVYyWwQJjhmki7jZAGcQMMhg0uIn8Y4uQmB4TZOAz8BgoMEYGUzQaWKzYDMDwwYuZQwe6OQOblaHtAgyT59CuJFJWfqRhyqy22mq57TGPBlR1ay8DorhBUFk4SO9sg2rvzTbbLDOcGECSt+l2Cx5N6c27/E/adq1PjzJX2x2UXrD+vmmbp30izZv3aLr+qjvSZk/+eD5V+KrtDkyv3ObgtPHKe6cjvnj2lFyVM53PZxFAFy++aToyJhJx+iW2zcWtuuMb1rmV4cAFPD2bwBNpYJSL9Ol8lg53ewtQQKeHxHkXdKn43qNtQQ6TE8544Eox79S75HwLoaMkjnHjfBu+I30RvD7rLlXONyRPWfVZzIW+UuhjKRffIH0qcNJCd1UedQQ/Ybj8bJvA7/vyC5UFdXDqhQNNUd52qbGVxEo98Qwxjqg/6KYKwQUMfJgoUnj3w2nDUFvQVuHAa5OgA629Dk5Fuc7vWqBfC/hmObbZ/GbEFmEQVRMvnbgbI4TxICkhienlAhefyLy05B55UZ6UB4OEeYvOFnmlj9mwjw8G42NrzkBmy81qjVQLE6hTc/Kt0IixrTJD+XP27Nl5xWVVSVFf3g9+8IO8csNkgbfaMrhgnIQ/+tGPjg8SVlz0xUiO1G/1ikO2LWflRjQuLh8zii5xqzTbA7YFOVsE8DrJYwWKwdQWVsFwEatbLaLTylF5vkEI4+ZZbZ2qwzOoxzbjC17wgsx4OamkrJVycPK54mn680l/Zb/T0rMf/+G05/YHp1dsdUDactVPpFN+fFV65OGFaaunfiqtO+tDabdN90+v3vGA9PLNv5i2eOrH09wrFk9Y00TapNCadExAN910S3JS5ZFH5qfbbrsj3XHHXTn8u9/9Pl177a/ypGYCuvXWW3N9vg3MfkyQV199dQ7HJGpCkxZ6dyaiCE+K4K7wjGyBetwLRfU6vY34Eq4MN8FHfvhgynCUaUqTh1mMhWrAht9WJvL5GNVQci/Tu3DXAtPVAr7L22+/M0uwjM8x7qpvqMueB/nAJ/oQTbgjTae55JJLMkNgko90dZXhum4M1s9//vM6uTFe46njUagtPfKH8dtwtaUPg7uEpRNmaxLTx001/rKuZRW+/47fpa2f/t/peevsm7Ze/ZPpvW87NutdLVi4KLkw9v57HklfO/jstN0a/52evdJH09+/4ejRtlhWBA9QL4ae9ALz47vHcIn7xco8pA2lRAGDpZPzOf0HEwXWuydNwEBjuDj4pHVu6ltgyb7GAOaogcy8zh1d7E5ZpVFX9sdwj94WNVbnopRG7r+5ODk7ksr8NH/0oEsmaIlrpgoSx2keMwQ6Fg/jnwsWPrwEfiXV7j7QvKqXMG6Vfez6KjDzRk8EImi8CoGFjxT4RoOj+YvLFtRNX1ClY3SP1z+aNH11dphnbAtEX0OgRe7Rx3w7/eCHJ6Sjj/lOOuOMs8YFC0MxWL2eNioMP2DreKQ3+SVshG1z2Zbyo+zIbzLT0ISvlmCBCbx1uKm8CY7ImcTH5GTlz5mwTE4kPpROw5gpETVlydjPb8JpkjS5BR3h17AuqaZ7ERNpnd9WroYzeWqv0u6LsqQdJuBB8dR4Z1Z8dAI56XtXpfVmfSht/uS909+++uvpC/91avrKvmek7x5xSfrOEb9Ie7/3R+lps/4l7fqcz6XfPDB6rHsmPEfbO/DubWc4RWrrBaPl24stIbTHVhLYWLmTUEi3LQK3sG+O/R/OexeO7xB8bMFEe7TRFPmd378F2tswrncJi+OjjNfoNU4TD8e2ROCxDTbGFySMy8KbL0qPHvmuNP/iY9PIww+kRb8f3TYLhmHeaV9OC87/en4weQv/IH/sWqmF83N80R8eyLiUGVmwMC0cmZcWPXh3Wnj+0SktWpgWnvON9Og1p+V61T9KS0ojv7kzLbrunPTozw/K32RmyDB8aWFadP9taf7xe6eRm85Pix65PzHQAP+jZx+WHv35l0cbepTIlBY9OsaySZ6q9uv3LhfkZx6HClpy/UHDeG4XWEFaIPo3w6LfPva76YQTT07fPPpb6eyzz80MlvwJ62AF8ra27Jdfl2uDp49kK47ipu0+Eql6MghcgSN8+k2lBCvSw6/LRTx8TAipD0bNFiHlTtt99JxMaNIpo9J9MgmatNRJ6dKxafTaLnSyzym7Cy+8MDNg9KfYybKtR6EUl3vZZZclhgMpdVIIpWCqboycPC8KM2cbEfMlbOvOFqO6KHPyidfpMcBNZ8rkilFThy1M247f+c53sq6ULUaMF/svcGH+ale3VZ0/E+Jj296ZlJ8eNye9cIPPptX/5N/Tk2f9c1p91r+l1We9P6006x/TyrPem2bv8Y1s/8oYuXDs6o2Z8AxNNNhe9f4xRJh7Uibx8p1EHNMVeiaYMe8dPFjSLLowdHhMeqRhmDXMtzpCUhYLiMAffhNtXdoft0C0V/gBseiBm9K8Wy5L6Y45adHdv0ojd12bFt11dVp419yxsPjEfwvvvCb5wTv+u/Oa9Ojtc1N6ICRWI2nBzw5Ij17wrTT/wqPT/NO/lJmi+Sd+Oj38+b9ICx+6Ny28+pT00JdenR49+/C04NQDM8Mz/1v/kuZf/K208IHb0oIj/2+a/9N90sJT908Lzj8yPXrW19K8b70vPXLMP6dHjvp/aVFakBZc/K0070cfyfj/8MU9R5/vpovSIyfvlxbeeF6Ge/ScI9LCk/ZN8771L2ne8Z9II3N/mh7+3C5pwUlfSAvm/DQ9ctS708JfnJAePvSN6dFLjxuVfmnMhX9IC++7Ni26/cr8vNow3X3dpNputN2vzu8DvqbfvBsuSot+f+8osxo6NuhZNMrAxnvu/MdGC9T9d5CnuuGGm9Ktt92Rbrr51rwYjjKTkmDVhEQ8/KhkUL+pHH0fCuNOx1BepINkFd/mShwYFSdryrSyXJneFMasMJSHeXFKBYNCodypP8wXHSQK4fSZGAt0WoeuEoZQHl0osJgdR5f5mB0+BXZ6ZcwhUA53KsbJQDpetvQop1M6x/SoHzydJidg1Ic5ctJQ+9DXAkvp02kc+XAo59QRZk0ddMkoutOx8jx0pkjfMIqU3JmOaGqHss1mYhizZCWc3UhKd978QPrMh05K75/9vfT2PY5If/vqI9J//O1x6YgvnTO6Hl9iBToznqhsdxRFfFQKMDEaA0dT6cir/SbYLm34Foh2VXLklitT+vUtKS34QxpZ+GgaWTgvpQXFzzbYpH7zR/EtfCQtWvDwKK6ReWlk/sNp0ciYzT2yqF+dk+Yd+pY076TPpkWX/yQtuPS49PCXX5ce+eDmadEffpseve7M9Mi+O6V5x38szf/2+9O8OcenRw57S5r384NTuv2KNP9rs9PDJ+2bHj3hE2neMf+YHj7y/6Z5x74vPfyJ7dK8b783pYUjaeHF303zjnx3euS770+///CmacHdV6cFc05M8456Z1p43c/TI9//zzTvZ/unP3zj3Wnet/4+PfyNv00LLvxmevjzu6X53//PtPC0L6WHD3lDmn/+kemRr7whM2sj992yWIK0YN5o+40/6x8m2XaPLPkuyvcS4evOTAtu/+XYVudo3xwdQjrp1fA9Y2aWiP4afhOVTXnSLFavvPKqdNXca/JVOXiDgB1IghXATZVG2iAwATuMT4LltBolcMrUmJPQO6nrrOOsnIfCZJ1X0tCWZ+VvgrOyt51iC5A0yRYgZgZDhdkjMeBIguSTOIAXJkkAQ4fMdg9lcGUxPqRHcKIxlI5JGbwwcT+OZEydmDcMFCmUOvycPGJwNE7SYALRQSoBF9rUT7pBqR098GII/Wwfkmi4TkN6TOhtbZIJmrF/o1sS9D2yozNRircWLRzX54jkcdgZ+ExL0F7R15QXaeFXRXJbRF74AVPHI73zJ98Ci+6ZO7olN7b1ZTmgvfNv8uh7YsiMQKHXtPCqn6SR+27ITMqi396VFjx4V1p4z3UZx8iDd6SRm39BMJMW3XBRlriN/PauvJWYJVx335BGHrwtLXro/rTorqtSuvnitPDXN6QFd16ZFt12eWbowC+4mcmDBWnk1kvztiHk8+eckhbcfW1K99+S0qMPp0X33ZAWzv99WvTALWnkqp+lhX+4Py26/ao0/9bLs5TKlubIXb9MC689O4382uGN6NPuEF3sxpZVixOmITRy59w0crexePS9BQG2ZDv32GuBYcdCO1Pf/OYx6fgfn5iO/c5xWWiBZ4BnIAYrmjAGhTLu2CxGpt/dUlFmGF99JDdOz5EIkbzwMQThBmmMgAk/yvKl1elNaWWZCJfl2sIBW/olbJku3CuvV35buTI9wuHXdZf4e8E0lVvmaVk3Y0wJdnRWGRsH/3iVuSiN6nHkQbscrZf5QzQT0PYumtKb0mqsARN+5Ec8fOllOOA6v38LlO226O7r0sjvF18VM5o3uhjoj2lwiLLOKBWfd86z4BjXDR+V+Y4qni/e6lpM2xiGQIDByTpThRI6kOhrYyuWJZTmx/MXjMmXQ5cplOuVx6SMMS7BRI2MpuX0TMYYQzoWDgYn99+cNr1/C++4OmGSy/qircebZ3pJ6LBPcwt4n/FOoyqSqOBtyvyAC99Jb+aAfAt+dp3i9PxQDFZUzCf9cMTfFhWzAuw8sfdEv6d0QUSZ1hRug7PNZ1uQbSWGL9mSCslOWaYM1/ib8qS1pQ9SvoYRb8JXwtX5dbyEbQoHfPi9YJry6rReeGrYmR1fPEGMD75jI59njEEwzwE5Mj7LzKjHKt9HGR6EyBI+wuE3lY+88MGU4aYyXdpoC5TtVIbb2mfk9svTyO9+nUJqmj/Icb5/PNBWfID0dhyZvsz1jMKQoP/uwd9kXT4WqEc7R5THyIxWl1XblYvOkyePsYUJLi1vmNFjXNJlcH+5KHwLR5XWA3FmpkopVNQ99v2N1Tla7UheuLtIl7v7Hkr3o/AFWUsSMA2xR2+6JOt9QV0+79KkYRoeq0PZ0AL6i50lhnIZwbVzFrwNneam/k4f+4QTfpJOOumU9IMfHr/ElUsTYrAoVlPkprxtiysc43WIcY/VMC6IDr8uS6mbsjg7T20K7nWZXnF3UjGOyb4Wxq38sT7elF7C1GFlIk3ZMh7pTX4bXNAQ+eHD0YQ/6K39pjr7pZV19YOdOfmbpM023Wr0HWy+Udp8083S5ltsnDbdbIvx94JW6fxNN/fbZIm8mfMsi7/HeJ9BWx2P9H7vrF9+bpMhvtuod0X14z3wXSFFj7KXW/TgPSk9wiTG6Im82Fqa7gnaeKqOqMd2+CGH/k/6ysFfzioHF158UfrVDaPbg7feeVf6zf0PjMKOFRgtO5JZqQjjk4RHlzTlQmUx06Utct2xuBktvLiJxLMbM/UwBh9Yx7NTSt///nHp8/vtm04+5dR8sGf0JOxIuufuO/NF0cFwBcbp8B1SWPTbO8ZQF4u5nLKYQZyOujucS6cFgveglO5GA+o/cegHBdRu8DUYrto5YHT99Tem448/IZ1yyqnpnHPOG+eLBlZyDwLo+lDepmNUusiXRoHaabupcHCFmQa+q3LC4nE//E7q1SYT0Kk8A6aUyp28o+jteoryRzmepXMdmg6TMk4yljBdeMk269qja48V8RsI6+b9xiP55Tg5CHyvMhPBBV/cAOHWBQdh6LU6jMN4cD8XOpoBh4agI/zIm6wf+Jy6dlUZczlodVLbdWSkcU0uyoXfBLOs0mqayngZLulrSy9hIlzD1vGA6/wlW0A74WlYBKCnzDW1nQNlLAqULuBuvuW29NsHR83/6CfSh5ZguWaFonWbgxRHp0OE4nUbbJ0ehJa+e/BIrsI961nPytbDI97Lx206GRcu8Ea89Mu8Msw0AwVwe7G19KyEK3F14a4FuhZYcVogxoHwm548DpYwq2Egd/hEWnn9TVO5SAvc4Ud6+NItBt3KUP+Y4yidU84uSXZrg4WmScPdg1btTS7qbPOVqfOa8JRwtlVsxQStmDthacbZwKcMNRGqKO4dZNbGFWjMytiyqV1Zbpi8GraM98LpQJKDRfEc4ccBpsDjwJR5068JnzRlBzH421Y+6mrKj7yp8OGfzjqmE3ev5/dNlWadwNa06K9O5evH4Ry6O/PMs9OFF12Szj7nvCyQibyBGSwVUdzSGeMOqkDS5Ftl6LA1gU2wvdLc/edOPCYaNtlkk/TEJz4xXyjcq4w89aKhvConygRNTBm4GNkz1SszsNKYZSA5W2WVVbIdqygbfuDs/K4FuhZYcVug13iAoXJq2HjErAtmwiXw9FXZs2OjLFwvPAHT5FsEGsydaKp/rq4qVTmoXBgXbV9gWkjrmXaxMu9Vf5nXFm6irSktdg1qWkmp6jHbKWnMqN0I+r62ayyembwp6SjrqdMjHn4TbOSF3wQjLfL5ToRbxLvk3rPYEeFTo0FnwLu71R2uH/zgB/PzYTB9F3DYisJUukotTqArR1ARMIEnIyxoiHjtB411+mTiNc46Phncy7qstn7f+943kIUC79Y3Gc/PfuUhhxyWrvvVDZnJ+slPTsq8A/5hYAZLA+CufSC1JKduHBUfe+yxrSuiGr4pHsSrkw0nOl8YIZbSB3WssEdnhS9wRnnbGXvvvXd6+tOfvoR1bPklLF0LsBqSkdFBV51RT+d3LdC1wIrRAuW4EU/MDIvB1rjpLlVMlsvZOdtcsRpWlqTGmGf7rm0LLPCWPubDwaOy/giTYJnQwxnLwoVx2tLIcJTj+1lQhymaKGdbNE5KSXOymyQnygZc6UceH/NhUqsdPFQxAhbDQWeW8WT1qRetJcMYOBh7DqZGPmasVhFhvgbOcPEMmFxSp9IFDU1p8vy0TeAAF2W0uecId+CBB44fACOFwyC61NpzmYRJQegZe1a3l2B6SbswZXZPAm/gC79O7xePcpPx6zomg6suO52467rKuPY3t6s/aKj9gKdaxOxS5Eu/5Zbb0s/POCude94F6aGH/hCgwzFYShEvx9UwUUH441hTyswQrn4y7rDDDksvf/nLs4gYY0WcveOOO47fBF/XW8eDwSrTIxw+O1sue454E71oeNe73pUvMPbBx+DYBNuldS3QtUDXAuV4QsoR9viMNSuttNI4w2OCLZkXiz127qhFmGBJvULNocRZhrU2m3vBkNV5rlAqF8UuuLftRoKGETGpmzSoQzBmrE4MmUneAvQNb3hDvjKMTiq9VlImZUi/+IccckhmGBhlbnLoCZrCx3yErktZhsTGYSkOrLAbLdSDYcJ4uu0CbdLUSd8X0yLOYDPJnO1SabYRzQPgpHsGDI2bNeywmGPA/MM//EN+VvMMHE6QkUQFvSWNZZgaTDCpZbr64zmkY6hCL1mbMmtkwW5nxnvm3NLBEDQmURuz/wgWvbXrRxf4QWBqvMsyHvSGv7RoifowWJdffvl4tZE+njAW0EdKPXD995JLfpHmXHV1uujiS5MLn8N5t7OIxgZxKtTZiZNrF8TwfVi23ybj4Nltt93G7x+0TecuQtIkq5BBHJtZwQzW8FZPPly2teC2+ildPI8024SsrhuYMHn0wMr8slwX7lqga4EVuwXqscEhmWCw6JQybxPO1mEwWCbq/fbbL0/GxljqEaFHGlKuKFf7JgZMVtQdPjgMVmxD2llgTock7XWve11mRNRhDjBmb7PNNlmSQipjwkHD29/+9mzkGSO1xx57ZH0tWyQUzpnQec1rXpPLlzpcZf01reKYiCYGy8RVMiakYiQ62kz9JHxvfvOb80Lf7RV77rlnvq7MwSsMi+1XisoYGM9qgqNbg1nxHLZHMS3Pf/7zM9OFYYPDj2SRpIlkyQnZYIiC/qZnwmCVErGAxWDZmg1nK1gbY17NSfE9aF/fAIdhtZVIgZ80De0U/Ol5la6JjmHyS9guvLgFSHbpJTa1b6R973vfy/1ncamUJdCnn35G+tzn9893ETLZEFJNPMbADFYgZVGdomEgicrlWwFQAmOka6KuxGcVYrUireQaA6b2yzpdAWOF2OSI4XUqEixXyJTi6sCpnDAGC7Om8cELd65rga4Fuhbo1QIxjmASOL7FnEmUk4/RoADNGTONq7b6MC4YC2MOqUs/Bov0CpMVdQZ+PqlQjG90hMBaKGNAqDtQcMcw2e4y1saEbjFJquVnHHY9F4YkGAeMIX0UcUwDSV3pYluyiSbP7ZJxrsxHa+CXZzHNHBCabR9iypx4NK5rR89DORxjBY+281wcnTJ1uK2C8jImB5y6SQnhBm8SJMWSb0sRYwNGXj/XS4IVz4EuDBX1mno+IlnD/JZtYJ7zvCRovhl0oMdNHnaFCAM8FxjMu3zvUTuV25L9aB8mv9RRDlrDHwZPE6w2bNrynSr8TXW2pVnY4G+4un5SRYy8to48vr7lLsIrfjkn/7yTaK8JMVgqD3tXuD4/lWNo6Er5oId1JcFlWfpXiOQMTlYWsRor4ZrC4DBSpYt6Ii1WEhFv8sv6rEw617VA1wJdCwzSAsYbkyEG5vWvf33eriJ5CUdHFIMFzjgTp5hsd2E2bG+VOlP1+BV4TLwkOOFKOHpLwezAaeymIG7yVgbzZEIob8gwiWNG6P9wnsHWHKbBwhqtJDeYstgiw7DQTcEE2YLDGGIWMACU8IMG+DBtTTsR6in1ZtUV+mH0mtRP4V1Ym3LGeDSA9TzqMslxmEVSo1JvtmybDDSJP0xxOT8EKuklM+Udmh/pWTGNgXnV/t6bOIbXbkpI79hiInXjMGHis2fPzhI8TLg2xiTa9iSxI9kjgcMAeCdT7bwDDGtIKaeyDT237VHbtZhcbirx92uLui72rjDDvl/vzaKCdBFvo/+Ei3IYrHPPPT8x03DBhRcvYT1hwgyWSnQeEisdlLG9WucqCAiChvWVdyExznydddbJ4mqXIHshM8XVz1jHB6UzyoU/aLkSbtCyARd+iaMLLz8tMNH3169cv/xBWqgNR1t6ibOEKcMlzPIUNvHb1rJFZfHp6i8TiR+JUdPqfdjnw8TQj8IQkWLYdiL1MHGT8gSTggEyyZuQWau2XYZxMvmb6JnhoWdqJY9BsGWGWcL4wQnGZENdwkofQ4MZ9GwmflIlE/4b3/jGvL1FwiVOtwgt4dBmzkCrcPzohZHchPM8xnzSG+lseJHcoM1kT8pHR8tCHCNiSw1TajuRzpbdFDCYsql2vk0TLmYp2juex7tAZzgCCG2KPswRHS/tiqGyVatdbdtqPwwj+um+YXxJ197ylrfkedBkD57zTuAAZ/JXp7bW5tPh0OCbmWpHSkvPGSPs+WZCn9efMFh4G9uCJJs1XRGfM2duvovw2G9/Lx115LfSaaf9fHx375hjvjn8FmEgjoau49Kb0gK+9kvYMgzOh/P4xz8+bbTRRlk0ykxDiIBLPHW5Ol7CtoWjTPg4U53CRxucdV3WgBXOIFauIiM9/BhUI177UW+dLl7nRTz8KFPHm8qWaeDLMmU4cHb+zGiBeDfhl1SFSDrSSpgyHPm1X8KU4RqujJdwTeEybZByYKJM+GW5MtyU35QWZXrlBcx0+qRDpCkkLcYVEhhSjn4S9kFp8nzqIL0wgfuRBmEASgkLqZPxzKEdzABld8yPCR2zRf2BDUOTHme7jGTB9p90zARGhu6QCdEiG/Pz4he/OE/4mArSFtuOTn1bwVPBoLRP4hLSLvSiMehFa9AczwwGPpO6OtCLEcSscJgTjByJA70yyscYWYt+bat+emXqD0lcfAfhR13D+lEe84x2zxG+cLmNBLdnw4TF89tuJWmLOcO84d1gMDCSJHCe13PYijXBe4++F5O//k4CSDrpHXDeET083xcnHy5t6Bd6emDiUESE6zj4Mo2UFZNqB8czEKaUZetwU11lGumjMp6HZBM+3xSJXOmincu06QxHfeE31VXmCc+de026/fY70yOPzM8nzntN8QAAIABJREFUCPXtWNBMSoJVV1QTU+bXeYPGvVAfYzicfi9X1umjLEV6vcrVefD4YA06flZIoXjoQze4EHPrFFZdFEUpVhrk1GnV4UM0cOkoOr8ObzVpoNFJBnHl89TwZV4ZDrimtMjr5U+0XC+cXd7EW6B8HxHmR7gNc50f8fCbypV5ZbgJNtJquDoecLVfw5XxMlyXi3gJ0xYG25RXpgW+pekvjfqb6pBmAuBMAn6YF3owpGkmPDDlJB1bh7F4dCKR1M0EjmmEwzF3zmSJIfALhjKYCmNl4M3AxV9Ja4T5GBh1GXMxLRgLdciTJk+6Z7Ct6ReTG7rRqt5ye7Koduhg0KZgGQ5Eg6SB6aVTV0o041kCfy+/rlsdwWBhboJpCsapZHiCQYq0gMcIKVdeG+NdB4MV8IE74oGvyQcTeMsFhvkak7osXNl2ZbgXLTXcaHz0yijlxI855tvDS7DqSpsrGoWq8+qyQUik1/D2fe0rO6lCwRyzo/P2c/BYnVkR9HN1nQFvJeJUj+t6rKLoLjBTYYUmHQNmtSRuD9mpGsyU1Z/9cCJzug6YLeWtNojCt9566yUUOaO+0jcoxYAW6TE4tdELLvJiNURqFis++Tqs0zE+8iYX5ZvyurSZ0QK1tGoQqvq9V/kljDAdkbIu37BvOpxB1XaM01Gl3oz8Gpc0InfbNvpH5Os/+pIFSKSBs6iSVrrINwbYygpHZcAYUdvJs91CehHPoLzxRNqydPEcJQ1NaWX+IOE2HNLLvAiHD3cZjrqa0iKvze9VJvLCb8MxaHovPBPNG6TuwB1+XaYtHVyvvMDTD6ZXfq+8QeqP8uEHTW1+DRfx8JvK1XkRr/1B6G3CP9G0qD/K1/GSnjIPP4JXaHITZrDKCpoQ98tvKtOUxiYJu1P0FoiyKbqTApWurKsMEyfHwF/CDxrGhBBtY5pe+MIX5kGcKNrxZUwXMS4GzsBuoiHFsi/uSDG9APoLFEVx8bYaiYhNWhgse7u9HHi6EJxVGLG+VWa4eE5+hCOP76gvezskb8xbxF4y5mqttdbKTFdTuRJHF16+WqDf+yy/lX6wvunVV199nDmxVe+I/lOf+tT8LWHg2fABh7np188sTvRjuidhpgCj5CSvNN87Jy3gIq2kFeNlLGA2heTCFsqLXvSinGZsIIXhbFHR3WE37y//8i9zmgVXpLkqZlm78rmmipZ+OPvlTwUdE62jqVyZVoYHobOEL8ODlJ0IzGTqsAgwV9juY1bDLohvW9hC2+I8XNQTvvQyXMM1xQeBj3K1PxVlaxx1XJ1NaTUtUx1XZ1lvWzjqlU8Y8sMf0sM7N11xxZX5RGHkD71FWFYYSGp/EJi6TFM8iLed5kMjMdp+++3/yD5JU1lpk2Gw1B3bfSYTq3XHgSkSEjfDbV+fGJzCKIbKHnXskdNVwBDpKPCwv2JlTgRq2zBOuQTtdZtRzozjop4/tkYxdCYR8ET98GgXYlvGAgOPScV+tnbbfPPNs0IpepVn64bDeVMUJVZXXlmceG3ROGjs/JnTAvGew68pa0sfBI7UE7NCn4VjR2jnnXfOYUwKZVeSWL5vsTRiWeOP+A477JAlwBYZ4fRlSr8WMOHKtPIZhPW7N73pTVnZNxYfJiH9jKIvZW1OP1h//fVzWP/Ybrvt8uJGP+D0SYxiiT9nLIU/dU5HvSXOMtz0SBOhIXCGD28ZjnrqtH7xKBd+DR/p/fwoF34TfOSF3wSzrNLMG/pSbGvqU/Gja0YdpckN+iw1HIauToO/TCvDTXW3pfUrV+dHPPw2vMsyvaQtwqV/6aWXpa8d/o10wBcPTsce+91xUo8++qj+W4SBaLzUWKApvUwrw3XZpnjA8yNMsdJg70fBnU8iNIgjVeq3sh4ET8AETXUcgxOuhCnDkV/6vfKd0jGJgSGFMhGRjmkPkwdmz6Ty5Cc/ObfLtttum7bccsuMXpnZs2dnBVASAor4GC0Knxi9OP6LMXzGM56RNthgg3zaRmEre+3WuZnZAuU3g/F2YsgCoNSRKCkv4ct0ZZuOyWNIbL/5fkhpuac97Wnjp7B8c6RWvp3nPOc5eWFBIlpuOdONCZ0c5fVX/Zaki005vlUfyarwrrvumiW0niPgpDn9xZXPQGr2pCc9KT3lKU/J233yMV3rrrtuZqT0C4yfk20cKTKJF5iQGpOKM1i8NF08Q/jqLsNTRctU4JwIjomUGeaZA3/4ZdmmtDJfeBCYukwZn2z5wFXiKcMYLOO9flymK2fXo9y1sSDW/0iFm/p9XT7q5luEWKjAF7px0ssywhF3gj/UbDBldK+cGKX2Eo6enK33fi5wNsH1ymuCn660Njra0tFx9933JvcPUnZfsADjOkqdMg6JDGRotKygDMeDNqVF3jB+iYe+UGyxYQxs1/VSDqzroYg+GQbLB0XaEwp5lNjRVNJY1zlsvAkXyZQJJiYpW6M6kwmR/ogTOzojg3u2LFkeJhWLu5TQYPIzWVkRqYM+CykbiRWFUG3zzGc+M9v7oFdjAqKzUtroGfZZOvjpbQHvsfxeMMy21+jYYR7ipBSGXz8BWzL/JDccKarvqVb8le+b8Q2QgP7pn/5pZqac1ApHD5Ik1mo7lKVtuxlIwll5k56GZAsN8tHju2VF2/ZenAYmwarTPAvmy/dqQWGLhP4WyZV+KRxStTDoSBcMA2eL0TOqzwkz/cflyk5ycaTDYJeVK9/hVNHQhLMpbdD66rJ1fKJ42srV+Ot4W7mlkT7VtDTho9hOulsquHs2sBYNlNXDkSJbcJPUUgw39tt50OeYwtCfjPEYKGor5lAOc/TsZz8771BYSB111FF5J8YCiB6jPsMkATMcTGjYmjTHWLjHqVIMGr1JfhzuQhtpN2my3Q90Lc+ufj91vH62e+/9dWLJ3YE8jKvFa7gJ62AFgqnw4wHCh9Nkb7D3sqUjXJyyez0xlDSUOHyIpZG+Em6QsI+WAjsO3oCPm7cyJjXAuLEnQydEHSYOyrolQ1fSMkh9AWMb0rZGOMxPbKV4fhIoNJigbEVakeucJk0ODSRRthjpzXAmTfotOpBOR6dGeR2Ro5SvfZf3zpEfZgX5o8vELpD3TbqJmfCN+h59Q5hoTLU0A69v2VaDhUJ8K2VT+ZYYw7QluMkmm+Tj+Bj60IXCpJNgWbGGY48IU0NqVTq0hdHEMt1dfI5jc9E/pFkVh5NO6mRQJxkzgXg+9XCYM/Sp2/fMKQMvpix0rvQJzBazAphAThqTLxYenetaYKa0QBODFf2D6gnmKJxFtfFfvn5Bqmuh5RCK/mo+MGfpU/qyBRFn7sIIOZAlza4HeP3DQgaDBN6OiX5jEeKQlrD5WH3q4JuXLbwseOg7knora54KiVfQ+1j3jX0XX3xp+vo3jspX5Zx66unjksWhdbCWRmOxuWGyt9IkDuW8VEyMdC9dvJeTbwAexFJ7jSdws1NCH0UjMe6Gcw+jeiatOF2Im7ctYWutXMnXeAeNmyhtn5BQeAaT4dprr50nGBOF1buPP7YOMUo6TuhsmUhJpziSATZvSOKccoSTb0VPIshiLecZbBd2bua2QHyXQaELam0VOF1KSmRFGttqBkzG+9gwMvj6Vn1X3rkBG7NduxI/A78cPC4g9g1uscUWeatZPQz/WmDYmsPMRdnwMWUhWbJAiAnAYE33zzfpWzRgY7Ck6e+RZmEQ9n3QYXWuflt+JobYxjYe+J71CwO8Vbi+QyprG9BERPILLtIwbJ3rWmAmtUAwWDVN+hNpk8WKsB9mx8JKvyN52mWXXfL85Fu324LBohZCncSiyKJZOX1L/2HQFHOkHMO3hBdwknxZeCjr4AhGzvhhbonr4cw5+pE5yHyDuTLfmA/NIRZ0pVPviuJuv+OudP8Dv82Sw9Gt25HMOwy0Rbg0GykGRFyybQuiSmK32MKoL+EM2ibzMpvKmrQwOAZ/H6QVPuaOpIpYlYg0uH8DvnT75eGacEZeL9+Wj9W4yROTZ9IwKegwVuw4ZisXkggrfFsxmKzYApFnhaJ+L5rEy6So81jBk0A4lWjrhPgYExtbTUFz+L3o7PKWTgu0vQuDn74h3yBsIKUb4fvBGJFa+V6k+44xWLFNaJDkatzivgeDdThMG8bIgQ75+oMFhW1shz/ClbhCsiTPoG/ANrCHs60gLfQBlTXQO60bcIEvfOlWzPEMcFkxYwZNKuEwj7YyY2tEurSXvvSl49d4Bc4oMxk/cIU/GVxd2RWzBaieUIPxzdKX9Y3HT3q5RaiF7Jzo47YBMU36vLkAo4aRMrbbWjQn2boyDxBQcOYJ85gy9B7NHyRQYfjUdrxDVYQL5jnzSYwHysIPhiSZRNz4gmZMF4ZrRXP33HNfVmw/7ns/Skce5R7L88abYEZsEY5TUwz4VsdWnfXPXYSlcbKybB2e7IDnw/ORmnB87PaXbRVibIhTMX0+Xh+dD8wHaaITlu9XhiOtnx+6V57Hdig6yr15+jX0UEx40mO7w8QHd2zh6AQlLvnypAU+q39tbALFyCkTNPPF+9Hb5Y++66XdDr47J+jU6z35+TboZWD0fTvSfL+2uzFjBmRhzJcBtXy/8d5D+RVegyinL/l+wMc35Rv0K58bDnVjvNQjz7cWyrjoA6MPl2ngfM8mGg5cide3Gf1ZWXlokRZlwEgPJ128NG8irXzmso5hw57DIky7dK5rgcm2gH7le/IdRl8UJsnVN8JFPwg/0vnSbNGVC5zIb4KPvCgb8YANP9JLv86zjUk6XqeXZR6rYc/ssmf3EXp3MSYNrOS+LBoGc4PLxj3j1oMDny5a4sMI38QQphZMOiYb0jUdweRmQKfoK2wlYGvT4B0rD77GLuNN4RJGGI6oN/LKtCYcUVdpRyXCygpHHKw0tBMRW3XwPVvgjnrDj/TOX7yyXNptEe8i/GCw0OF9YmjivQazASbyfMPK+mG+4hvr9xwGeTii3qgvygdO31fkRV3i0oPZAhtwkVbWH2kBE37gLeuUhy7PKByw6A045YI+uMv6y3onElafBVbHYE3XiLxi4I35pn7aSA+/zq/jNVzEw6/h2+IBH34J15Qmvy29LPtYDVPRIHm8cs7cdNkVl2chS7QH1YYZsUUYBIVfv4xID7/Or+Pg7FHbdhjGteGv0+t4XUe//BK+F2xTXqSFX+JqCg8KV5adSJmyfBee+haId1L7UVNbeuT38qNsL5heeXX5Oh5lm9LLtDIcZUq/Kb9MK8NRLtL4Ea7zIj6sX+KscQ+Lq4PvWiBaoP6W6njADeu34WlLhz/ywo8663ikr2j+gw8+lH7xi8vTLy67Il108aX5XsJogxm1RVi+sKZwpA26Rei0nP3rQV3gB1+Ghy0/mbJtdQ2Csw2mTI9w+G31dekzpwXiXYWPsgiHH9TW8UgfxFc2yoffq65BcAZMia/EWeb3gylhIxx+XbZOr/PreMAP6k+2/KD1dHBdC0QL9PvmyvwIhx84wi/Ty3Dk9/Kb4JvSeuF4LOXZ+clboymlhx+Zn1WHqE5wM/IUYbwsCtlOEzlpREn31FNPzdfMULprc1FW/jB2sMpyEQ6/ra5IHxQu4KfTD1rCj7rquPSmtIAfJL+E7cJLrwX6vbc2Supydbwu1y+/hhePMuE3wfRLayvblt4PX5k/FThKfF24a4HHWgs09ZGmtMfac0/0eR5+eF6+1HmfT382ffwT++QrcwLXwBKssoHLcCCaDp8hwVLJ3fHrxz3uceOKt2WdTTRN5qqcEvfSDDc9h/rb0pcmbV1dXQt0LTB8C+i7DqK09WES+TIvFJrLtLZawQwCV5bvBd8rr8TRLzwRPMOUcQiCTl3t6OPFAR55dA3pyNW423ZBtH0cvojDQnUd4jW+JpgubcVoAd/cGWecle6+5770q+tvTFdeNWf8+5gWCZaPL34TaeL4eCnKsvOBSErYFMlCoTRgwo96yjjTCaXhz4CZaX5J80yjrYme5Y3epmfo0roWmI4W0Deif4Rv7GIfiF0wWwcYAOMY20YO8jjNSWGeHaLvfve7OY0pFj9jIDzCypr0KdViMOKgAhMs8uFlj8iRfjBOj/Id33csX3k/h3QwGCaGcBhANAQzIl9ZdfPlO82M+VAvRsShIzcIqLvJKQefE1XRFuDYJnTdktPY0tHEd+jGoQVOXehTrzo9t0NETsI6pcpUD4O6yvk5pMA2ILtPDjmgic9+W5gSQXNY2YbDiT11KM/Z5mG53Gk45R2UUD9FZbSiIWDBl+GMoPub9haYrjbvh7dXvn52+eW/THfccVe68cab88GXgJ8WBmuirRxEKR9hhj2ZZmDY8FnPelZaffXVc0coYZrqU55xNKYTlncXbVE+R6SFX+ZNZ7isrwxPZ50d7q4FlrcWKPsG9QaW6dmqw+iwNs9+npsm3vve92aL9Y5zu56EfTGqDcY9ty8wAMmUCsbLZM+YI0bCDQxh7JjNL7aJGIhkm49NI3FXZynDWjcbaPLgZvOO7SQLVla9GXpFlwNBDgbRXWUmBxzmD5OnnLqpazADwOCkfHbI3EOHiYwbBahyMGnDMDNGCgPIiKwrvsBhzFy87dngZagSc4kxZO+PMVx5hx56aKaDzTY3T7D9xIAtJgu9aGdHjQ00TBQ7ZxbV2krbOkkLhx+7f+hnt0nband1MmfgdgL245Rzk4H2Y2MODWwxaj80sKWGaezcsm+Bsn9NBzUl/jLcVBfG/corr0pz5sxNLn3GaHHKTYjBigrDb6q0V14TfFuazm+gMSDpeFYuVm/hynrKsHydN+5nC/iZ6te0N9FZw9TxpjLDptU4Ix5+4LPq7FzXAl0L9G8BjA/GwWLPJO9aKpO8H+OMJnaMC51TDASr+xaHmBhMijwTPmbJNUCuDMIgmfwxGJghYyQpDgkNBsHNE0zbcKRncElXRllW75m/UZ+7TJmbIMHBjLjmiJFjho1J2Zi2wEy5OQC8MRgM5gkeUiKSOAwaKR3GhXQIo4UuzE5YDveMGB+W/OnSelZMJYYMvSRimB+MEljMGGbRc2MQzQEkcqRMmDU6uhgsdt2CPm2nXUnhPKtdkNmzZ2c6tQeaMWueg3TKHKOM53TFmHbSXp7RHIKxYsoGDjTVY2H/L6CDmGwLlG1ehieLd7Ll0UJKi7G6/noW9y9Iv/zlnHG0E2KwxkuPBYhTp3rCNSDpWO4ce8973pMZLANSzWAFLU2Njq62vfYoN5P8pmco6euXX8JONjxoXYPCTZaernzXAjO1Bfr1AVtLsQ1mPLJANDZZ+dpe4DBHdIqkyzdoc7bXhENyIkzKhBnC/GA2OAyHejinmkidwtlas/2mrPrBKeeqE1txUY4tP0wcWjFBwhzGiT6rNA5utKsHzbYcm9pAvu1EzxB6TeF77miXSMPgwCUPrZEOLp4f/ehSX/zQZDtPXbbyhKNO24TxfJHG59Aez6Qd4NNOnh8d6BeWpgz82kha55Z+C5TvW3iqXRNO/THSw6/rBUMHy12EXz3ksHTuueePgwzMYAXy8H2cVhM6qUtZrQrErV64gBuvaciAu8UouLuY1dag+9Ce9rSnpdVWWy1/5IGurqeOB9zy4vejv1/+dDznsqhzOp6jw9m1wHS1wPLSR0o6y/Cw7dJUNtLCHxbnMPBRR/jDlB0UdjpxD0pDB7e4BeJ9hC+nDC+GnFwIo28LmmQYb0MairepryuKWiw4Djr4K+l/Dj8inX3OecmdhOGGYrDiYax+XABpj5po12rDSsCdRES/xNDhokzE+/kBX/pWS7hEq4xYAbbhiXJt+TM93eqNsqmVWHkaJujWBu52m+rnhM+qmIg+rlkYpI5YHQZ9nd+1QNcCoy2gb7hM3Zho+8p2WfmLNPpBEa79gI90cVt+4iT74mU44lGu9sGqDw5bcSVe4YiXNKmnhi3xBs4yTfkyLhw4y7yorw2H9IAJfIEn4qUvz7OVME24yzJ1uK5PflNaWUeNo4sv+a1Ptj1sq9ODG2ROmsz4Q1pry9pOWdzS4CCE7X16gLaUa4cnueUWV8rdnq6++tos8QyYgRmsKIDZsXVH0bDJEZ9SCjzxxBObsnumNTWePXrmGcJcAyV3YQ3ez5GmxamRfrDLOt+zE4Ovv/76+RJcOg+UQl3aTEE1nDipXlNbBcxEfCLwVVddNetdbLnllvkd13jKOonL3/72ty837Vs/SxfvWmC6W0B/MSnQZwqlc3pLTT8K6XSt/ITbYOBpyivTesEEHb1g4Aoawi/TyromGu5Xfy+8aGoqH8/Wj9bymXrV05RX1tGU36U1f9+TaRfvC4NPkjSdjiQKI9jGM5gj8R3HH3/8EvOvhdQVV1yZtwl/9rPTljiZOjSDRRmQ5KqXs39NQbLUA+gFL6+cvEtYCp0emtQGF7nWWmvl0yPSnYJpKyfdkd2JMHpl/XW4rb4abiJxp3Be+MIXZp0BipYYLEqexJOcunHWr3nNa8bR0w8IR9ETt63d3ZsIHkNMMsWxak9vgyufQ5hCqhvYOSeUbMty8JWGXUm41EOiSE8u8ITuBumb9+IYdOe6FuhaYMkWiP6yZOrEYlOBaypwTIz6rlTXAjOrBfA2DlpEnwi/pJKJERJpO0nhfnnlVWnf/T6bTjv9jHTSyT9L3/veDyJruFOElA7/5V/+ZaDJ09HiYZmb8oEi/OxnPzvtsMMOmVkibn/GM56R9b223377cZsp408zFoiyEzE0GmVrnOK98sr8gAu/CZe0WlnSFuub3vSmzLg41k3J0qkdR4jhsgrYYostMgeNsXKk+OUvf3nOI9liysKJnoMPPjifnBF2RJo0DHO6++67Z3inY8BTpnUKifO+vFv1OPXz1re+NYfpwq200kqZqXKKBwwmC6Pnx9G/22mnnfKJTUelSRidxulc1wJdC4y2AEVz0njSrFCsLtuGfofTbE7b6eex9d40hjSlBa46r44HXOm3wbSll2W7cNcCj4UWsM1nbgs7bPUzlX3B/EeFJ5x5lOmSSy75RbrmmuuynbeAZ35loMueFUAEuydxCiOQhB8Vijt6jDEY1pW4hNk3wUSst956+UQhxsCxW8dsuRq+rM8R28kaGi3xl7jbwjV8HY9yZbqwHzs49fbnuuuum9vRMWHbB44KX3zxxVmE7+gy8alTM8oZvEmffvzjH+cjxrYSSRJJwXDebNHQp8Cpk4ppQwM6x8BeiGAxV2z2wK3twT/nOc/JUi00wgXGUWrvGB32reF729veljl824ed61qga4HRFrDqJXkmVSdRLvs/COn6GMmzvkzSzCQACTLmLHRQmUOQTkJMTSNO+unjtu05JwpJko2dtvub7mM1SdArwvRZrDmhzWwDqTRbURzd2tqVdJfhGq6Ldy2wPLWAXbdSFacX7XZ0mF5pc2W/GGiLsCyAy9OBm1wJp+MipExrKtOWhiskMWsqL60tvcQ3jAQr8NW4MRoGxlD8LvGX4SgvrQyXML3Cyvz1X/91ZohIsSjYcRgV0iC2WDgSJcwWaRcGB6zBEiOFsXK60yC54447JtI/A6xB2bauNFItdcFj0NfOHEbKYI0hVR8mDnMHpz1p234kW6Rhz3/+8zMjZaVNqsXmDWaOtM0gjS4SOG4ibZELdn9dCzyGWkD/sv3fpl5hINZfLWoY4WS/adddd80LH5It464xAPNlMcM4Jmnxa1/72rzoeu5zn5snCMZHN9xwwyytpi/i5LW0cNEfd9ttt2wryxjA1paxYa+99sq6LhguRjzVjy6LKvYEGR3lAkfg7PyuBZbnFvA9+5nbQp2m1/MQ8LTBsR4BV+xODcRglZURedlOCld3NnEnC0lEQtIVsMP4z3zmM/MWI4NvBpVS0R3DwNV1l/jlDcNg1fiUtwo04LmSwSCE2bAthtkg7bEVJx3cfvvtl33SHUwZuzYM4GGEpGF84Gly6vLznFalGFNhgyyueuutt85MnsGUXTDbeqxB05OSTwEQY0NCddlll+WB0cBpAHbShbQJI7b22mtnGzpogB+DxNHZWnnlldNf/dVfZYbMx0M5l56bwdmpUCJQFqm1h+cC+4IXvCCxIg03KRYJmi1JccqgnetaoGuB0Rag5uDIN3MzJOucPh/OQMwEjT5PIs2aulNLmB7+mmuumfvzKquskvuYfItYjJW+HMyRSQK8MYLFd2NC1BX1YZQsyPRRizELIzj23HPPvN0PnrQcPdQy6MBisNDVua4FHqst4IQg8wzhor+EL50AwtzKRTrJse3Byy67IhsaPfPMszODJX9oBgtinS4GiVxTURnmx7YTK7sTcUG0LUYdmoicSJzmPimSk4EeKOCa6oi8ySq5M0eBieLoTXhuzA+mwiAmD2NjtYerdWWEFar8OFbKAjPJD6kQxoQL+nJk7I9JBoNr6GcY9AyO2tNLsmKF39YBfSoM3lZbbZWlRZg8bY654dDF3ANmkCTKYImZMpgShWJ8d9lllyyZQgtjfAZXz4Q55mw5MMVh5ay90UYqFXXYqrUFgU6DNUaP8rutC4xkG4efkXd/XQusYC1g8UGabJFjoVI7qhd0HcM54EItgrQYc0NCbAzYeeed80IGI2WRs+mmm2a9VAyYccjilzQKnD7pUFB9tBxjRZpmkebENwaKRBuO2NrHsD31qU/NupXGstCnjbEr/KC387sWWN5bwLwYajb19y3uoB1hhTk5JFSema40QcqFF16cnCKkNhNGcodmsFREhGzSxjiYcE3GJlW6OggkUq4JnGjjYxSs/GxFYT6cditdr3oMZKRHg7oaF30IEhvbapgdzBLmxuCEicFM2MqzmqT7ZIDDBFE+J15nU8P2ncHJgOdF9HJl/WVYmTKOyaInYcB1NcWgDg4M0RprrJGlbCXO8oOp62vCryxmzPsgJSPlKvE1lenSuhZYEVsg+gWdJ2NjkzNWxGJOvr7FiLM0i68NNtggM0/GEos8i05jrkWnxYxxCiPGSKJdBr8bb7wSeANGAAAgAElEQVQxX30Th1GCDnAYNPidMoZT/fSwQl+LtXgThYWcRaSJIsaIwBN+0/N0aV0LLI8tYM4nSHFwy9yNt7F7g7chbDDvNn33IYzm012MQypDM1jRaCoxuTInYNKmH6CD6rATdU2EMx1gFUbvgKSGKBu3OKhrwjloWXD0zYjaMXe23zCUpHO4WfpLnlcjWgmSthngghFzrQJYTJgtt0FdSXMZVl7coGfLIazmD4oXnMGWtGoqHCkWOnwDnetaoGuBybdA3d9hdCTcytnYMp2uqe7prK/D3bXATG0BixcCJHwNNSXzfpvK04MPPpRsC55wwk/ST35yUrr99jvHH+tbRx8z2CnC8RJLMaDD2wZzASmJme2u7bbbLkuKepExVQOF0zsUvG2r0VuwUowLVYWdJHC8mnTN3iz9KT/MWJziwWBhwDBFuGErz8n+4LR9STo3LE5SN/pgVqyTpUObOK6qjUjSJotvcuXPzfVrjyXb5Mxxus465+x01tmjcGefLT3Ck38nk6O9q395br/Hkm7SVI2d5fjchLMprSzTKzyZsr3wRt6w+IeBHwY26On8md0CdLK/+tVD05Vz5qYzzzon/eSnJ09egjWdj1x+hLbeKGCTXPlRvCTG40q4oCfS+MR0IdaO/GF8onlblJTAe/1Isawy22DkoSdwkWxFuK1Mr3Sn/YghMX5w9YKNvIBTxlZlxCO/l4/WEj7icKEDPWV+L1zTkffrX4/Vf/9oW/z6vnvSr++9P91/32/Tvfd6fy6Q1eYPpPvuu6dqrzre+11PB/0dzuW7zUujg+X4EmNRmdaFe7dA2WZluC7VL69Xfo1LvIav43WZfvk1fFMdTTCDpk2k/kFxd3DDtYBtQQruP/jBj7IU6847R/kTWCa8RTgcCb2he30s9ANsRTIFQHrUCzZqCRjbYaQZU+0CP7xluK5nonk1nrZ4L/xtZer0yeCIsuHDXYbrupZW3NmsRWkk5X3xRW6+H/2NBuWKhyvDkdb5XQt0LTCVLRDjQulHOOqp45Fe+gETvrwIhx/wdTzSa78Jrl9aU35JS11HU14bjqayXdrMbYFe73FGMFh105UEb7vttlmZ2z19Voq23xg8DZjwaxzilDidbBvGwdeEczJp6i/Lt4WHpXMYeLClNK+kYVA8EykzKO7JwC1atDAXD18EcxWM1pK4MV5jmTJGFh+VXxKui3UtMHwLzNQ+MvyTjJaYyucJXOGrIcLh13Q2pTel1eWa4sOUq2EjHn5Je9QVebUf+eFHfsQH8ZvKNKU14QLXBtuW3oSnS2trgdFFerQlo8Cjc+1IOuaYb85cHSyPM3v27PHtwbCFVZqpBxMPFn40w1RYcg9cUU9dR50f8Sa4Oq2OR9l+flmuDPcrF/kTKRNlS7/EU4ZLmKUXHhnlqPL3sDCde+Z16ajDLkxf/ewZ6dADzknf/t+L0vXX3DUq1UoLFpPV8VeL26ILdS0wNp4ujf4cdfTzJ/JSAudEykaZEkeEaz9g2/yAj/yIhy89wuEHbPh1eh0PuEH8yZQdBP+KCEPl5vTTz0hnn3NevouQovvChaMTy4yRYMWLD58SOV0fCt1OJ/q5iNGR4X5XOMRLHtbQaJTjBx1lWhnulz8IjhLfoOGoN/xhyw0K3wbXr95++W14J5VeSKvuveu36f1vOy5t+sSPpGf+yYfSarP+La0969/Teo/7SNpuzf9OX/kMG0Rj24dLbBVOioKucNcCXQsM0AJMPxiXezmntcHYqQjHrhAjkK74itNcxhr6i3HdD9hy/LHrwTlt7SASZeS4WqiGzYApZRtHbAbSKQ1c4VM5cZIzjuA7adZ0glo9Dv7YPWG/kXpL6Rw0CnuDkW5+q13UG+l1PNI7f9m2gMNwlNvPO//C9LNTT8+/2C2aMQyWJooPiM9KeXx0jHSGvaeAaWtS+QEzGQYr8AeupnjkhV8/Q5Sp/RK+zmuLT6RMGy7pk8U3SPlBYHrROHjeqIj2jlt+l1688WfTRk/8aHresz6dXrbFAemf3n5s+j+7H552etan0wvX+0x61qwPpH+efeyYtKvTvxq8jTvIFaUFot+GPxXPHbjYA3TrgxsiGEBl3sbVWo7BO2nNxp+DTa973evyiWx2BdkeYufLXY2OzbPVxeYgdREnOB1+csLc4pvtQ7YKGUZ2owTGzDwChqkcdsjY7GNShwPr5o0jjzwyL+b333//bJTZKW3zh10QMMKrrrpqtpFkV4XJIIaZPYMbPtDPfBDat99++3y6nHkf9bJJhrFk6JnDQGoHhpoxaW7i0Cbox8Q5ne2EOjM4TopH2ylbhjOyCfwFjvAngKIrUrVAMFSSfZczdoswXrrORIeKtMq1OQx/CbMqXj5M+ZxRNtJYTq8Nk0Ze7ddl6/zlPV4+XxmeyueaLryD0DiyYGH6/158WNp4lY+kF6z3ufS2V3wt3XHT/eMK7d/48rnpuU//RHrFVgemdf/kw+ngfQe3pTZI/R1M1wJlCyzLvlDSMWyY1MfNDnGLBpMuk/2FxActbrlgjJqVeQab3b+KIVlnnXUyM8K4I5Mdxm7W7TEorv1hpBUcBok0SjrJgV0N8wN7iSRZbtSASx3S1I1xAe8+SMYin/CEJ2Tj0N7Rq171qpwn3yEqNgwxTBi53XffPdEBhseVRCzbK+tCe0wXS/gkaKztK+/OWtb3hbUhGGGmhjBurh4j3UK3NPQ8/vGPzyfjMVyej3V+1vQ33njjbFy2nL9I7ryL2267bfydYBQn+n5I48ynnZtcC/zud79P559/YT5B+NOfnpxuvXXxlVIzSoLlMWNgWn/99Ze4f9CH2qaD1dY8VgysFk/WBU2TxTNo+ab6mtIGxVfCteFpS1e2V94guEuYCPfC2Ssvyi/pj6QfHfvLtN6ffDC9ctsvpnX+5D/SGT+5Niu5v2qbL6ZvHHhWDr/lZYen56+7X3rRc/ZNO665T/r1nb/P6Uvi6mJdC0xfCwzybfeC6ZWH6sgPf9gncQ2ILTWqGZiBtl9Tfp1GV1b5uDYELaRU++67b5b8uA6NxXjX+wjbbiOxUc4WGloYeySxwvjIx4CxXu96HzCYJ0yV2zbAsHJPuhWSKnYJzQHy1QPeFWokXJhJkjTMHmPZHHrdTCEuTCKlvO1JEquPfexjWRKFSUILqRhmzHVCJGXqZRQb04M+TKK6SebQRRqHQcIMkn6x1O9HmOBGEDs1aGL3EUx5Ch69pFt+aCvbW1tJK39NaZGvLAkaSR1zRBNxw3xjw8BOhJZlWca288kn/ywdesjX0v8ecVS6/PJfjpMz4xisoMzHay+c+NTH/oEPfCC95z3vyXEiuHDx4vgRjjynDst9/EifiF/jhqMpbSK4+5VpqqdMK8Mlrjq9X7ws2ytc4ylh5TXlD5pW4ho4vCild/3lN9MWq+6d9tz2oCzB+th7fpi+su/padasv07v3uvofFrw/73xqLTDmvulV259QNp4lY+lH3zzsoGr6AC7FphsCzT1gRpnW/9pgqvT+sVr3CU9ER7UWnzAR511PNKH9QNP+HV5Y3roYDWN7VEu/CaYwFnvhNTxwBHwZbwMN+VLa4IJ2EHyB4UpcZbhQerH7JVSrH5lSvxN4abyTWlNZZfXNDtrGOM5c+amCy64KF133fX5UTz3jGOw+r2MMj/C4ZcvqCmtzB8m3AtXr7xh6ugHG/WE3wQfeeE3wdRpw8CWZfuV65df4moKD1P+/nsfTH+xxQFp142/kF65zcHpdTt+NW3ztE+kTZ6yd/raF89ND/1uXvrRNy9L26zxybT7VgemV213YNroiXunT/3bCeNbiE00dGldC0xFCwzyLYOx3UTCYtJrKiNNXtxpWsPU8ZL2Oq8t7gYKx8ybXJRp83uVacqr0wJvnV7GS5hhw214yvQ6XNYhr47X8BHvB9cvf1A8Adfm96un1/vuhTPw8iNcwtdpdTxg29Ijf3nwMfyYql/96oY0d+41acYZGq0bsa3R29KjfOTXfuTPVB+9QTMahUuxej+6o2yJJ9J6lR0Epld5K74mHE1pNZ4apoy3hWscEb/1xvvTSzb6QnrJJp9Le2xzYNpz+y+lndb7dNptqy+mO297IIPt//GfpY1X+a/0qu0OyjCbP+nj6UN///2OwYpG7Pxl0gLlt27bynYShWu3VTjJxsWF9VbKFKwxYSFpooPjtPVUOQxceZ9sSV/U0ZQWefzID79MK+H6hcvybbBgAi78gK3j0pvSyvS2/GFhgobJ+EFL+DWutvSAi/w2H5z3Hacto9ygfuCt4WtJYJ3fVq6GW17iF154cTrqqKPT8cefkL7znePSqaeenqWsnnPGSbDqRnUqJIyF2iK0j97kypcWYfveLlpeXhy6DZiUP3faaae8R492V9JQiNx6662zzgI4ugbiFCydSuGsgHfbbbecbh8fnNUovQE6A5zTMHQQHBUuHS7cjeFxuibaEEwZjvj73//+tMkmm2SFTGnloFzircM1rigX6bVfl2+KP/zogvSa538l61ftsc0Bac9tD0wv32r/tMsGX0jrzfpw+u9/PzHrWv3d67+edlp730Qva4OVPpoO/PRZ47azmvB2aV0LTGcLxLeuDmH6OdQi6EA5dUZnx5hHZ+kjH/lI1u+hLkHhmy6TE3j0guLIf42vF+0lbMBJMzk2TZBt8EF74Gjz6/J1vMbTlN+GO9KbyjSlBfxU+v3q6Zc/LC1N+CItfDgjHH5Zj7S2913C9Qo34Q34Oi/itR/wg/pRflD46YZzoOGBB36bqxkZSXmuDQEJPbtZjpPOBNfUcJtuumlWMDTIUHR3kgNz0eZKHBQkHYOd6S5oJvp/xjOekZUdKejvuOOOmfSXvexlaZ999sknUZw0ueCCC/LpEwPym9/85jzgAnQRNibJCZy11lorl2WDxYkUjg2ZP//zP09/93d/t8TxX/VjwN797nfnk5pBT/jKRphv0H/Xu96VB3Y4pVl9U+688cYbc12D/Oncr3/96/Npm166Ev1xjaR9/+2ktMETPpJevd3BaZNVP5a+f9Qv0g1z70yPm/V/0yue+6XMYH3qfcenLZ/yyfSK5x6UNvnzvdNF59zcH3UH0bXAUmgBisYWSqRX+qtj/07LMVFDAXyjjTbKTBfd1M033zyfdNt1113zWFGTF3010ut4pPMjL/wyL8KRF36kN/m9YPoxbr3KqqspvymthK3z63jTM9RpTWWa0qJcr7yA4ddwdbyEjfAgME24o3z4/fDU+VMRL3GU4aBpGH+y5YepaxjYoGv0VpEZZMk9CKsfhn0QqzrMFcaCJAezxdVl6vhU2MFqqqctLRM1wT+02xZwWkXYVgDx4uGHH55e/epXZ6xOs2C6+JgrjqSLUVb2YhzvVZbUz1Flzh67Y86kW2zL4Kitjjn2WRxbtmJ2msSPw7RhoBxxZn/mjW98Y2ag5DlC7V2gVT0cWkizdtlll4wLA+ydsS/DsUdjpc2RKnqHDPA5So0RtC1CklW/vzqeEbT83XjdPZnB2nnDz6UNV/5IOvqrF+X7CA8/4Jx0502/Sb/7zbz0ko0/m3bb4vNp4yd/LO2181fSo/MWZJgWlF1y1wJT0gKkyJdeemnug04c6Yu+dye6SJL1MyteJgeckHNyTT/Tj5yCc5LMQoYirfEgbC8ZK4wFg7qyP5XhKB9pthz1U+OBk2YYPz9p8gIuytW+/IAJP2DqeKSX/iAwAQ/WqboLL7xwnE60am+2pMqF27B4o47ShyPwhB/5/eLgfAtojRN84XvHTh6WOMpw1MFvS++XV+f3whP12QHy3rVpfAva1lxMIFDiKMNRvk6r4wHXy59ImV74piPvnnvuyWjtAMVukYQZv0VosDGhG2A49kiI5AZxU8VgOX4bkhmrMB8bRzfCHvZUufiQSIhIrTj2wAy6nOPEz3ve88Y/ahIrDBCHUfHRc05cYnY4uhq2FTBJVr9ox4g5FszGi6PAnsFxYlIo24eOHL/zne9M++23X1pzzTWzPRZMEvpMCmj413/91yx92muvvTKDxT6MDwvMi170ovzO3vrWt+atjWc/+9nZsB5pIrrWWGONLJF75StfmQ3sZUIn8Td6KcFI+t8Dz0rrzPqPvA2426b7p28eckG6/eYH0qUX3JRm7/m/afu19klbr/aptOWqn0rXX+Uk6khnpmES7d4VHawFbOEZs0iXDbisfJP2YlZcZh+6VgxVguH0JcyYSY1NKmHjWZg+sMDR14xB8Ju4mQiA77e//W3Oc9qasUoTovJg2sbOGHvUrQ6TKum3cc9P2EJMXumCvjItwk6nYSbDUXVAx0Rd0Fj62oGkTzsErXxtbIFnvOIwWsY+6ZjWcJgEum3h4A6mzGTJnMGwLuhrKocetq3qtsVgef+1K2kt86IOz69dS+f5294zONLS2MIqy5Vh+MFRNUFDfAPh0wP0jZTOQh89TS7atMzDvPm2+zmLkSbpZ79ySyv/+utvTCf+5KR0zbW/Sof9z9eyRXdbhdy0MVjxAQzykL1gddB4kcTmw2z5TQWDZUBYbbXVcif2LKwAs1titYER8qFZafpQDD4GSz8fm4/coBTcbbRFPG/4kc63XUsqxflYX/CCF4xnv/SlL83bacqBoQfFqR8TE44eloGW0/kYsQuGjcE77YjpwhzJw2xZGZNasenCYbRImEgLdTISqXBBt8GC8TwD+h577JE7pIGOsTzHqbXHyiuvnHXADLZ0RtSHaeYwaegw8MfR66hjYv5IOujTp6ctVvtkWmfWf6b1Zn00bf7kvdMmK300bbLyh9NGK+2dLb1fdOaNeKvs4lkmVt+KU2qi7TTRco+Flo1nN6lzxgp9DHMV0mZjW4wPxhb9VB/VH9l/eu1rX5snZBOMrX36V/pi2C8yBumnJFnGGmXBsQ1FUv2P//iP6R3veEfuz/LUe9FFF/VsXpN/6EaWgNLkcZ7NuGOBZ8wqF5rx3J7LOBhO2dDxjDS+idwk3m/SL8tE2Djc9jzGn2CQQgWCoVNtE4tRdAczgm7GQalYcOxhGcuk1Y7UrGQe45lruDpufGwyM4QBIXELZ0ykZ8d4qe+myWHKPvjBD2aJGCYaDb4D47qxFY4m9/GPf3z8+cv8+hm8l5h76zzvsqRXO9ul8C3WDJ86LN4xuPBob7rU+oLvnLQ2+khJT4Qt9LV3GKytaQm4yfrD4g34W265Lf3gBz9KJ5x4cppz1dXZDlYwhEcf/a3BdLACWdtDRH74bXDDpodiN/E5SRbpR7mKqusr465gOOOMM4atcgl4L9cgZ5XkA8FwwMuImxUSqRIDcVaeGB6rENcrkHoxfGcwBVvSpYI6Lo3e1YYbbpgHGlc/kDixJswZNG0VKkfCBC+nY4Hbcsstcx6pEcvDXNSh3XQqToel52HAcXoEHtIrHZL+l0HZT8e1hYgmFouDwcKMGSAMCCwoe1Yfv4EIc2YbkgSNs/V36KGH5glC/aRlVu3aCfMIJ8bMNqXBNejNhYf+C45pYbrq0lvTe99+dPqLLfZPO2/y2bQz8w3bH5w+85GT08O/nz9WT9xHWFz8PHSdM7tAW3u2pcfTtOW3pbeV6wcf5R6Lfjw73+TBSjjnCjB6VZFvcrEYsSgzhhhf9CX9hvTJ1SkmePm2COXpgwx0YixMwiY3fdZCyCRHWo1JOOGEE7Lkn7V0ixuMBcV517xE/U1tj96mrUA0mFijLImZxZKtSj6jm8ZITI9xEcNHWqPvG0swUZgCkyqajXHGDIyfcaiXNCPqrOnFsMHZ5GzFYfCirPqNdRxDntqWRAazinY/Kil0dznjk4Wmsdw8ou0wB8rShSWB9169n5CU5YLFn7qjfsmkjcGkikceZg3DEnHfBQbERO0ZjZFo19bGfM9mPkCjW07o4xlDMbzmJcyVejC/YAkFHHbS9ph4bRF1FeQukYbBQge/pFXYmO/9hdM22oFAwneKsfed+aZ9h9pWe9kS907oGWLQOd+GRYDn981gxuA2X/jGzEEMy2KKg+baDzqm2o962vBG/mWXXZFuu/3OdO99948vmOLZBlZyD2RtlUX6oHABX/pRNnzcuEEEk+AFUor2QTW5KBM+xfBhJF5RLnD7WFylYGVpIIDPQCJMtwnTR1/JKki6j4o+kkHFoCGN4jgl1dLV9cgjwXn605+edZkwHU4HYmRIsEinfIBE2QYEbaGTgFGnAXrdddfNHy3mi0QpnAFhlVVWGV8huOZB5yDlMkjQ3bLikG7gxjQZoInOdQqMJR2uOJVoVffEJz4xd2gDNuf5Hve4x2XmEg6ras570pEMFGAwi2jWfmj2bCYcDOjkXTBMMI3k04H33/uHdPP196Wbr78/zX9k4VgVo9uCi0KENfmKlwqG8ptpCvdLayKyLBP5kRZ+nS5e5wVM+P3yA+6x6Dc9O4aFNEeerXQTDiduAtNfLXgwNZx+b/HD1/9MVDEpK4MRwVSY+Ey2tumkGx/k2XoRVq++ZXzCCOjT+rq+F/XnQPWnrpCqlXCYgPJUNgbQ4pL6hvHIOIEZwQRQTTCJG0uMk8ZS4yj9S0wgJsB4bmI2hpVSKM/S5uo8zJw2LF3AwFmOLaQxmBTPT9LjPWAATOAWwyT7dj3MN9zs2bPzGG68lI9RBGvS95wWl294wxsy41JvMyofdJRhEqzyXeaKxk6ARxsoZw6JHQpjuLFUW0nDvKLHmGr+saBGF2d8DqmTfG3tmVz/Y/FtTqLDF/qz6irpDHr4JYMVMAGvTXx74XwHvkMOs7/nnnvmeQBjp435pK8Yfe+EAfGg03vwzWAA44okghUMsO8G3eb9kgb1RDxomAq/xFmGa9xlnnd/5ZVX5UueTzr5Z3mODvgJbRGWyAMRvy29hOkVbipPCoKh8IFZQbkup3yxga+pLElXKboO2H5+4CISDxG3unVkDJTBw2BjgFBHiLaJ9NUHFiNk5YBLN1AGzqi7jEdYR7LygD+2zAy66gkYgwM4dcSKT54PUacMF/BWQE2DpdWCQSbgopyVWtQdabVPQT3qlocmA0ft4C4ZXKtbzxJOJ+3latraYBfDkWKNSrJG08akWnStlhi0I91H24Z1ZqbHc4Q/CJW9YJvy6rQyXoYHqXtFgmlrm2BKTDzGMhN0OKt9fVlZW0Fxwa/xw4RPohKMgAnTCl9/My5Z6ZNgkBjDgxEzQTVJU0raynDQEb48DABmrHbSgjmQZ7L2bMZAW/8WhpgpY57x2ljCvISJ0wSPqUKrydckTzIDhytwQjoUtIVf0xDxyIcjJurIC988UbYFpsIkb0IktdKWwWBhaI2HGEULS/gtVjkMMJ1Uki1MFaedjYPaH+MYLugSL8MRN04a32unbUsJlm/CrgKm1cKe5If0i5qISVt72u61Y+CZMKnmAG1sxwWd3oF8z4ipMX+RhJGCapvYxqppibhdCm0UzxG+fN8fesNpW0IAC2zMEokahtQCIZhQUlnp6NTWvgPvH12+G4t93wehBAYSc2hHyHYiJrKcS6LekqZIm6jfhKtOE6/TPM8pp5yaDj3siPS1I45MV1xx5TjMQAxWjTDixI0aRYeiiO1F+gjC9XuBAdfP92KswDAW9aQctLT5/XC35WMyDB5WfD4mKyUNibHCsBgAMT/SDDro03FtfaETvI7phxnxgfvp8Hw4I01YBwKrY/kpDxZ+nV8d4EnO1BNwOqvy6MQQojnwKm8VCz7qQ5t8OlEG6ui46Nf5rVqCXmnKKyMPDvXbC9cGJU641KdM0CSM+eRHncG0ikd7Bb3hB15+tFfkNfvXpLlz56Srr742w191lba9Js29+pdjbTFnvE0WlyeqvjbNnTP6Phanj76nmRZvagft4zvwTpryPQPmHoz3GO0asOK+F99aSDt81+U3JN03Lz3eR/h1G5XpZR013GMtro/2ciZPW3+2500aJj19TJ/GbGlfDkNlkYQpAUvaS8pLWgJuhx12yCYaLNy8c9IglwabUJXBHNgObNsy60WjvBhDMUzen+/GGIc+P9t65fgrTR8OhXyTYTyLiR7z43k8LybI4tH4YqvHmML59rSPCdo40c+hMejkW9BiTINGftAt3bOEM776no1J6BZXPzrhMoZi/GJRbswzXnGYCc8ChpNnwQiepK50QV+ZFmH0aIuSXmFtWy+QtQdGQ51o5TDRvjfjN+bFexLHCIUE1JZbMJ0YMbTGNxqSu5ibe9GKwdKGvtWaXrYp4QoHj7bwfZg78QPaEeMvDW3wYLrRzmE+fMuc9+DbwD8EXs+qbc03xowmwUouPAV/dTvgOWJrOHgbY2CT8/2fe+756YpfzknnX3BJuvbaxbY3B2KwaqRePC6TuM+LjcnWigp3XHKaNeE1rjLeBIuzXXvttfPqyJYUcaEO0gRb4orwoHA1vI7lw/AB+/hNHl62D6L8EeuK8w0cdZ6OKS9wyIdXG8or4SNcp/tQfXg6tAkz6IgJLeoNWuCR1kSTPPjh8dHGKSC4lYFTnoHIswuDCdrKusAaMKKeqD/iUWYYP3AoE88wTPmg74/LXJwuvPD8MVrPSxdddMnY+5K+5DudqfGyPYS9FwscUg/flPfhO/NteXfeM6mJ7QOrRHl+3hl45ek6GETlG8AMnMr6+c7A0PchuY2y0uFQnx8c7e2+fLTtZN65ySdcOd6UYfoypAokuKFvYmGq7QLO5GNSMymRithWsb1jsiQtsZIn6dFv9U+SHzqiJmEDuQWuOkwMGAgucAd9g/gWSN63b6L8SQvGqMbTVo+Fl/Zpyq/T+sXrOsW1l3bDVJa0mqRN0CY/rsbdhKtfWo1DHPMSzEpZvoaNPIyGPlbSKqxt9aXS1TjqeAk7FeEav7jxWFv6Bc3a2piDKWoqg5Y6PehrSi/TynCUCb8prykt4CfiY6LoO9vC1A/xNoQQ+p7FC36ndr5xfdIpwivnzM2MJBi0TYjBIrosxdzlQ+K06dx4MRNxJWnQRTUAACAASURBVC7lGRoNRUOdhZ4SEeQgDufb9PG3la3rjlML4EmRwtVwkc5vy6vTYyXUq2yUMZjGgGliCxdbkxEP+Doe6eHLN4FaMXA+oMiz0jHo+7AiLwcm+Adv4A4UdTzS+b3ySrglw8WW3xLbgX+cPopfeuSFvyTGmRpDf7SRb4JSa6z4Il1n11fEbXOYhOvB2/PJd9qUAqlvjANn1RuOJIIEwoAa/SHqiT4R8fCj7Iri189dx7XDoGllm9VlIh5+CVuH412V6WW5CIdfwjWFB4WLsk3wTWkBPxG/CV9TWuDulQemV36ZN0g46iz9KFf7Jcx0haPO6cIfeKOe8CO9yW+CaUprKittGNg2HGU6oYqtYGNd6aIeklH5Fp3h5BkHMdrX33BTZrIIJcKR6g2l5G51ZKXUy1kBISTEq71g++URi9vbZ3sJZ0mZ2qm5QRzlyyaOc5CyYDAhOFDifXoQnp0eBMbE6sgKFH4cPXFtiIyt5nH79petWIlM7ZM7fSid8h67UrZiMIBeglUNaYOVNFziJIGYKKYM1K0+k6FTgBwfp629TZRE9MqHJMJEiTaDLfrhR7+VB6V2z2Z1TBpJ2sH5iKyS7aXbsqADgE4MIRwmYh8gKQYJJgmjZ4QbfTPDjTJNPv7lTMWqZ/NFRw8gK3fMlW+QriKdBocRvLNQYhWmL0LaQSLigIHv07slmbItYauf7gNJKf0TBzt8g8r53uCVb9FEYmbB4xvWDzFwsaUSdK3Ifv2OJtoWNZ46Hnjb0iN/WfiD0DQIzLKgXZ2D0NYPJvLDH/RZAj78Qemp8Uf58Ov8XnjrMhEPvwlXW1pbmbb0NjyRPtFyUb6Xj18wZ/dy5kkCpJKO0bnxJ+nMs85Jp57288w3BI6BGSwI/SjJte2FlpUa0E34k3X2bdkucRLOCRynJIKWGndZvzxiPYxKPxflwgcvjLkxwThxh+mg0Mj+lK0SjApxPB0Jx09J9UxIJiL6EyYeiocYFozaNttsk0+wmMBMUE5FeBb4X/ziF2cDnOjF/NgWcBTYCRFtrS4MjUnPREoiwWHymGfAfGG2KBCSaNgzplhIQRYshU7HoF2x4SMi3aCzQXKFMfNcFPQ520UYJpIySoomYQyaSRhueY7POt1JnwTzh3n0PLNnzx7fX4erbM+MvPubshbQtvRwdHb9zPfpG6MQS38Ag4yZx0BhwEh9MVe+Kzoa3iMmie9kFYabVNo36BSoNP3Otr9vyzaUn2/ed2DgIO3CZGPAl4Wbru+rCW9T2rJ45hW6zkVxJuWPJdBLnGHJjbR8SaZX6Pc6Ax7eHGcOD0l+G0nGAWOgXYJwdMp+8YvL05e/ckg65ND/yZc+L1gw+v0NtUVov9vASyJTDzh13EqadGOiLvAZ1NuUy9pwK+unISYjVYEDR2ulTkJj6wwzY2vGah5u9EkL/RSMCcbn/2fvPeC0Kq7/f0zyT36xl1gRY8UuUuwaNdFoqrHG+LWkGDWoCCi9d0RFwIJgSVREVAQVsfeGIiIqoKgUO3Z296m7z7Pn/3qfec7ucL1P2QLsLnder925d+qZc+9z5zPnnDnDBIQUAXTLH/ZjSH7QtZPOxMdEyOTFJEcMGCMAquCdGYoC9HgBAD9IIUwqx8uArQYADloAYky2SKUATtht0A9GpIyBsaAv5jki9SKGVmx04DHjBVBBC0gdaZgF2kSChWEubfPHRE1/1hcgLJ+NhrUTxY3HAZ4XtlQ8RwISVFPvIbI2UTbvDmVR//L8kTiZQSlSZvt9AdgIqPltYwMfD1OzUw5xOO8/3wDSqU/7BPrwY71ppH/Wdlhzfp5/HVa2WJpf378uVi/Kb2wOMEH5Puqy8sRD78q4oc9Jl7OnykWnT5ERPR6Raf+dL7Ey3n83oblnFoGrxn4aLb09vo0IRwjFfvdoDkzj4/Pl+1Xl8tLLc+Tzz2u92dcJYNEYjsv4qIcFCDPi8IthUpGwsn6a1fHT7BobrJ/+9KcKApDssMIGsBDC6vk01NfRaL52jSa/77CyfjmbfCzNL+9fW36+2MpabOWC96SHpVl5P7aJ069DXb9+vmu/jrXplw3Lt3JR3HAOGK+DsbVs6dzbtcVWxo8L5fnluLb3plCdQnnB9kq9p19+Tyw4zP6LutwbyLR+bacSQBIwSLAyfn/k23hIN+Dol8l3bX3ly4/S68oBA0a5GIlVdbXEKlJy8Zl3y24/7S9tWvWSLVt1lS1adZc2G/SVXX7SV447YJzMe+lDE29p7A7brWv/Ufn1lQN8Q/AxhuChWMBMAoGKBb413H/2+UpZtPg9wbO7hToDLEAOf8Hgf2wwkEZdxLZcPz1Yx78PK0caHsU33nhjtb3Chwx//uD8NoLX0AnaLBby9Z2vXlj5fGVJL1Q+X16+dL+fUspY+Xxl86VbPYutnMWWHoyL5QfLR/elcSCMr5ZmMS351/69DyJK67G2lLVpsd9uvmu/bG1LDbtCLI9aEkmdOYOkRSS6LLzoE4ktIAnJLvZpqEFRhyOVQ3pMMNqIkfKiSrWANNc2ePjlLD+K1xwHlN8qBDWgJVKxKiknHzZJdt6gtxy5y9Vy2M4j5MZRL8jkq16Q4/YdJ0ftfrW033a4/PKn/eS159wxPlmpVNtLJ1CtbWvNUR613Jw5YL9zfvtogQoFtEWYxtiijbJoiB566GGZMfNBGTf+Opk1a3bNN6ZkgGVEgPSwHfJdMfgEscKEAICN1fHzS7kO1sO3FGoz7JCCEiHa88v71xjjl2KD5dPk1/fT63qdr52w9LC0uvZH+VLbKbVcfWjw66ytfvw+14frML6GpRXiRbB88L5Q3bC8sPphaWF1S00zv0DYMWJLxscQoIX6G4k56m478YDvDx83fv/YnqFexwM2Nmqou8nHHhH1Pg4kMQHApIB2sWGkDxZ3fHfoF3vFsNDYYwzrY/1JC4ChapEh3WfJdq16yG/3Gy+H7DxGXn/tI1m5slwqyiulbFVKjtnzauFg93ZbD9Ujsb74BLcM0SHu688703gjxfQBwZCZ4ARbRgLO5j3btW35SLAee+wJuWvqND3oOR53vtP4NpQEsIIfEVaQGNfyMcKAmtUhxtl8oNiRxgcvWMeIKRQH63APSOL8QZNederUKe+upWB9DHv91Wmhvsmz+hbnK18sv9R6fjv5rsPa8sv6dIeVDUvz6/vXwbKl5AXLBO+DbUb3DeNAIf4WyqPXfPn50n1K85UJpgfv/TYack27OIREUsUmkb322kttBAFQbObge4QtoPnooi/KYvcI8GI3JTuRsbPAKzSbdfi2sFjkOBdsS7EhZIVKHrtz2aiCmQGgDPvI4NiC9w0ZX1TX40BOivXhu1/LAdsOkSP3vFoO2mGEXHTKXar+O/HACbLPZkPli0+/l25n3yOdthspv+9wvezwoytkwgjbWAVYCwA2r4voMuKAzwH7LWNnDYZhcQW2YUMYG+2woeZ7EHThQBvff1+mUqv/3X6XDBs+un4SrCAxiMhYNbJLDZ0kHyJ2l/nGX0a0XzfftZUNxjvttJOiRj58GF1zdp2J+vO1ZenQiMStLsH6r0sdK2t1LbZ0P7a8YEwZ0vx0u/brN9Z1qW2XWi5IV33rBduJ7sM5AH99Htu1xcFawfTgfbA896WUyVevvnXD2rM0PnioCdm1yLmWbMZg9yTgCOCE6wlcqphfN3b3sshiIwZOAtlUwvEixHws+V4hwWInL9dIw/iQUgbQxveGe3YXRWHNcsC9L3yr7VirrFwz6CnZ6Uf95A8dr5MDthwivS6YLplMtUwY/qz0uWi6/KbdBDm0zWj5Q8cb5IR242XfLQbJRadPrbXFWs1Ifs3SH7XecjjARiC+I3wPwDZsLOP74Pug9EdLeefJfbG8MX+BLF3qNgtRpiQJlt9Y2HVdQUxYG36afZyJ8YAMyGJFyYcPVw277babHHbYYbpi9etxbXWD6Y15vzb6aEx6/bZ82v1rygTv/Xr+dbFyxfL9tqLrtcuBuj6bYuWD+cH7xh4dK0o2udAPu2iRWCG6xw6CnY9IsSywKMMY3rc/Y8cugV1D+AOjHerzDWPzDuANibz5EWMnL32s6XEZzetnHCZtyspl59wj+246VMHTgVsOl0vOvltNRL5a6Q6rXjz/czmkzWg5uu1YOaHdtXL4LqPkj4dcL6mEc6DseBlJsdbPd6pxRl0KtmFXNmcRPvvcC/LoY0+oywb75jQKwGqcobhWgh8y7Cw4Y2u77bZTYAXI2n///fWej18wBOsH8xvzvlBfhfIak4aorYgDzZ0D9lux2MYTvMd2Cl9z/i5izBJYYdqHEHAEsLIPHPYRZWXfy8svvygLlyxSrVEslZREzE3SrD4JSMU/+mi5brNWA1bUVFlR0Pb9d9/Id9+U5ZzWZkWyzh2Fo7MWHNSk1vhrspG4ODgeP7dQnl9ufblmF2DXc6bLfpsPkhPbXS/tth4mV5x3rz6U80+9U45ue7Wy4voRz8meGw+Q37W7Xg7f+Sr5w8HXSaLC7RpdX3jVmOOM3sO6cxMfWJx9++mnn8vHH38qy5d/VGME32QAlv9g7ZqYXUF2z9Dx82OHWvrpYWzBi3kxx2Fh9cLSivXVWHXC2onSIg6srxyw3x0xqj2O7cFgHXcx2Fjh1BebLAzW8T2H/zg22WBPhfoPNeKVo65Wb/Q4xZ00yTlKxaThyy+/lhkPzFQ1I454hw8bog50Tz3lz3LllaNk8uRbZOy4a1V6fuddU3Km09mcG4DaUwIAVtUmKFGURRl8j2VWO0kA0GfjsefJTutCwcpbXKhsc88z1wo21qsGPCk7/3995fcdJqgRe99/P6S8P+3oybLjBj0lU52VJ2e9J7v/bICceMB42X+rwXLRGXfknk9z58bap78xTl5Z+1Sv+x6RknM8Tll5TBd6trhjhTZ16pTSj8pZG0OxH5fFHO7M+YMY1B9++OGywQYbrKYLtXLQ5l9zj3GqrzIoRn+wfqHyhcqG5ZEWll6ojygv4sD6xAEkR/yZ76qg3ypAE6cL4F8PYMWpBnidZ2cPhumALLzRYz/FLkAkW0i8hgwdrjZX5533D+l6RQ/pfkU3Wbjwbf2beOP10rnzRXL6X0+TgYMHyK9/fZz07tNPbptyhwwYOFjbPv74E+Taa8fXSLAUQ5m4yoAV4q6c5MrtYbOdbK4A7iKgh8B3AGNaaPd3Y0N/0Hcg6gc+2Dj1ZTWMirTlhhpm6hAXv7VS9t1qmBy3z7XSftsR0vmsuzT9r8dMlj036q/SrEnXPi9tfz5A/tRpguzYqpeM6ceC3Dm+rbXnarkca4yR4fsJO0ZsjHg3w3bqN0Y/LbWNRCIl8998S557/kUZe+14eWhWrZlCk5FgFWI+Nle2ixBP4oR8YMXSiUv1g1WoPZ8ua7tYmp8fXUcciDhQmAOs/pA2L1myZLU//N1hE2Uf/K+//rpG9I6bBYzQmRTMlQK9sApn1yCqP4zd2WW4aNE7suDNubJk6QpZ/PF38vFnX0l5Jitspn7r/Y/k3Q8+lAVLVsiSZR/L48/NlVRGZOnyZfL24iWy6P0VMmfeAln48We1g8iBq9Um8hoplgMJhr9MhMXxQpg3YPKA4TxHGXHMFhJ6JHEAKUAh564yNmzAAFVI5Qj46Dn22GNVijd27NiaExPCvkm1hDb3qyrp8e/psm2rK+R43DS0GS1LFq6UeCwtX61MyFcrK+RXe1wlx+wxVjpsN0wOanOVfLL8Ox10VgBZDvQ2dy6safpRvfNuskkEoQTvKK4KWva71XhcrYgl5MGHHpZ775spM2bOkrffdk5I4V+TAlj+A7VrJFgc8IzYv0OHDnreHtu1w4LVsby6ACyrQxxsh9UnzgdJZzXJbiauOY4E9xTBEKwfzA/rI6xMlBZxYH3gAMdO4VvGfl/8xuwPgGUOi4k5j5PdPQAT/FMBpnAWCkgDtKAi5Mgf1IlIh8jDR42GssUic66XbPUqlTZlVy4SyaxSDFStO848cPT56yLfL9Jq1bElImUfSmbBLKFONr1K0vPuk/TbD7r8yqRUVyXchG7fj5wXctexqCQNCRZ+ujjjEYkBZ5xCM2nsxgZMca4nOxyR1iGhYxcTzlWRXA0aNEjrIKHjSKtSvjPWf1OOa8dRK8EyJ6FffBKTEw+4TnbZoL8cvP0IObHD9fLUQ+/Kq88uk7NOvEXabz1MwVXrH/WVFx57XzFV7p+TZNUg3abMgXVLGztz8f/EO3nkkUfqNc55gxLkdUtl0+0dP5033jRRZj38iEqyal26NCEVYe2PzDHS7vmoGIhhdcpuQjtjzWe5lSeNa/5KBVjButYu6aws2bloonw8RLMC5YOOiB+VBCtOmAzwAvzxgWc1bitz8wxNu0wcFvx+LS2KIw6sbxxg9x5SKELwN8HOQDNEZyLA9mqPPfbQM0Cxr8IpKC4bAGj4ucKUAMnP0UcfrSo53Ma8OX+efFguIsufk1jXTSU+8WRJTr1Q4tccJ5n506XqtSmSvvVsSdxyjqRuPlPSt54l8bsuksSsQZK+6z+SvK+XJG8/X1JD9pf4hJMk+94zUvnEWElf82tJ3HSKJKZeLNXJ7xVgOfrtN07srvnocpYjMd8zdiYCnPh+MJGxWANMEubMmaO7HLE15Ro3E7SLwT5SPMqZ6lArtIB//nOvlQwysKx8+3VK/nb8ZHXD0LpVD9m+Vc+avz03HCy/2vNaeXoWh+9i3O747bfXAtizRocAr1iQ4DMSyRWOeZnHIh7Wje1geRYG/DZN6t6kbLDsgRJjhApgIfhH4+D3ppDhurVBPVaMgJ9Sgl/PL4+X59/97ndqLMsHHv8Y0AZNrKY5v2j8+PHaFysAPvqsPFk5s/o8/fTTdVeT32a+vvwy0XXEgfWFAwAs33+eP27sQ8wQHBCCndIpp5yix98gfh85cqQg5UYSZI5BAS+k4buGiYMF0RNvfCDyzSJJ3/JXiQ3dTxKTzpD03ZdK5v3nJf3oMKkETE09X5J3/FMSIztJ/JYzpfLRMVJ59dGSmT1Aqmb0lNjAPSUx6TTJLn1FKpe9Kqlb/k/ivXeSysdGO01gtahiyizeUVKZAAV1Jk5N+fgS+AYAlviWsBgDSCLJMjcS5APG2B3J9wVfXIzLwGbL/4YYSLW3IStPzFool503TU454kb5Y4eJ8u+Tbpf/jpsjyXhlLaO1uF/Xv7a2otjnAMC/c+fONXMlAB4hge3M9ctG1z/kwNdffyv33Xe/PPjAbJkyZarcf/9MBVqUbFIqQp90bK4Q9xMwbLdAOmqBYoEPUF2N3INt8oHDDxeSMIxr8fzMBx6Ej3qC4zUAUGwNR42IdI0dToj6ccIK2OKjzyrbQsv/MNpIozjiQGkcCAIs/zcCwDJQQWsYwePzikUWEm2ACfWxxQKIkcbEgPSY3yigDFBTnkhLetWXIlVYXlWJJL+T6qpyqZa0SHVSMulVTgKFZVbyayUctWF65TKp+Ph9kfTXbhL/drlI0h02L5mvpbradgHWTuRq3q7IqtYGaOjQobrhBkAI8MMxKpMaHuhJQ0XIgg1a2dHIoo7vH+ALdSDepc8//3w9LQOgRfD5pAnN+J8bi+OhUw/aYGr5amg1mUxLRXnK26VpzqSdo1KtqSpaM3a3tqI4jAPMp8xXSH5ZqKDCZjGAoMDetbB6UZrjQGVlRt0zcMjze++9r/71TIIFFmiF2L2phX333VfF/bim32ijjVSU/vDDD6uxOw4CSwl8dG3FWEr54AcLZ4R2BhkfbMSnqAr5uCPmhzZ2A/FBh6HkIeXio474H9sSdgWVckK30RekwdLD4mDZ4H1YnXxpDalLmw2tb3QVaqdQntWvSxxsz+6J7To4tnzpdel3fSxrfAvG8AJJtf3OgrxB9c4ZYQTUgKwICbQD8GLR4y+4+L1xTx6/S8otXrhIPly6XG69fYq8sehdSYlIoqpapU1l8ZQauq/4cpUs/fxb+fjrcnnk2VfkjcVLZd4iZ/z+2oLF8sl3MfmsvFK+S4us+OxLeem1N+TJl16XBUs/k4WL3rW5X2kzNVXuRmmAJrzJQ//kyZPl7LPP1gkMoIVNGWNDWo4JAnYwTG7PPvusuqXhe8NuaOxQkchh5G52adZHFEccqC8HeL8QFCAc4L37y1/+ouCf46XqMnfVt//mXg9sEMQZ9p1rshKsjh071uwcRIJluwi5xpFgvmADszhfuWB6sDwrZfTQfMhYJbNqxt8FK2RsIbCr4iNOOcCWifNJQ6LFH7YVtuJmNc0fL6xdh8XkI54Ny/PTwtoJ1qUdP82/9tuya2vT4mC6fx+kkTrWflj9YHm/LbsmtroWh+X5aXW9hg6fFr+fYLp/H+yHPOoWKhOsE92v0MWJASb7zfF7ZqWHbSXnnPIH6GJ3E6o1M7bF5QLGtzgYxk0Dq+6jjjpK72fMmKEqeXZAsRJHXX/BBRdIly5dpFfPK2TyTZO0rWvGjlO3DcRnnnmW4LoBYIO0G6CDcfnJJ58sRxxxhEqrkSABai66qLP06z9QV/ajRg6XsddcpVKmX//mBHnm2eeDn5PQexZd9v0gZgGHmpDvDN8Wvim8U6QTUN3QP3win28LH3IWcfCQbwu8wa1F9BfxoL7vAO8XJi/MdbxnOPLlPePdxGa4vu2uqXr8Nnxb5tAf21pMhG/M92GhyQIsPras+pASsdWamHtsFPjQBIN9rEnPdx2sU+iePjC8NfUDNiIYnPLBtw8/kiomB/KglzykXEjO+AiSTlkkbtSlDJMski3uLZ12WEVYGu0wyeCSAhEtOnFAHpM5bfJj4OWHPtpkMrK2aIM/a4OPOmWsbfr2aaIfyiCJYyy047dl99Sxdi0fupkArIylE/t9cE8/SCnoB9qMHqsLjfCMMVl9n1bGbVJB6vp/1gYx/CeGR8Yb+GP90SZ50GFpVs/6ox+euz1/8skj5o969qwZZ/RXnAfwjGeDwbbtyLXfH5ImfjP2vCymDoDDAio0VPRIdk499VQFPqjeUMWjxseeifeMfnB5cPvtt6u0597p98irr76i5W6eNFluunGifk84IQJQxeIIj/Co6TioHhDH5hqkSqxOUfFjUzlj+v3yz7//Q6VMGKdTbuzV16gXeMCO/90xmi1mfLxPvEe8y9DJOC3mfSKfP37zlOPaxmP51CGfMUIfhsnRX8SDhrwDuEjh28u3jXeTd5V3jG9gQ9pt7LqctsC31tRv/N4K/ebst7c24ny0NFkVYalM8QfmM5trHkQpSNfqWWx9g8ABNsEJwfLJA+gQKGuBD3aYyBBaeOmCgdO6mdT9wCqWFSwBMIAHe4AWH3KAF4a7BFayrIbDAuOBxmCwcVrMJEJgnKUE6vEHXfwwrZ1idaHbnkdYHeOZ5VlMu1zzw7c0i8P6JM+eS5hjRqSRhQLPz0C8SVsKlY/y1hwH7DkT+78x3nnUhzxLFi2sIglIlwn89rnmL5aIqwqP3wLP1drkOlWZ1neS9xI1HFIvVqP8znj2lHW7g6olU1mlZe+7f7oMGjxUpUekAQJ92ujf+lBicrZj0Ey5Uv58yZR/TV27h8ZS2orKlMbz9Z1P9l7BB94t7pvCO2Z0WRz2+7Lf2bqIv/tulTz9zHPqomH6/TPluedeUDL4BjQZCVbwg6QfNs/a0c83BJuPmVaW1S4rvfoGVo+0wUqRYzdgFg7/kKIh7UFvjd8a7Caw/bj55psVpID+UU3wRzpGqvjtYUVw4okn6ooYA1ZWy6gX//SnP+m2ciR1rIyx5UI69Ktf/Up3D6Ebp48DDjhAgRsTATuOABy0iU0HqhHqoiph5cuqHuNZ7OtQgSD9Q3VCO0xGjIX+yINOVvus+mkH1I0ahjFDN20x6SCBwg4OGxBWEsTQQTu0B51MWuyeZNyMkV2c7PxktX/JJZcowETlwgYBxgnNtAlt2KMgOWBFRT1UQmxVp22c4GGAyUqePFby8I82AJ/wnnQAFWoeJBNINdh8cNFFF6njRsCtSTXw/M2KjXv4iRSFevCOZ8rxK7RJn/TDM4RGaIE+JB75gG1937f1tZ79Xhtr/D9oTxESoGf1HoLleJ62yLA8i11NDK6zNaq9mrQaz+Grtx9257fnX/tl86X7ZaLriAONxYHofWsYJ1PpKnlj/gK5c8o0GT/hRnl93vyaBpkz1rmRu/+Ag9fsnOEMMQKT63777afi85oR5FaLfj3LY3Jk8q9vQCVH34ATJlnsMnAOCLBAGgO46Nmzp+7uYaI+99xzddJG+oRTVLzj4iqC3UKADtSAeHQGfLATERAD3YAudm0glcK3FmVRveHfB9ABGAHYYfyKqpSHxq4iJEjQCIDB2Jcdj7iRQKWBPyAAFrYqxx13nKBKoT9AA6oX7hkbNLNrCXsWABZgh23hgBK2utMu9FOHMQO2UM9gN4Ia4/LLL9fyjAsJASCMo0sAR7brErDCbkrKUgewQr8YUWIrw9hQ+wBYOQ4JAAYwxsM1zw9eUQeARL/wCIAD7wFt0A+fmCCRBMJPnhEAip2d8A31EWoeaCKfMfBM2dEFaAJAAjR5BmeddZY+D/gAv1BrkQ6/4AnPBxp4LlGoPweCv1nuLc1iaz14Xyzd8jXOAazV0gI3fvt2bTFFuTZJVqDqard+ndUyQm5KKVtKmZCmo6SIA/XigP+++df1aqwRK/m02LXFjdhNvZpC4zF+wvVyzdgJcv+Mh+S9Jc6fHfQ1CYBVaFRIU7bYYguV3rCbkMNe7bBn6gWZ7N+X6mg0rH9rBwkJ0ipUTky0pq9GioZkCwkSajLABcAJZpMHYMDWhxUxEz3gChEnAASgCDgy9RMgAuCBcSFABlUgIA3whIiWNOjgHmkLx2gg0QEUIM6lH/pAokU7SL+oQ1/ElKc/pEsAFOpBHyAOIANwYVyURZKDahIJEemMj3ToYWxIiaAPlQo8wb6JutAGLaRTBukfNDF+8mjPJEyMzHycjAAAIABJREFUE3qQBJIO/1APwhf07EgAaQfVDzQbHfRP6N27t7aFtAm+AgoZM8+M8ki0AFrwm7YAfPDC7PngE3TDB3ZmYXtDfwBpniP9QQvPG/UPeWabYOOHdp5/FErjgP2eKO1fF7sPlvV7K5Tnlwu7zlc3ND0g+ZKsO3TQyloc1o+fVmo56tSlrN9HdB1xoKEcaC7vXlOhkzn6ww+XqRTrxZdekU8++7TmEbB4X+cSrBpqchc+45jw9t9/f91FGDzoOVgveF9fgOX3b22GpYXl5SuXL93aIC6ljJUPlrV7i61cU43D6AxLC9IPADSbMb+8fx2sgx0O+QBAgl8WAMY7Vp/gt1Of+utznVJ41xhlaGM1fFSCNCv4XKy+T48d5eyX9fP9dP+6lDJ++eg64kDEgR9yoCn9jhCUIOTgDMK33l6oZj92GkGdANa6GBQqI47GQMqDmgl3DUguCMXoQS2ExKE5hbAxhaU1pzFFtK5/HAh7Z8PS8nGmUNlCefnaa2rpxcaQLz9feqnjK1Tf8iwutc1i5fK1V9f0Yv3UNT/Yv91bTHv+dV3at3oWh9UNywtLC6tbSlpjtlVKf+trGYDVTRNvkQ8/wEPAPHnkkcfETsSbOnVaaRIs/2H514WYWmq5sDasLuolP6BSIs3yyQu7Jg07IFQ5TSlAl09vPtqCZYL3+epF6S2TA/b8LWaU/nVTHHUh+grlhY3FylscVqYppxndFjeEVlTWxYL1Y3GwfCnp+coE2+LeL+tfh5VtaFqh9vPl5UsP0uKX86+D5Qrd56vnp/vX+dqyMhbnK2fppZaz8lFcnAM+Twv97ubPXyDTp8+QBx+cpWY41nKdJFhUsg4tDkvz86yjusYYbGNbQ8DrMbY1qIcwWMYmKixYvxZjoIw9TVMMRmMwLkarlbdywXtLj+KIA2uTA/YeWpyv70L5lheM87XVXNJtPNCb79ofi5Wx2M/zr/18/9rKlJpm5f04rC75frp/bXl+mn9t+X4fxa4L1Q/mBdsKy/fT/OtgXe6L5QfrBMvbvcXB8vn6sPI2mdu9Xz8szfItz2JLD+svrIxffn29DuOLn2bXFofxyfLqDLD8xjCQZqcaO9DwhGy74vwy9b3ecMMN1RAbQlELErjGDgtjZLvXizz/MD4r5tIhT9U1kmxML9Z4sFzwvlj9KL/5caAuz9jKWryuR1uMjmL59aV/TbVbX3oK1YPWYvQWy/fb98vadTD2y3Nt+f61nxYs79/nK9cY6fna8OkMXvv3+ernS7dxBfPtPhhb+XyxlfdpCitr5SwOK1MsrSF1i9FXrO/1KZ9NYLj6YYc+m6BwX5QvgDO++eY7Saer5PvvyySVqqwpWi9Ho+y+olO23WPnxM4vvCzjGgD/Qmb31JCXYeedd5aDDz5Yd4ABsJBi4RaBa3Z4WSjWR7F8a2ddxqXSWGq5dTmWqO/6caCUZ1tKmfr13ji1SqHPylgc1nOhPMoXyw9rs6mkFaM9LD8sLciHfGWC4y61XLBeqffWvsV+vUJplheMrb6l232xuFh5Pz/s2tIsrk9/fl27DsbF2iU/rI6lWf3gvaVb7Of715a/PsfGD2KwDa6OwDbmPgjBETvXSWM3eTCwK3727Edl2rR75amnnpFXX50rmYzbGlMvCRYHQgKw/GBEsjUff0ZB2ym/bCnX+Dhq06aNHvR8yCGHyKabbiqbbbaZ+qLC8znB+gzGfl4pfa3NMkZrqX3WtXyp7Ublmg4H/Gds1xY3HSrzU5KP1nzp1pLlW2zppcT1qVNKu2uijE8rrkdw58IK2YKfTxouRQiUxdcarlJwk0Kw0w64txMJqM/OWjzb+4EPP85/2Slrrm1wrUJ6sE+/nn8dLJfv3k+nLxwUszGJs+38QDn+oAF3MPjWI0Aj6bZDmDTcwVhgrEG6/T5xy2Ke+/F3B88oT2DM1q7VCcbWT0Ni3MLwXNGw4D4mGOgTVzP468NdDm5jzBG20WN14KE5vSXNz7dr2mFc9i6Qbs8ZkxrjrbVp7fB+QWsUajlgPMUXIr4SwwLujhD0BHedW93HH39SZsx4QF588eUazVmdARbeuXEcaY2GEWLesMPyiqVZu7wAvCRsredF4pofK+I4008Xawv/TGEvWbF6azKfMcA/cx1AXzZmnF5imF9KsDqllI3KNC8O2LMlZkLFHvHYY4+t+eDyccaxq7mdaCqj47eGjSQOZNu3b18zyTDx4/CWhReByZByOHTldAImI8bK5EO5M844o+Y3jh0lzmRPOukknTSpb/wJXmvjTfwfJzfwPDGtAEDAG05XABAAqOzZAihQT6Ah+Mtf/qIOb8nj486EyiIXTQHt8R4AIvAnB2ixY4NwwIvzYFbiOAumfXhMvzwrvqX0Qxv8Efg+2TWLZCYVHDbzzTW+W2ysDt6zbR0HwpiO0A80o+HAnx6AgO85J05gY8t7zDvOqRVIBxgvC2jGSFn80PF+4NsOnnFSA+3aMWLEjJvTF5A+8L7AG8rw3tA2QIV3DloYB/TBSxsn/DIAxpiZv1APYfNbl0B5niXvNTTTH77ycEJNX9CHqokt/ThRRkjBKRzc+xu38OlHOSZno5HnAh/9Y5ns/cCnICdWMAZOzKAcwI1TPDCRsXHw/OEHDrChLQqOA/b+4qDbjqAL8sbKAIp514KBUyI4MufRRx+Xb7+tPYqtzgCrW7duNQ4WrdNgZ9wjUgPg1CX47fGDQx2Ik1Fi+9t8881Xs9Iv1D7HwOCYs6kExgdfGIuNFY/keCrnR7/99tvrR6EQvfyI+ODyEeIDGYWWxQF7L4iRXuy666768TzssMNqVO+Iqv13qClwAHrxns8iAWfAeMtnEcFE07ZtW/XOD+jCCz4e9PGwz3sMCKAckxoSa7z4H3jggepIl48TJzcwEbNZxSQ2jNf41BTGXlcaOH6L7yiqB4AAJy3w4eaYKPgCKGJ8TLJMoki84BNeoVngckwVJ0TwfbPFGjw8+uij9bQBABUTK23yrpg9CeCDCR13NyzkADfU57kxGXO6Aycm0B8TNfeczQit9q0ple/QSF/EgKNzzz1XY8YOYONECNqkP/7oh5MSzjnnHAUk8KJ79+4qCYM+TpZgzIAs+AWgZH6Bf/CMcQCeABtIIQCGgB3KYx9MffrlHhrgK+YsgwcPVvCHz0TeW3gKrwGkNuZSny+8YQMWEhDGzXtOH7abnT6giW83EznAkADtpDMXAERxIs3vAL5xzXOHZk41AYBSllMmGCcxdBLz2+KZMkZO+uDZA9xph3T4YM877IzWUsfZUsvBL8BuscA7x3fNQiKRUtXg7Icfl+efe1k++cQtVsivE8BipYSdVSkvHh8HxNOlBvvhWgww4iXbc8899YeOZ3BsvXbccceS262Po1HrH7r9axtHWJrl5YutDqsyfHox0RD4sLRu3Vo6duyoXthZpfOj4weBvRmibn4I/KD4YfDjP/nkk+WnP/2pXrOqoQ3KsoKxfvLREaU3fQ7YM2RFu9dee9UsZoxyVqcAEZzv+oDD8usbW7/1rU89wD/ggI0ovJe0iUidiZNAHpM7EgOONgIk4i2fwHmcLD4IvOfYQTDB77777jo5sLps6qEYDy2f3/M222yjYABJCYABY1j4gzkExzAhdUHKwDeMZ40EkwkU4GOSJcABbWGWgaQDftpZm0hBkHDxXQDsks49z2OfffbRExQ49gtpD5M6gIbvEM8KdR3lOJuT1Tr9+sHG4acFr1EPAlhQRyExY4Lne8b5pph/8GwJgEAADYAIegDdjAkgwbcRqRegiTxOqUAyRrsE6AJw/va3v61R63BCA9IxQDr5gNhOnTqpPS/tnHbaaTVnlLKwbdeunQIPaNt3331VAsZiBlBXnwCP+R4zdwG27Cgw1IYAJZ4t0jPADqdzMFHDY95vgBiTN79xwCl1GR/PmbKALIAZ7wTzMDF8JRAfc8wx2g5AgWeMpApJFsAaHtAmwBJXRybVqs8YW2Id1MnwtJQADuFdtLBw4WIZO3acvLNwsTz19PMyY+aDnh+sOnhyZ1XEasbEs9ZBWMyLYG4WwvLD0sJ+uIceeqiccMIJCjD4GPARARWGlQ22yY+UH25DAszkxwBYBGA25MVk4uDYFj4iAEY+YL/4xS8URAFaAViIz/kIce4hkxD9IsUDaJ5yyin6Q2HlQuB5sKrDGetvfvOb1YZZCn9WqxDdNBoHmNz4GIb5YOP9KeXZ2EHiEMXzZoIhADyYYHiHWCU3RuCdY2LgXWOy5T1nIwkfZibvUgPqC4AAkgc2qDCh8PslMGbSmDxZaDAeJgKkW4AxJlkLSK8BG0gmAGS844A2JgY/lMJHv/y6vPZpZdKED0hx4Dfgh/GShpSF7xvqJGJ4CBjhUHT7DnHUExM4dk4sZLnHpALpD9873jsk4oAE+gC8AXiY8Pm2cA4nkhUmW547kiD6QuLCRI7Ei/4ABbQPDZhoEGwcFufjKe8PC0Xa5z2lf6QsjJ0/AA1tIJkEVHDNnAEIIkaKxnvBQpv35F//+pcuPgFkgEBUq4yHMSCxM3c8vMP89uAlfACgUQYJGu8TfEOqw3edMQNAoYVxwyuu6Z90U7XmG2NYOjQBllB30gb90B598VtCIoW0kbmRZw29lCWf7waAiPKMk/cCHlIWmmkb+pk74ClAlfYIgEqeLZJgABnvE+CSdwTJGM8WPvnAoNgzDBtfS01DWMFvwuwYC/EGvvKbszLU5f7119+Q1+bOky+++LKGTTzXOh2VwweeB1ko8GICJEDq9QlGOHX54QA8UBWws5AXB2ARFvx65PNi8QOvb2DC4CXmh8KLjT6ds+v4EdCXb4RZrA94AVBipY6akx8WwcASP0oeMGPjA8dKi48cHxZWKvzYALb8UPjRETBo5IPKB5OPL8HngX+tmdG/tcIBPuS8szwvVo1MokgmkTgx6fH74WNpxsxhRAEymGQAOwAWQDTPm98AbW+33Xb6noTVrWsaqhUkIKyCUfH56g0OHK9r4L1jIYZ91e9//3utTh9IJOCB/17y7iKpYwIkUG6nnXZS6Y1N6qRvu+22KlnRQoH33NLWduyPw/r20/xry/fjfN8xv0yYMTIgHT4Rgvl+n1wH86nDd4VvWljIV8en1e8jrA0/jYWjX9e/9svluwZgIRHyVTf0z6IgXwgbM8AJAGW0W2xtBOkiv76LaWvbp4PnBS8sj375bVsIG08YDX59q0sclk5avnSrG5ZveetbjDQZoG0hjDfYsKF+ZQFDsDJ8q9566x15551FNbay5NfZTQOrT4wHC0mxEG2C8uoaINYI9usCaEDivIRh+WFp1AeYAFbqEvy2QKWsJiwwWTAJAfIAkKySSg0Y7l544YVK/5lnnql6ctQjrNABW6gO+fCxEmHFxsqfFTuAjEmaVQmADxUBKx/uMZSE14h/WfH4wR+Hnx5dNz4HgrxGvQNQsZUxtlRIg3hfWEUimUS6yrPzV5Q+ZagpUAURkFgB0LDBwFaFwPtn6gFNaMA/6EfCgESVSYVFCXYkSEQYQymBcSFhJgAiEbcDDPkYEQCItM8HjEUafSJZ4D3G6Ju+CIybDx1jt987Cw9AZTAE+R7MX5f3xWizfIuNVru32NKJw9IKpVvdfPUsP9hGsHzwPl89Sw8rH5Zm5YP9++nMN769UKF2CuX5bQavrV6+OFg+7N7qhuWFpVl5i8PKkJYvP196Xdqpaxv52m7u6cYHhCAINPzdm8GxgX2QSlkd8pctWyF3332PLFjwtsybN1/vrV6dJVhUBPCg30U8absaWJmy8mXlii7ZCLDYOiwUW1k/pj3UA+iXmaRw1eAbmAXbs7qkI9Uxp6TBcsXuaYdVPeJopFfYKGAoyeSIqHfvvfcueScGYlvsGywAtgB/tIvKE1E4kiz6QsVCPuoUJGRcA/IwQmUFtOWWW2oe0o0OHTroziz07SbatD6ieN1xAGkjagpUIgAU7nnWtmsIkASIACCjFggLAGuMllEFAkiwEcA+h8C7CSABoDVGYLHE7j0APeAKFQ59BlVyhfoCUPI7BQRiN4UhLyoapLZIwdhZSGDxwDvPhwy1N6owVFBbb7212gqx+CCwiMBOiR1ZqMtNXeP/vikXvNfK6/DfmqLH2rU4bIjkFcoPqxNMq0v9upT1+ylUb03k0Xehdn3a7Lou5etS1tr3Y7++f+2XsWs/364tpox/bXUsLpRnZdbX2HiDIActFZInbOGQMoJt+C4yRwe1d9QDYN1zz30/AFjk8W2rk4rQHgAGmKxImTQwTuUDyySCztmCEW33pcZ+vd12261Gv0x9gAoG32HBr0c+Kpj6qCmtHWK29zJRIs2C4QA2Jp4go8PosTRW4kwkFrimbVZntGX9AaB4wKiPCKTzgBFfo7cnoDI10TXSACtr5bVQ9G+tc8CeIR0DjAFYqPRYffOceM6kI4kCeGB3gUFuMFg7xABvfycubVm+iaiD9etzD51IoKCLxQPvHAunugbU1ahh/MD7igTPD0iVzXbE0ikHsLPxkY5UDZU4wU+3OmFplre2YqPB4mL9Ui6sbClpVsbifH0Vyrc8YrvO1w7pYWX8uvnyC7VpeWF1/T7z5Vt9i/PRY/Ut9tvOd+2XtfYbM25I+35d/zo4lrD7xhxDS23LeMqiF60Ri0wk8WAb7gvZczs7rHcEg3df2FGSBMs6Dsb2IBGpGQCwtMZ6CBi/Ygj+s5/9TLbaaitd/WIIacFoCt4H0y2/LjETGhMiIA2pGYwHZGF0yASBISdSu2J/TK7UpRxGl1xjqEjbPAzSsDHAkJGdWPgrATgh+aIMu3oAetSH1+RxjU8bVCkASZ8WJIy0SVyMtii/+PMrxqMgn5csWaLST54pwBwJEeCKZ8iz4vmyQCEdFaHfvj03ygF8eN9on3eBNCvLNW3bfUNi3k/eJdrkD+DHewcIhJ5S2oY+ts7Tjr2fvJO8r7zTNk6/HPyhbfKC5UijLdKD4zSajFel0NeQMsHnS1v0DfhlQWS+ivi2hH13Sk0r5dsU1lZj1atL22Flw9JKoc0vY21Y7OdxnS+9lHJhdUmzdIuDbRW7L7VesJx/718X6s9s78LKWBsWh5WJ0opzwOcf3x/sq/w0a8HSyGfufvnlOfLKnNf02BzLq7MNlt+4NWJpxGFpfn6p1wAPQBt/2GCwqwqDWDPwbsy+jKYg7UiemAgBMUyKrOqJoQ0pFNeN/Ucf1p/Ffh9Gg8WWZ2WDseVHceM/qyBPjfek53s+Vscva2nEpPt185Xz6zTGdWP1E9ZOWFqQZn/MlhesF7y3cmsr9vu3a4CzSROD34/gfb7vjKUX+qZZW8HYr5vv2uoUaj+srl8vLD8srT51wtoJpjWk3YbUDdJRyr31Z3GwDul+Xr5rq2f5+WIrR2xlgmlh6fnK+3XXl+t8/PHHn6/M4sXvyZVXXiVfrPxKnn/hFZl2z331c9Pgd7Ymrm0AxNg4YbtCQPcZVKdY2UJ0oDtFdBeFiAMRByIOrG8cKOUb2Zx4EjaesLQ1MaaG9lPX+o1R3m/Dv/b5ky/dLxNdF+YAJjtopAhfffWNvPvukhqgW5KKsHDzjZMbfNA77LCDulmgdVSE/vlAVtbiMArIw5DcHBmGlYnSIg5EHIg40BI4kO9bmC+9KY25FBrDyoSl+eMqlu+Xtev61LG6xeJg28F76oelFWqX8lbH4mLlLT9f+XzpVi+KV+cAEuyXXnpFHnvsCf1bsqT2DM16G7mv3kXj3+GxnV1J7DgK/mEfEhaCLwagzDe6D6sTpUUciDgQcaC5cCD4jbN77MQwpcCsobkGGwubfXBpg52bBUxD8GjPLlTKYeeHj0Lcd9gOVatvMXX9a2srLA6WC977dUrJ88twHbz328OYGifUFthBy85wJmcL8IJdxL63cTaBHHTQQerqxMoFY7/fYB73wXz/3r8OqxulOQ6sWlUur746V2697X9y97R75YMPltbwtclIsIIPC+MwVIP4+8G/jl2HOTANexFIa6ij0SBN0X3EgYgDEQeaAgfsm4cJBK5sNtpoIwUg0GZ5TYHOUmkwmvEVh1NpFtW2kMY9z1FHHaU7t3GVQ8CdB4CSXaa4QrH61l/w3tKLxWH1LM3i+rRBnWB9QDEOpX/+85/XuFzB/RHH93B6wcYbb6xdAbRwfYL/xU033VRdoOD3ED7hR47zSks5cSHYf/DexkW65VlseVH8Qw6UlVXIiy++LE89/aw89viTupnJStXbyN0aaOw43wMNSw9L8+lBRdgQT+5+W9F1xIGIAxEH1hUH/G+dXROzwxmfavgLM2/464rG+vbrjwfpDdviOZ+RdDYZ4QuOHbXsprbA0WAcagz48oO15afV99pvy64t9tssJS2sDNINnO3i5sgcYiO5I7DD2I6Z4kQEpFUEnjHukTg2jd2sBIQOvmd++gr2F7zXikX+1adOkSbXu+wmA7Dq+zDD6lkaAKuQ74r17mlHA444EHGgWXPAvm3BQbDD2rzmB/Oa2z1OlO1AZ1SCnKCB30FOu8CJNe5DOG4MR72cU8uxUn7IxyO/TPCaY9Bwn1MsBNtGJYs0qVR/i8H69McY2JVqgeNYcKiNyxRO+TDnu7ho4NQDysMXAsfxcEoCgCwYrK9gbOXMLx8uiOiLYGWD11YnisM44I6tCstpcipCe8AWhxFtacXKsBrCeWIUIg5EHIg40JI5wMRrzluLfRebOh9wJM0xUIwD6RXqQny1oVLjWDBc5HBSAAHbLP+gexu7xaWMFUfOnNTByQiAJdSUvsrN2grGtM3udvrHVxuBMlYuX99+PmCRMVld/MRxWgcgk4BjbSRcBGiDHyeffLJK+UjDQTD2yvUJ9IHakVNSGLs5sK5PW+tzHU7ZwNZ7/vwFcv/9M+X551+sYUeTA1hQ5r+A/nUN1QUurDwxolQ8REch4kDEgYgDLZkDOGQ2KURzHKd9t6G9c+fO6jmb65/85CfqUZtrJFVjxoypGSd1cOdjYKS+46YdgAZt8/e73/1OBg4cWLNhwKfN74N0nAdjfJ5vnslXl3bIu//+++XXv/61XiMNw2gd0EXgpA9s65i8KYsdFs5tsb3CwS2hTZs2egKC3tThHyCVM0MZN8eyYcfH5oIo1J0DqVSlvPHGm3LnlGkybvwNem2tNEmAZcTVJ7YXmhhEHqHy+nAxqhNxIOJAY3PAvk2N3S5SeozALfj9+NeWvzbjuvaP0T5nrJpECFVY27Zt9dB7DtolYAT+29/+Vv+w12qMwIkJgBf8GSEtw3bXzr/M1z5jw9cihvacYuCP1b+2+pZmMekAG8AxgfNHkdZx7ixjxov4xRdfrONFTWo7DZFiYZcFDwBJ9QkArHvvvVft2hgzpy5EoX4cwD5w4sRJcvU142XmAw/L0qW16t4mY4NVv6EVruW/yIVLRrkRByIORBxYMxzAdoYJnD+8zuO1nmvixvhDmjFjxgxVm1nb9NNYfVhbtIfNT7HASRd16dt4Au3sHASwWBogh511qEDxNwToQGJ15JFHSr9+/ZQUbJasP6tnfA3eW3owpm3O4ESKhCSHP//4t3xjpg4BgEWb0EGfRk+wn+A953Qi/SK9f//+umEB0MUZvxwxxTFMAKqhQ4dqP5TD8B81ITZohGCbYfdBPtA28yPjRUUahfpzgKNyUA8ueX+ZvPzKq+po1FprcRIsG1gURxyIOBBxoClwgIkMoMCHGAkNf1w31p+N0W+vsfugPcbgL1r9a2iwe0CYlfdpyndtvCEG2NAOMfemgSCNa9L8AEDI126p6fl4ZX37/dm1jZUyfj/QZ+3515Tx062Otce9H2if8n4I1iHP2rS8YrHRFKwHH/1g4/PToutwDnz22Rfy4IOz5JFHH5cZMx+UuXOdihcetjiA5b8YeHFvznYJ4Y8zSo04EHGgOXPAvlEWN9ZYGru9MLqK9WH5Foe1EZZm5S2mjH/t3wfTw9qra1qwzeB9Q9sLqx/sI3gfVsdPq2v5utZtSPt+Xy39esGCt+Wtt96R5Ss+lqXLVgi7M1kgEFqsipCXY8SIEfLwww+39OcbjS/iQMSBZsCBsAkrLK0+Q2msdgr1vab6CGvXT/OvC9HX0Dz6qW9fYfXC0ozGYF7wnnJhaYXSre18cb728pVvSF+F2mxpeVVVWfn22+8lFk8KTkeRBhqv7777HmmFUV1LCDYoG8sNN9wQORo1ZkRxxIGIA02CA8HvVGMSFWw7eF+fvoq1YfkWWx/Be0vPF4eVD0uz+oXyrMzaiOtLR6F6wbzgfV3HZfUtDqtfKC+sfJTmOIC93T333KcuGu688y61qTNeTp06reUArOADjzy5BzkS3UcciDiwLjlgH941ScOa7KOUtv0y/nWxMQfL2r3Ffn0/zb+2MmFpllcsLqVusEzwvlAfa6psvj6tP4vDyrERIwr14wC+0JYv/0g4k/C771bJp59/VqMibHE2WMYiXqYIYBk3ojjiQMSBdcUBdmnhQBKHhGsyFJpAG6PfNdn+mmy7McbeUtqI+Nz4TzKRSqo/NNwzLF78nnzx5UqpznVTL4DlPyT/uvFJr3+L0IWK0M54qn9La6Fm7mkQ6aU9HSm2qiDfK1OdqXmw7qI2b/V2q3KDymox/V+d69uG691r3awjCr66K1eX4u4+VzF3Y2U0M9eWX67mvcm1a91q7BfUBDcOTbY8i1ermOfmB2VztFdnlfjV2vWbqKmXdTp1xpEbv8uinRyPNSFHp9ULGTfNuzr07Y1L++U+154W9K6Nrhy/XOTRn7PZqOGrldd2+JcVNmNXV/M/K7VPL/gAa+8Zho3Tby54TRnoqRmXNwZjRbDO6vfwl5Ta8dbWY4yO5tXTXAuh41298XV+h00Gx51wKDE2ofgcMrqJ2YhjJ06w7R/nlQTOn8N7ue2cw5VAWVlZTd1HHnlEvZrbADluBXcBFjj6BR9H/g413CDg44kNQNSsOTEcAAAgAElEQVTHYzln2tlRMeS/8847+mftEAMScYC5cOFCLc9YGAd1OY7Mp8uv50tGaMMft5WjDd9VAOOEJ7hJMNrxUVUosCvODIvzlaNvnHf6O+Zsp6DRxQ7IJUuW5GtitXSrQyJ+u/CHZAG1UdjxOX4dnhd0M17CokWL1EDa2iD2y3Mf7Ic0eMwz5ZkEXUvAW56NH7iHB/CL98N4YG35ZaPr/BywZ/P++x/K5Jv/K088+azMmDlLHn/8ydz3TErfRWiNWXfcB9Msz+Ji+VZuTcWjRo3S4wXWVPuN164/3QF+slL1wUtSuexVyS57TaqW8zdXr+0+s2KuZFa8LpXL50rVR3MlvfxVLVe9bI7Wq1z8iIhUSbbiK8m894LmVa6YI7L8Valc8ZpULXlGqss/r53UmMSqRTLpmGTff0kyS1/Vdugju3yOVC+fK9UrXtV0aKlcPs/RtHyO0qV0LH9NMiugY65UL3tN/9JKpxsHtEM3+VXL5+gf7dv4tP1lL7kxaborQz037rlKU219+EIZ41G+eI7yytqgPH0Z76qXvSxV8HKF0W90Or5T3tH9mvJC6y+fK7KUsc9zbWnd1dugfZ4Hf/CQ/itzPHDjhg9ubJqX4yl98ew11nbdPWV4DrTr+Pxa7jnU8sDopF1t2+MPedXLX5fssrlKj453qeM/9Dla6Mv1A1+sH+rWPqvV+Qytou/nXMksf6PmeaSXuXfHaCkU035a+33dvXuM+71nRNIVCgzdb81AokOu/q+m8X6La6alSZMmCX8AGuLHHntMD+jlwGJ2GnFg7+zZs9WLOWcKAnhIO++889TnESCGw44feOAB4QgwfD/hhLN79+56rAxHpnC8zNlnny233XabHiFz/vnn62HI9Ne3b1/1zQSoIv0///mP+lzitAvawfcUZ9rh2fsf//iHHsUCwLvnnnvUqznexOnjjjvukMGDB9fU5YgV7gEllLn++uvlvvvu0zp4RZ8zZ47Si58u/FcBAqZPn64e01ndc7YgNsAALMaHTyg2J+HdHL7QBkfE4HCTI3TQSjAegCqHXN9666166DOADB7BT3w+cXYhB0HDC/pgsc1YaI/+br/9di0DYAFU3X333XpcDuVxaIrfKQ5Qht7JkyfrmYD4n6JNxssRPdDPuOfOnasAulevXsofxgefxo8fr/1zDZ9oD2AD3YBf/JdxRA/j5ZgjYg5zhjbGRTl4ChCjDepzbI7xGyer+NEi4ISU8pSDXuiHnzzfnj176rtFu3iOx8EofAQs0x7OSqlH2TUtZV0zv64102o+/BJMB2BNm3avLFr8nsx9/Q157rkXahYMJUmwrEGLbTh4g+VF58HzgvrI38pabHXWROz3wbXdsxLEoVpTD7oy5x9/2UpJTvqbVFz8/yTRs7XEeu8k8d471sTx3i6N9FivNlLeZyep6NVGYn1aS7zPLpLo80spO72VJMadqAKS9P/OlYp/byCxPjtqWepV9PqlxLr/QssCtDRUi2S/Xi7x0QfLqi6bSqxXa22TuLzPzpLo0ybXz46al+izo5T1biPQY/RBS5z2czSSTz3Lj/X8peZDi6OjjcZ632dHLReHfm13J0n22knzuacM7dIvNFmbbuw7ar6188O4tdB3KscDxgMPaL8sR6vRbDSW9f6lJMnL9UU/8Ba6SeeeP8Yc672zJHtBF2PdyT03+MczytGtNOmzdM8T+vkr67uz45nSwzPaOdeOy9fnoH27vlb12lH7gn5rw9rWmH6tb/rXP/qAHsbdRuJ9HT95v4yP1IEW5YM9i947umde0469a47fVha+GD/ogzbtWZGudPHc8v0pH713os+OysOKLptJxbD9pfoLJDpOuuekWE7Spb9zl9DUf+IqlUKazuTLJM5kyuHFTHRIOzhzjgmTo09OO+00nWD/+Mc/yoUXXih/+9vfFEgxwQMyjj32WAVgTLRcA6xwPHnWWWdpDEBg4j7ppJPUOzkTJ+fVAdrYQo7jSoAUC1C8iNM+oIgDlgEypDFZT5gwQf7+97/L0UcfrZIkvvWXXnqpgjXyKdejRw8FUEhvyId2aNl1112VVqQznNV30UUXKVi47LLL5LDDDtM8gADH30ALzxJQwHEwHAUDbYyVo2M4G3DatGkKCjfccEMFejgZBYzQF4AQ4DJx4kT1bg5/AQ3wE3AFL4477jg55ZRTFETgtPSII45Q3uMUFckR3uPPOecclSTyXHBk2qVLFwWjgFz6ByByLA708NwYB33xTPHCfvrppysv//Wvfynw4cgfjvK56qqrFHhCL05AoRlAC6gcN26cjpn2mUfhE9JOgDMx0ib4A72AKPgH/YyJGFDHvMszBjjy7KF7k002UTCF5I+jcADt0HfBBRfosz7jjDNUSgn9vDfwBkDtSxxtHm3yP65GINAfK9dIOlnw8EwA5hyI7Qe/POnYX7254G1ZtOjd1SSC9XLTQOO8NDx4VhMQQcwqgdUQH4J1EYKDhoawtHVBW+E+ayePylWfKlCKD9xVEsM6SHzY/pIY2k5iww/MXe8vseEdpGJYO0kO20+Sww6Q9NADpXxER4n33F7Kz/+RJO84T9U12bceltjlW0ti0L6SHHaglqUdbWtERyn/ZyupeuyqGilWet5dUn7Rj6V8OG0fqH0khh8giWEHSnxoO6kY1l7rVgzvoDQpfUPbS1z/2mk5aKUu5aGtfFgH19/QdhIfUVuGctZuYuj+khji2qE/17fri3vaoi/K1/CCNC3r6NM88sP+cvWVl8M6SGrI/loXummXe/qELzreHG3w2dHVTpLDoc/1yfj1euj+OdoOlNjQ/SQGrTwv5Z0bj7Yx/ADlJe3DwyR8GA5v2usz1D5zZRJD91U6yKMtV6ed0Kd75gfk6NxP80mjP8ej2vFzb3+unnt/4iP3z9Ho2rP2tewwxwfl4dB2+uyMnzXt58ao4+TdWO1+PwVEOsbh7aV8SHvHz7BnEkjjXdG+aHPo/o5fI9tJ2b9/LOmXbvFUmrW/FUBX8/h91/76kcZwUDEfbKQjqGlQCyIFQfKCqpAPOx94gBeACGCGpAEQgdQB6RcTL1IQ1HRM2qh6kOLwB2CgLlIWJBJcz5w5U1VY8AupEjZhlKU+0gvUgkhKkJjQ3+uvv660QQ9lCaifaBPJC2ADaRjloZEA6CCdRS00sgCnDyZ92odGpCpIXZDAMXbaR3qDh3bUk0i6UHcxPuhBxYVUCwCHqhTaaRf1G/1yz/gY17Jly7R/YgAEcxThq6++UqCJuhUeMx74CE2AQtSQjIP+aZv+yIdGwAt0MyboQoJofEbNSt+o+Rg30jBAE7yjPsbPPEueAbTTFnTSDnQQUM8BbgE/8Iwx0R9t8HwJtAMfaJM0+uU4H2jlvYFOpHeAKfiImph0wC15lGVOpj48gH54RBrPgOcdVME2t9+VMqqR/rF4AOyzAECSSAy2YTHBe0cw/hDDZ6RWr7/+hh70jB2WhZIkWMEGAVMgbB6wdWQNArZA8HwggnlWZk3GhsDXRd8NGZeqO9B8lK2U+MiDJDZgN4mP6CjJ4R01jo3oKPyRFhvRSeP4iPZSMbyjxEYdpEAqNqqTZN6aqWRk3nxAKrpt4doZfZDERjrAUtPeyPZS3mVjSb9ws5ZXAdob0yXWfUsHNkYe4voY3snrl/5dO9AILUoPwGQk5TpJYuSBjqZcXnxUB0mNcHlKw8j2bnyMQ6/dWCpGdpLEqIMVPGr6iPauL+vD2iMd/njpxptCsdJHf/BMaYW33Du+VozsqH3HhzMGG7OVNX678WsbIw7WtiirfBh5kAPENc+pvRvfiI4OHI5w/KI8/WrfjGNYR+WX67OTXpNn5eBpaljH1casz3DkIfpu2JgdDZ1yY4Mmj386pg65tt2zYJz6p+Xce+aeXycpgy85OmvftY5Kk/HLPQPo7ZDjoeNZcngnSQ1vr8+H554a4Z6V0RkWJ3K8oS99R3i20Acvu24s2Vf/9wNbMF+S1ZDf3dqq63+PmGztHtBEIPal7UzcBibIB3D4weoH0/ItbinPH5O9He/CRA6oIFh7+WLrx/Lt3rffAbAgBfHtgBirb19l9YrFwX4YP0AS2oN5YW0BHDknEODk00NZGz/XtMWcAdDw26U/6jOPAaAIzHcW/LIAFrsHJNm1lSUG5DER+30DfnjGBAOpXIfV10K5f5YPkAaE+nUAYoAzC6g/AWjGA6trsZXz7/1ry19fYsAVRxYFf2+MHykhqnXeCz8AZqdMmSqzZs1Wdw1PP/1szZFSJQMsGoTxIGBWU2HBHgyrNHT+Vies7NpIgxH8wJtHyKk9ylYqICkfuKckRrpJUSdPJmoPGDAJMzmXjzpE1V/J0YeIZN2ZUukp50t5559IfNBeEh91uDDp0QZgTCfuEe0UlJVfuqlUPT9J2YOBMuBMJV7DD9AJEsDGhKiSJ/oe3kGSg/aW2OD9JTW8nQIqpDZIHmom4uFu0kUyRHkmSusfGphMdVK29oYhkemQa6uDJEcdVDO5Mv7YiINd+Zw0B0mHSoW0z4NrAKjxKCx2kzqTvRsDEhIAgoKcGqAGYAJkOQkR1wpkAJiMw8rngImT3jlJlNbxQAFjNH6kRjAGB5AALQrkALs8j5HQhGTOScQUtIw8RJ8RPOJZBcfj2uZZOokedQyMWHnGaWODDvpE4qRSOsY1yj0DlVQqyHSSPN4n2nfPqBZM0q61rfQowHUAjXQnRXP0Kq+GwV8H5JCQBccQvHfvmL3f7pm6tPYSu2xzqXz1zhqA5WsE/eum/Bu37yITNefHsTom5mNu6iZURajouCegWkBlxbcW2yekFkiOmMyxAyINNRH1KItEAokYbTBBoC5DxcYkjsQEOxxW4agVUSkiNUJVxUKZiZp+oQcpFJMCAXsx2ke6gboNFRVtI3WiLO2y2EatBVCgHIcQo9lAugXtqOCgm/6QBpjqjzmCtrAJQprHfIFUB4DAeJCUYTPEGJFqoVLjwGNUlrRNHmYpqLhohzEAJJDGYfsE0AM8omKEPvqGZ0hxyIcmeITkBxUfvKA+IBdecB4g/aISpX1su6iPtAmQBC9NsoGqFPoBV6hsGQd50Mz4ULXCc8ZMX7QPuKUtDmyGHvgOyELCh40UUk4mdOjA5o6zCekT1Sd85RmgLYImeME7xfNA5YrkDn6QRz/EtMVzYcy8P/CX9uAD6knqm8TM3ld9Cdajf0jyeN/yBfgCr/kt+YF3hoWGfY8A67aouOuuO0vzg2VM5wfJi2TB0rm3a2J0xT6StvJrMrb+rQ9eZFYwzSHwcDDhRYKlkyLgiMlwRDudrBzYcIAHKRETkP4N3lsq+v5SqpPfi3y/Qip67ihll22idZnAbfLVCT8ndULiBXiouGwTqXphotp+af9vzZCK7tvWSCVq+hzVSZKDD5CyK7aV+BCnwuEa4BTrt6uU9941R2NOCtV3d01HIqVAcJSTcjAeJlydsEccom2pXdDgdjrpAzQUmCnoyUmXrjxM4gP3Ubsk7Lmwc4r12kHiA/ZU0KNtGi/yxDrWke0lMeogSQzc09kooSJF8qfSNTe5AyzKe+0gscF7S3zUoTmJFKpNA0RO6kY7FX130XbUPq3H9lLeo7UkR3WUihFuzI6ug7V95UEO9KgqNwdQYmOOdPZKPelzX5XgubIdFXjxfJ20DYDjgFps5CEK+LBxqhi8p6sz7AAHYnIg0IG6TgqieQaq/svZ8VUM2k9iV7o2sJVC5Yo6Evuo+JB9pGK0o19Bmb4vbuwOMAEUc8BJAX8HSY/sKIm+u+s7CMgv77eLVPTbXUGaStFy0saa9zXPM0JypWANiW0OWAIIy7ptKtk5t9eosd1v2akJ9dq+as3gR86HGACAnRO2PEzgTJhcY0eEWovvKwtD1GhM3EyO5AEQsK0BVDCZYwTO5IudDhMmkikAETZHAAomejQJBkZat26tZVGJAXIwdMdeChDA7sBOnTqpnRCg7oQTTlDVF8CACRv1Iu1hD0afTNT77LOP2qYAqgAxAAr6ZwyMEfsj7IYAhtibYXwPyKA+Nj+kcYgzQA3bMGzQAEWABAAEfBk4cKCqzpj8mfwoY3mMG1AC/dDCOCkD6GACBMCSBq8ASdAFuESyBTjBGB8wCAhljsBOifJI4aATYAloZcIF9AHsAK/QzX27du2UT4Ajxn7UUUcpvTxb+Hn88cerjRiAmHGiXjJQyTNETckf/fC8fvKTn6hqkjxAEHxo27atgmxoAmABxrChQopCXdJ4T7Cvgh7qcA0goy9s7XjnKHPiiSfKoYcequ8XUk5o4jkApgHP2JOhSgzOoc3gZ9UoJDJu3ptSMAv8QppqAekgOweffOoZeWjWbH2HyGPH9tSpU0oDWFQAuUNEUNxoHfkxD44Huy4DLy8/8KYfnPRK6Sz71E2MAx3AMoDEhI0EihjAgOSKybjs4g0lccOfFSRVXH2UVPznZzWTpE5wOXDjJrAOOvEBKpBylHfZUKqev1nth5mnMm/OUAkWfRi40n6H7S8VfXaTzJyb3Zb5VLmknxwjiUt+LpmFT0jlosck1m9ntWUCeFV98IJUf/melPf7pUrZHEDJqd6QUAFYrmgt6TsvkEz8a0nefYmqK1PdN5NVSFBGHewmaABc102l6pnxIpUJyX7ytlSteEMktkoyc++SWI9tFLBBY6E/k77QZ/Lpa3WXm0pzhhygPFRJUv/dJX7V0VId+1rST16tmwzKum2TAx1IAdvXgtV+u0rm5dvczsRUTKo/e0tSU84XNYzH9mgEgNLF9A244JnB9/QIVKgHKf8BxqmJp0jmw5el6rUpEu+5rQNPqn6sHRP1dXzwo/8eAjCTiq8k9cqdCpLLu20lMSSegKlcWYAY1wBKAIvtYkyO+41KhRI3/lF3Ncav/5MkJpyg18lbz3PgdfjBkhp5oMRNTRwiSVMp2bADZFXf3aTq9buFXas8q+pPFkjVyvfdZgZs5HLSU6MrLNb3cbhTx2q/jBPah3WQsq5bStVrTqKy+u8YpbpzU7F6etO+Y9JGOoFNESon7HY+++wztZ1BgoDKBxsaQBaqB65tkYiEhXxUTUhnsLdB+gOY4VvLypl8pEZM7EwCqLjoC8kNkhUmEmL+kJgg4UfKgYQJNRYbg5CiYJdkajkkIgAvQBztkUeM+olr6tAnAXqYJ+iT/pkryGdspNEH42fMjJ++GSNloQ2JG+CBdlCTYvMCnYyXNkwtBo2oVekXQMM44Af8pF2ABTF8sPHSN3WwhSKdNilHW8YLaOGeGKkEfGPc0EI9YtqhH+55TvCciRmeWBptMCYkGfTPOCnL2OErzwraKQ9fKE8abTBG+kC6xvgJpAOMuId3/PEuwTPjH/eAJOqTxj20M074CZ20i0qUMrTJuOE34zJ1tXaY+0f760OATwBrX+Wdb9wAdHhmYd68+XLDjTfpOYTz3nhTHnjgoZp26qQipHNWCLzIxQKrKlY+6yLYS8EKB1TfrILaYHXSCfMHk5FN1qMP011W5d23kMSA3SXz2CgdYmLSaRLvtomUXbaFgjQmVqQyP2jHJuEum0j6BacipAEDWEG1TnnXzaXqseEK4pIPD1L3C5RPjj9B3UCA0CrO/ZHEL91QKgbsIcmZPSQ9a7CowfYV2wt0xi/bVMq7buqMopHC9G8riev/IKnHRkvF6ENVnVn1xn2SuPIQWdVvp5xKrqPEe+wgVdOvkPQb01QEq5K2956W9PQrpOLfrZy0rt8ekui7q6zquonEL9tcd7ABlgAj5V23FOivuHxLVZtmlr3ieDVoXyn7z4/dzsArj1DVJxKY5OOjJXbjnyXWd3dJv363JK47SYEcfFSgg6qy1w6SjX2rE3zlszdIJvW98oYdmEgFtb8uW6iUC95jCxcfsp9K7MiLDTlQ4mMOldj5G0h66cuOrzeeJBXdtpKKSzeWWJfNdPdffMzhOn7UZNDPjjo1Nh91qKQfv0pS//uHlF/ycwVnyQd6C7vukLw5QNZesH9DDZy6p4uOGUCSeHyMxM9uJcn/nqdpycl/ldjEkx0N03u4NlDrjj7E7TbturEk2VXae2cFduw25DlqX103kthlW0q2wn0PGGfljL6Smj1QnydjVfDXZRPlYfLKX0l5390k3m0zKbtsM4ldsb0CeX1P1ebLqVIBowpokTJ2dSpCJbaZ/wMYISVhUvUD31MmWQuABb5h9h3jG8bEaYGPu/8NZrJnEmfyLBRoDzDCZErgnm86Rt2o+JjgLVAGMEAA2NiimnuAC5O/TUb0TYAuJnNAVxQiDjQnDvB+swuT36gF+/3ZvcWoV/kdWUinq2T+/AVq6P7MM8/p78VswesEsGjQ9OZc5yMA1I54GnS8NkIYHaSZqHVt0NBofYQALLVDAlyNbCeJ0YdJ7PLtJHnl4VI5d6pIstzpflUEVSXywcs68ca6bKSTFOrAhgKsWOf/J1VvTtchJsb/Rnca6gQ/7gT1Q5XNJKXyldsUVGGjlbzhz5K6+UwFW+m7/iOVswZJZsEsST8x1qm12HmGqvHqX0niv2frdXbhI+6Dv+ABifffTe28VFU05nBVX5Wf8WPJvPuEjpXdj8kBe0nikZGSeem/kry3uyRv+L1k3npQKudOkcRNp0i8y5YKEirn3CJV7z4tqfsud7smFzyg/VT03F7SDw6S1P09VdKmdlCo2G47WyoG7JYDnlWSXfK8ArXk4P2cJGrYgeqaobriW5GqSll1WCtJ3fFv5U3quj+oNIgNBlVzb5eKG/6gQDf1yHB9bkiYUrMHS2rCiVLefVuJX/d7kVRCsumEJK85WhJXHaUgN/XmTElO/JM+Z8BR+qGBkp1zp8Qn/FmSfXaV5MiDJXHr/ylYrbr3cgVH1fHvVJqX6t9WJWVOathRpVWZLxZK9aovRGlePlcq/r6BxG7+q6rd4jedKsnr/6KO8eL3XCZlgHbUoz1bS2ryaZJ9c4ZULXhApaSJK7aR9JSLJf3UNcIY07MGKYDKfDRfqmNfSazHdpKcfLryHyle6sF+knl6vChwntJZYpdvK7Fxv5aqOf+TqnceF2wFVSJntnG5BQSSWqSKPBMFba/e2Wg/r3XZEFID1ILYGKFmwlcTZgz4ZkL9hjqQAGBBVcjHmdUytjqospA4YC+Dmgj1GSoiVH5IuJCWUBY1GKo9sw9CtYgkn34pQ11UbtgGsSOOVTt2ONCGOoxFKdvSUeXRBpIPpGOAOExDcAuAVgC1JX0j+aJNVFKoz9BwoI6DBt+ge13yPeo74kApHOC3w2KjUGBxgYoWCaEFXDSsXPmVfP31t7oQ8fFISQDLr8CPHz2viS6tEz82g0DS/Lp+mTVxHewLIz5WWs0qhAAsJktAkkpR8GM0tJ1kE+zSzDkHZYAqyTWP2KLAIX75VjlpRq26yQdbsRIlWNjYoC6qXvWZ9lP55DiJXfAjKf93K5HvPhX57nPJfMzOlayCpepP3tbrsgtaSXXZl+qxPPvR60pv4r5uUtFtM1l12RaSntFLyyXv7ixVr9ymj4mJV10xDN5baVfV5rAOUn75lqpKY5yJzj+X2NQL3GPNpN1EvuRpncizH7+p71z5pVuKfPSmSCYrlfPvU/ak/vd3VW1myr+U1NTOWj81s69UXLG1qkDjY3/jaHh4sCRm9nHXH7zg3CUM2Ns9A4zge7UR+fxdqc6mpPKREVK96hPlS2JwW3XMmZk/XR1uSnKVJK88UtupvLubpO/vo3Qkrj5GAMDxW88QSZRJJlkmlff3kuz3nwu8q/p0oUgmKWU9WqsPKH2vv/xA4mOPlrJum0vsmmO0HcBj6pZztP3qbz+RxLXH6TjUkH7EwaoeRCLIc0lNu1g3NEBz2aUbSfqmk5VPSD1RFxJSU7uopAwXIajt8KBe9enbkvnsHVXRJnrsIJnvP9frzGeLtA7Szsyix9R2EBcfqm9OxlUCC92MCWe3EFxx+Q5S/fVSqf76Q0k/d53j2Q1/kXL8XuU2dKhqUFWSzvC+ossWauSunTXzf3wzWaACQlC7Yd+EbRLG49jAYFeFigxAg/0VdkTYSmGgjO0RMffkAWJQDWJPhR8rwBUSLPxoYZNEXUCV+Wjimw3AAlDhUoA+sWnCVhbVI+AJGx9AH7ThuwqjeVbr+NMCWEEftkiokvDRhW0T7gXwAUV7gELsUwB+xxxzjALGsN1YzfwxRuS3UA4gEMIejoWMH3xcgU0fghs/DWkvktuwUBLAoiINWqNUOvfcc9XHh+URo0dmFYSorSkEjP0wnGxWIQxg5eyoVMrS4xeSXerUXFihqMps0VOSemSoO6/EO24E+y1UcT6o8q9LBlhXHyOrLmwlZZf+XKo/fFE9a2c/XaDOSrPffSGZ95+X+Nhjlc2xMb8SWfi4TqrlnX8msupLZ491yUaO1gUPqhoMlVfltC46ySbH/04AHdVSJemrfqV2YGqgr8blbidd+eWM+yV9B8u7bSzJO/6h7cWn/EsqzmsliWmdJT17pFQvf0PbjN9wotKDD6Xy/2slSJHiSE+evEGQuOHlPv3MBFXTqXH1gLZKA5Uq7+mm0iRYmbr5dLUPQ92G7ZTumOyzo3p9p2ymKiFV365wkrDuW0jyjn+qJE9WzFNa4X/Vynel6u2HVToFQEEVGB99kJRd+CNVt1Z++qb6EgOcxK48Ql0bKCi65W9S9eEc9WaOKk4N+wfsKYkxx+oYK1+8RVZd/FMHoF66RSouaCUJNg8AyKH38u0kftv/OSDz37Ml+YKTkKTGHCFx7LgAVTeeLvEb/uDauLurxLpto881fW83TVMp4siDXNlb/ypVn7+lklOkaLx7caRuix4T+f4LtVvLrvpCMl++L4n+bZXHiXu7CH98O1TKyFYOpF/Tr9D20w/1V/7CV//d1OfPjtRuW7UYgAUTATLY//BRRvKEHQ6qNdSGfOABNWYvw65DVBGo7wBeXGNHg/SLmMUuNkRIkEOy39YAACAASURBVFh5Y+OD0Tlts9Lmnj9sd5gA0Cxg5E0+NjzsCKcvrlGNYCuFLQptUgfjavrluw6dgDjyeJZmwwTdGKlDCwCP8vQNSAOscR2FiAPNgQO81yxi+D2hyvcDv1G88SM8KiX4WKlVfQARxn/YY7EiYhXFyoUVFdtm13awwfj9ksaWSvMz4uc16esQgKU2NezGwks2aiUTWOXOlEvc+Q8FEUhCAA5OmFUtOnl13XS1icufxEoFWNgjJWb3k/SsoRI788eSfmCA0oAUKPsBx/DMUdUaibErD5Psoiclu2qlTrhStlIlIBXdf6G7JCvfebgGYKWmXaq0qmrtpjP1w5267iQpu+T/c+Bg9MFqWM7kW9F1a8l86MS32P+k7vyXo2HiqZIcsKdUJ8vUFgl1VnVVTNWUNF750m1S/s8NnBPWSzbSydr041Vz/ivlnX/qdq/131USV/9a20zc21Uw/iYk/vcviV30M4lfvoXbeYlLid47Sea7T6Q6W+U8offYThJdNlKVFkb76YWPKpjCbUZZj62l8uEhUh3/RqT8K6l8c6ZuDsBFAio1JFaZz9+S9LVOepYYe7xKqADPydv+qRIxpITYK6kj0/67SWrMUQ6cvDDJtcFTf+UWKb/wR6qGQ/0KgKu4dFNJA7zVIWftOZXYx2HPRXpi4qlSecOf3HOY2lkS3ZzNWnpGDz1fMIka9+pj9Nmlbvu7O15owQOSnHSSA02jD5PKxU+pCrLiPz9RaWb2iyVOgiVZSc8eLpmHoUEcT6tSkl25SFJPXi2ZZ27QUwtiF2/iPLePPrzGdxjvKS4fkNjhpqGlh7BvWHDM+coAxGxbeLBOQ+7D+gtLow9Lt7gh/UZ1Iw6sSw4g0UVFzs5PpLFIndkdimq/ru83dUoGWNa4xTCBlRFSony6S7/smmRaWD+khaWvSToa3HYowHJOLTGudrYz9GI7D7OSvv9yNa6WqtRq3SO9wWDaB1X+dakAq6Lzj5zUrFrU3ij9+JVucp50qlMBffOxJG8/XydpJCOoA/HIhRF5duW7avuTuP3vWgfAo8bwXTaT5AynhovddJIkJp6u+VV3XSLJhwdL9v0nJMExMnhbx2brss1FvlmmaisMu1ErYrQdv+kUSU38i0q/sOeqevshPRsYj+UgBFSG2HrBr+S0SyX1Clv+RZIPDtB87JviXbfQY2KS1/xG208+1E8S447Xd6fq8StVhZb9ZJ5UXHOEc9x6eWupzmS1frzfHmozxo7A2Ljjte3KGf0V7OF2Aw/vSB4JWamU1G3nKQhSdwxdN1XQJam4GsFTJjV7iNC/gp+RnQTbKh3nFdu5HYZ9d8lJ+0Sy86arkT/vOLsrE6OPkMxH8yR906lS0XMHPQpIwTbtTvi9bkpwD+l7SV7nJHzJW85QHlIuPb2nGpUDIBM5gAl/AOoqrRrZSSQeU6la/JazHI2jDxNssAgAPP29JWNqx0Za5ZPX6h/1cTnCM8ksmC2JXttI9qsPJTnueKl64QYFnno0EU5VdechKsIDdYNESwFYdfkeBb9b/r1/rYwv8C+srKVZbNW5D0uzfD/2y/nXfpnoOuJAc+UA7zR2iUhtkfTW5x2nTskqwubKqGZHdyjAcqt5bH8qJ53mbK9UppBbOX7zmaCS0sC8n+XAaJH0S5PVFYMPqvzrUgEWhshM3pXvPasTrWTiknr6OgUKqL4qX7ldJSG4AkByUvXcjZJZ9IjuYMPAOhsvl+pP5kv2m48lcdVhzrC5V2uVenGAcPLGk90uwoWzJPXsBFVBoVZL9N7FHZnCTryeO0pqzn+FA6uR/CQm/1UPLU5PPEPKrthOqj94WST+jVS+9aBkPpyj6jQAV3bVCpFVn+gBwrG+e0jmoRGS/eA5J4X68GWpnDdNbariA3cXdu1xkHT6ni5S3nMnqZx3r9tJeF83kfJvVQ0K6IsN2EUq35olmWUvSWrQfuojDLs4+IS6LBP7UjLvPCrV77+gKj92UUplUjLZuO52dAbzndSVAS4OUgufUJBX9fRYwZZKvv9M1Ze40ci+gxuMJ6Qc9ww47Ry0l5SNOULdKqRmjxaeIc5iq5Y8Lam7L1M7ueTNZ+lOv/i1x0n288W647Dsgg2k4qJWknxpkh7mHJt0io4ViajuBl0+RzccAOITOBxl9+YLN4h897G2WfnEGHXDkF38uFQ9NU53gMIrdi2yk7Jq8ZNuDAsflUpOBBi8r2SWvq47GFP3dFWVakX/XfU+881SyXy/XNXNakz/7mN6uDk7RgGj6tIi56QWaWVzB1jBj3Pwnt9qqWl+Wb+OXVusH4CQf5ZvsRWxe4vD+iHPz/fLWDsWWzmLLT2KIw40dQ7YO2txPnqL5VOvRQGssAGHpeVjWJNIDwFYalMz8iB3UO9NpzgyEQkgDVBJlh604/wCqWsgB7CYeHU7vflRCsSlAix2LnIIM84o8aPEFn41oB9yoDoUZeJE5aRb+fH+3ncPifdwh/dmqpKSTX4tCmCG7OekUqMOdTZIQ/bP+UvqIOVD95N4920lMXhvVfkleu/m/IGZa4qRhwrSInUyOupQAaToocU4LsUgvn9bSY09Tg+oRnrDxJ+8YnvnjHTiyVLec0dJDNhHKobspWNBMkZbFcPa6QHX6kUd9R+OTIccIMmhHaSi+zYSH9DWnfnHodbYtLErE/r7/FISPdsI3u4BldRPDWkn8ELVahyc3KuNG4tKsLKSee85qbj4Z46mETg+PVj9hylo46zB7tuoRAcexz2JFRIl9diu/smck1kOlcYBK7Rgn6b0DOngDp+G/pEHOzpxMNqntSRHHqqOVvW6z+7OPxWHOOfOQIz32lk3F+BEVd0moJbFsez44wXjfzz867FM/XaWioG7qGRRD8zmdID+e2q/vCe4y1CfaOwMRBI2eC99PnowNUD5iq0Edw3sXFQ/Zris6NdW3yP13TUKgOWOQ8LmDZcOzR1gFfquFPs++fn+dUPazFe3UPuF8vK1F6VHHGhpHKjr76BFASz/YcIIjEgxxmxWIRRgObVJAunCpNNqhsMYwVkEdbqYu5ZspaanX5yoEg5fauVf5wdYtZ7XKY8tDLvKkNIAIHBqCehT4/BhuWNWOEaH42vwyM0xOUMO0AlW3QMwpm6bubo57+kABjXax7cTwM8727BiBIcX154TiMG2STVQG0GLHQ4MbbgVwAs55zdqfu6oHwy+AV/45oJ216c7ENnG5crXjlfHmjtfz8pYTJ7SClDQg6/dPaovPLjrGPCGPqBt7viYA1X1iDPRqm8/VlcRie6bazns6vjTcejRPe5IHnirf3o8Tyc9+Nj6rXGYyvPI0eKn+TQZzZZm43KxO9gaiZj5PLP2tJ4COdwkHCjlA/eWsoH76rOir2B944fVd/mOL5YGYIIOAKo6uB3IM2lb80ysjpW3NolbkpsG+3lGccSBiAPrBwdaFMAydGkxW4c5zbxZhRCAxblzTFJlvdsIfosUVGX5nzNo55DonCQLqZbmV4v6csKhoz9h+delAiyV2CCh6raNJLpuphILjNkVdNkOR46PGZE7JzDnlJNDfxPjfivJCX9UiVa861buGJScZ3A9mmbMQU5S0n835ytqJJOzHYbcSQBbABF1UcFhzXbsjp5x6ECKTsQ5R5XQRFm1ccodyAwAUiDCRgEPJNGuzw//2oCLn1bomn4V+NlBzgZSkBCNPlilW9hjOWDlwJi7Zpckx9Hk6o9op7ZKdq/SywJ0FqKpvnnKFz1/0J13CNBanR/uIOlg+36ZH1yrd3a3I5Rnwx/1GWewHbvnWbUkR6PN6jsUERtxIOJAgznQYgCWgSqfIy3FkzuTENIezp+Lq9dtpwJ0Y601drd7ABb4K/3CzY0iwWKCrei/kySfuEqdeSYn/kElENgcYROEWklVZwN3VxURNjyxgW1V5YT0CBskPIfjFoGDllEdoZpLDsW2agepmj1Ud+uh9qrov7Mer1MxeH/1rp4YtK/o32gHplAFchA2/ZGOU1BUWpwfqPQM2U8qBu0jiYF7SWI0Ditz9XISIzepu4ndAFYQDATvbcL30y3N2rN7BQy58/cAxiY1qxi0l0qL9KDlHGh0x+c4+tSw2z9WJneotNFo7a+JONgH98E0N053hI1PQyGAZOVUtRhsM3ccTlg/Vi8CWP7XLLqOOBBxoLlxoMUALGO8D7RaEsBi0lGbHnbu4f/K1IMqvbLR5+JqtyWfY3BwH2ATVjAuVYKF5Cr9zPVS/eHzUvnAIEm9cKPEL9lYUjecrJ7L1dZmwD6SemiIJJ+8UuJ9dpH0xD+rjyRcPGBPxCHWkiqT2CU/dzv/Bu+jW/ABQjjVxMs7fqESk06VeP9dBI/xgCYFV9f/wanTerdWg+zkhN+rZAMnntjycOAywCV+3R/dWDliBm/kgLmcZMiN3UlNgnzw74MgKnjvl1392kl1HDiplcpo/xiNc1hzjVovp0JDMpUDGtZWENwUAiBWp6FxsA+jwdL9+yA/rEwhGmpBWC3/w9KCbUQAK/C7jm4jDkQcaFYcaHEAy+d+SwFYTM4q7ejVWuKTznCqQdUD1o7WzuSsSUaChfPJyzZpOMDqurH6u0o9PExdBOADKX7b36Rq/v1S+eJkSYw5WmLdN5fM249L1duPSOX0Ls6rOn6OhuyjxunVFWWSXfyoOvHEF1bq+ZtUolX9/nPqyiH5QF9JPTlWsu89o57ZOXAZdw/Z95+R5OxhUvbvH0vl1M5SvWyO+tVKPdhHql66Vao/e1O9oDPWqqXP65E8lR+9KNXvzFIfVU5KVKuaCk7ijXVv4CmsPY46ckDKSYAUXLBpYcSBqs4Mgha/DT/Pv/bLNMY1bfvtK3BClZvbZFAT59SVftmi/edst6ycATbuC/ItUhHW/sCjq4gD/3975x0kdbHtcbS8f+gzlVXP8tYrrwJKEMWs75aWlmUowxNfWV5DFc/0RK8JMaFIWhBUVMxexZwRFRNKElgEURBRcjLgk7QYEHZhdzbMnlef03Nmen/8Znd22Z1N/aua6u7Tp0/37zu/+fV3OpwOCLQ6BNoMwfJHrvgWSD/11FNSWFjYur6UmDVY2jGx5qj/AZIY8w+d/svcFFOEunVQRWmChZuGWWPUqad1bNEw1xGsrf32k+TSyZL4eKgkC/8l5d++J8kF44SDgive7iflhY/L1qs6CI5DOYOwYtpot4tt/O1SNvafUtJnF6laOUOqfpwnyTVzpGzqaKn89gO3EH/m01I+ZbS6N+DQ4IqZz0py0SeSGHlMepSOEbCtl+8i1WsXSsWSibK937+LrPxMEgvHS9l7d0pyw1KpXDlNElMfkuSKWVK95mupXjPf7VDED1VqzZd15qT9Tj6KS4PSOi3oj1xlptl0vdEIR2BcW9wapDIbvWI60IiMPzVIu/1pwzyvxQIHw0kJVwPrT5dN3Ytvk/Vy2fAOI1iZX3mIBQQCAq0PgTZDsOKgHzVqlB5NEZfXYmUxBMt1SGzp7yQcc+JWsXMHbv2VLnBnqjDNrhzpKh97s+BBPWsHlvUsQjeFZeW23bKvjkxxSK864FwxVarmvi4VEwZLxeQRegwNBwjjtTvx8RCp/PxJKX3jn1I17WHnW6lPB3cG3bpleqxO8suX9Wif6ooyqcYH0opJUr54glSWFAne1csmDJfEG9c4nzt6XM3FUnJPR6lcOVXP6Uu8dLUeFly1Yrok576lPqEqf5ipnsErfpip3tHL/2+ejvpxFp86KlWyECVAmbTda4NDI0gpEmIkwtmruaCbESyOglHiZeQvskapZvnsi/Eb3F6PLBkBjbNFO6Ly2vSjuqTtXswW5fk4efbvIBCsFvuWCg0LCAQEckCgTRMsztPyT73OAY/mV4khWLbLjM6KBeOQkOiV5laaUSmSKJaSgYcKi6vjOj3t+HIkWKyTSjz0d0l+9ao6kSx/83opHnWCVM57SyqmP+YIDD6PxlwkFYVPStlbfXWEq3zS/eqhHMegVfNfl8TE+6T02f8WjrORSfdL2Zs3Svn8d9T7evmLvYXz7/DEXjHuNknMeETKPhksySkPu7Pr3rlVSh8/R8tW/zxXyp77h5RPwmlooZS+dImOXiXG95fKzx6VylnPSMWkB5WklT17kef2wI2W2A42Ro0ab5deZn2Rj3eGRLBTMENWlKQoychOMHw7+Yi7tmbaqM+I1+a68utqI1PdUR0fkx3ywhRh9Gce0gGBgEArQqBNEKzo9CD4x8la6vfi2uqchcqWIjddpL6mjk2dzcaUktsRh+PLkv5/larVhd5IVurOUiyLc/nKnv4v3aHHbjtGTFzn6Hwb4atKO0+Oq5n1XGokLCnJhR+p00r8WbmpG6eXeMCNnm0dDFk72u0CHHiIFA8/ShIF3aV46OGCDkRMp+EGHirFw3uqN3X8YeFQk92EpYMPka0DD1HfVKUD/ybFd/7VOZgc2El3I2676z/UVumAA9UTuKYHHKw7KBMjjpTiezqrPo45t9z1N7drcHBXKb67k5QO6ar1cyAyPpa2Du6i04y1deDRDj2ka5KrfOHhnk9HNG3Hoa6d4yzCfvvpaKmO2vJ8pzZ1uEc9MzXeUn/boV0BgYBA+0WgTRAs+/qipCqaNr2WFqZHn6qrRIo3Od9AQ7umfDlBrI5TL9ps+S+D7Nx9sHrOLv9wgFQvmyTV65bokSicR8cxNRxazC4/dcDJFM2IY9TBozr2xKGnjpycICU37yFVs591cFSLVC0cLzjCdO4FbGTF+Why7gacXyTs0QHq8TDqhBRHoW40CIeS+J0iz0aK1EP38KMFv1iU3cauunuPcveXcpqpxCzlwJO6VA8noriIsDoYTeFsQj1OxZ1Vh6NM6jGnmeqzCYJ471FKIotxehqZpgrpmtN2zY0HzxJr7vjObUNH8Uie2WNke9/9pHzu2NQfJjuxwD2y6gqupf2YQ3sCAgGB2AGOaH8cTQObL/PjcZDWlR9XJt+yNkGwokBbeu3atbJ58+Z8Y9qA+mwtlUhyy0a34wxfT6mRp4S3EJhOCJK1fcjhsqXfPu5IFc4KHHqo6IHD/fYWjjDRI09SDix11Ilz7O470Y1c4W0d0tZ3H93NpwSvWqRywTgdwaLDVV9WEJoRJ6RHv9yIhjvGhLhbQ+SOibFdcjryMNJ57Kb96iB0JB2oW3Ok7gqU8LCwm9E1WwyeInIjj1ZC6aZFnXsDm8ZzthiNc3Zpg3oi9wiojbooAUw5KDVZCJtnhKou3PFVpt8xOysh07jcYAMA/tT6/Zsk57yiA1iOXqVGrapTv5nMwsMG/O5CkYBAQKAxEbC+N2rTl/vxqB7puvJ9nVx04+rIl6xNEKw4sAD+oYcekilTpsRltzCZ11n8uVa2MX02sKNOk20f1lPXMW0Z3sM57hzWQ0qG9VAZx8MUFxym5+UxJcY0Gd7CmZ5Tr+EF6PUUnHYiKxvaXbYNO0r9QyWGHSEl/9tBElNGq18tejAIVsl1f3FTeJwJWOCcdnJwr573V9Aj1abD1Jkncj2iRuXdtR7SJRyAzNE1KX2n19M5AC3o7tZlFRyRTqediQ7toXWS3s65hSkno4mCw9Jtwj55zmZGB5nJ1ekojke1rprt8NsU4u77bAk46LNZ0EMPz7b28F1vueYv6o5Dqt2pBfyubcQ3PU3Ywn7NoTkBgfaOQDbik02eK147Wz7XehpLr80SLABqXW4aUmuwqquk7JX/keK+e7oz7QZ31rVGpYO6SMnAQ9y6pkFd3HE1mtdFD8vVg5Dxcj7oED34eNvAbup/ypXpkrLVRW2xG5H1TYx4JX+alzokulqqt/0q2zgw+db9pYzF8ZA2nH3iFR2yQ5iK0yES58BhXf9kh/oO7apltqdDd9ivkR7kLq+bC1lrhjd41lBpXZnyyP0P+VbWxa3+bs7rO+3BluplQt9GiNfEtCXg4Q6ETj1bQ7rqxoxtw7pJ6e0HyPZRp4hs3qD/ajMvV7dL1ohWY70Mg52AQECgYQisW7dOZs+eLV999ZV8+eWXsSF5c+fO1TwLkcV9ovkzZ86UNWvW1BjdyrwPGtbmfJRqEwQrDmhkrcnRKPTKpuqkukIq13wtybWLdX0Va6yqNi6X5MbFktiwWB1tVq9fJLJ+ueZXrV8isn6pyLpFglzT6xY5/1AbFmVsrF+S0f95vlQVb3IL3HUALencPFQmJPnLAqnatFoqilaLFC2X6k3LpbJolToErRHfuEwqi1ak5CtVp7podQ1ZcqMrh17VppWi6Y2rVMfS2K7e5Moni1Y4O6m0kyNboTrk80FOiA3LQ6Zy6kx9aI/JQ+jwaWk48B3yvNEu4tUbV4kUrZTqX76RZMV2fQ8amXK/dZssNGk+XpWhjoBAQCAbAgUFBQKZmDdvnhIsyNYXX3yxwwfyxSeaN2fOHJURQq74YIsPusxEvfjii1JZ6R8Tl601LUfeJgiWwRklWs8884zAfFvD5boK98/cHIdmuo/U6JbnUDRNyNQXVuqhi6z61WTaiJuGxHZa5AGDzD6qkzpuB5UorlbMlxNXu9YGC1U5NeJg62XUZ1dcK8xyfBitz7Qylgw/ywlhq0Cg2p2daX7dmAx036k9syJVqefTfhvChpCUH7hWcY+hkQGBNozA/fffn747/z2NMJpOK0YidelBskpLSyOlWnayTRGsKNStaQRLSU3qBoww0IWo3MiLdiiu0zEdY0XWISl9Sp9PmOmgMnzHCBahEZKkdmDWeakts5GqSLmRxjM2/Q4u8+NgJAzFjF7KRM2vJ1boVGrJsttNdcA1TcYLIzoh2fIQSH/hyfR6QGukOdF1z2aFfsX6u0iXMc0QBgQCAs2FwPvvvy+jR4+WU045RVasWJG1Gffcc4988MEHWfM3bdokp512mnTu3FkOPvhg/Sxbtkz7lE8++UQSiUTOhC1rJXnMaNMEiy986tSpeYQzVBUQCAgEBOqHQObPyY7/9v28+lnNr7a1M1uYS2usLLp+vLayuerVZiOXPKvHwlzKtCcdpva6du0uu+22m2zcuDHrrXfo0EGuu+46zYds3XjjjTW+6/nz5ws6N9xwgwwZMkQGDx6s9pLJpHz66adKsLIa34mMpvpecyJYVrmF/n0sWrRIli5dKgsXLpQ//vjDz6oBXI2MRk7EtYsqXn31VZ3vbeTqgrmAQEAgIFAvBLK9oxpLbo0xexaaPBrWlW/66Pm6FrfQ9AjjZH5+NO7r+/GonqV9HT9Ovp/249E8P+3r+XGrL4S5IQB2hYWfS48eR0ivXr1iC6HDh1EpiBNXz549Zf/999e44Q9R22uvvXawwdSgT7BMfwfFnRBEbcJpGD2D4/z555812hnVzVZtTgQrWhjjH374oVx++eXy3HPPCaB89NFHcuuttwqslHxrgIVRG/lI++3IR32hjoBAQCAgkAsC2d6L2eS52MxFx7fvx+sqi26u+qZnYZztuDyTRcNcy8fp+TKzi8yPm06czPKiYX10o2XbYnr69EI58sij5ZxzztHby4bPgQceKLZe6/zzz5fjjjuuBhzsKGQEi5Es/FjaVV5eLkwREmazbbo7E2L73Xffld69e8sLL7ygAzRMafbt21eGDRtWb9MNIlivvPKKXHHFFTuMDsHyHn74Yenfv7+u9m9KIOq60+asu662hfyAQECg/SDQ0HdRQ8tlQ7ax7Pl2/Lhfbza5rxMXz1YuTh4ni7PpyyiTS7lcdHy77T0+Y8ZMOfHEv8vJJ58sv/zyi5IjpgohRFyG5wEHHCDXX3+96rDW6thjj60B3ffff68Ea/fdd5c999xTunTpIj///LOW90ewahRqpARtfOKJJ3QKk12M/sXs3H333ScjR470xXXG602wli9frvOmVVVuCTY1GHhWG6NaDz74oCajeabT2GG+6mnsdgd7AYGAQNtHwH8/+fG4O68rP64MsoaWM3u5lK9Lp7Z8P8+PW/3R0HQszJYflWdLmx0L0bN4NPTzzF5Ux9KW355DCFbv3pfLrrvuKvvss4/svffeAkmCUK1fvz4Nzamnnqo65KO73377ye+//57Oh1f88MMP8vXXX+uH0Sz4BFdTEyymBFn7FXfxXfPBeTkfrly+/3oTrLvuukvYMVDX1adPH1m1alVdao2WH3ez06dPl5UrVzZaHcFQQCAgEBBoKgSi77Bo2q+XvGh+NO3rWzwXnbp0s9kwuYVmJxr6+cQtbWFU39K15deWR3nLt9BshrBxEIBgnXDCf8pJJ50kRUVFSqo+//xzHY3yXSWRB5H57rvv5Pjjj5fDDz9cKioqsjYCgoY3AK6mJlgsqGeKMu4ZMRm7GG+++Wb59ddfs7bZz8iJYJlxnHzdeeedOyxm9w1anAXmtW3HNL3GDK2dZvPee+/VeVtLhzAgEBAICDQHAtF3U7Y21KYXl2cyC7PZRZ6LTn30mko3rp0ms9Duk3RUZnlxoa+bLR5XLirzy0bz2mN69uw50rFjZ+nRo4cSrA0bNkiUYEUxw6VDx44d03D99NNPcsEFFyhvYGE5TkZ32WWXGiNYNuWYLtRIkeLiYrnttttk27ZtO1iMtnvSpEnyzTffqF40L1o4J4JlhWCaEKwtW7aYKGv4+uuv60L4rAp5yGhNjkbzAEeoIiAQEGgmBHhn+ssq/GbQGW3dutUXpeOsa+Xlz4ucrepc27dvr+EPiPxs5c2QecCmrE3JmD10+GdeVlaWJivUZ50HO7isY7Nw8+bN6c4IO9jlKikpSZezdiNj5MK/wIL7tsvqIm33AmZRx5K//fabjo5wD+ihY3Vi0+z492Z1MOrg35fJCWm/3ROhyfzvzHwwGQZ++fYenzhxsgwfPkJ3AO67774a7rHHnjpFmM1tA5vkWOhuF+uczjjjDJ1aZJqRNVgHHXSQrufie2vKESyeJQgWv4G6LhyeGsGqS7deBAtjt99+e07EiYVsrNdqzqt1ORptTqRC3QGBgEBT/34b+AAAB01JREFUIcBWb9Z2cOQH/9I5U40XOh02ROHpp5/WKROcLLKsgR3ZOGuko+df/EsvvaRTEpytiu6jjz6qHcHixYvVzmeffSbnnXee/vO36ZnHHntMy7NoGH12YBGyNhab7JJ6/vnndVMSx5yweJed4bSNMj/++KNup3/ttdd0JILZgKuuukrefvttbSPTPMjswufghRdeqPUwJfTGG2/ogmHyJ0yYIIWFhbJ69WolQ9OmTZOLLrpIj1aB9HDfkC3umTPtrr76ahkwYIC62WFH19ixY4U2LlmyRNvIvdAu6hkzZowMHTpU28u9Dx8+XB544AFtFse10C46eHalWQdKRz5o0CBruhJFlr689957en/Y/Pbbb7X94MiuN453YScZtsEK2+HKIPD444+nj7GBFENUapv6MyJsoVmyNDaM0Foezw2yxr6szoEDB+q6rzj7psMfFZ6jbKQxWrbeBIsfNeSJyyo1o5bmx8VDaWnLz2dI3YFg5RPxUFdAICAQh8CMGTN01zVECZLCNAgvczohiAwEibWil1xyiXTr1k3JxNlnny3jxo1THUbiWXIxfvx4efnll5VQsAiYndx0OpAeiAAdPzuzIBxnnnmmroFllODaa69Vfz7nnnuuxpldOP3003XbOWSG9/kdd9yhIwSQpptuuklmzZqlhAlC9+STT8o111yj7f744481DyLIPUB2Jk6cqMTD2sMUCruwIDFME0HYIElnnXWWjBo1Si677DLp3r27kk3IDNvfIUsXX3yxkj/aDMmk06atkC3yIDiQQxZBQ7wgrGylp8NDf8GCBdrWTp06qW2I3aWXXqp64IsLIUbAwIvF05A+Lsgu3w33Co7sJCMN7uyIp276M9wQQWRvueUWJbPN2b/FPWfNKcNhKLjiE5OBFT4QZvgCz5L/4ZmAoDIKxFosy0OOyyfKmA2IPHJ+IzwPNsLUFNjTHp79bLaR82yMGDEiZ6jrRbCsYg5dvPLKKxUIvyYYK/+y+vXrt8PQrq+XrzhtsR9RvuoM9QQEAgIBAR8BNvtAOhgFYeSFP6CEjFAxegP54OXO+4oRJvSIU44dWHTsjK5ABBjFgXSwGJepKt65EBwuyBpkhM6LfIgN0yr826aed955R0d0IG4QJOzQFkZ5GM3iXckaFD6MJEF+Jk+erHm883HPQ9vo5CB6dKj4KqKuN998U8kWo2DUx/Qg9ukc6TcgRXSQtJV7ZycWnSvECJLERb100LYomnU4dLC0ESJJGyBRjHphF8zIAyvqRBeMsIdt7oHOkPZhl/ZSBhzQoRwYMj0IHsgYuaJeRrzQowzEDkLHvdHBsqsNO+HKIADR5tnlWYp+HnnkkR1k6Jgc105+mjgyy7c0zwqX8ZBM7TsX8+1RFySL58W/eDYZAebPC5dfxteLxnMmWFGD/KD4x4IB/qHxw7n77rt1CtFYZrSyfKVpKx++cF4Q4QoIBAQCAs2NQPQdauuibColmk97WUvEOqzouh/TJbS43Z+lLTS5hdnkll9XaOUtNH0/7a9dIt/y/NDWOll5X8+XWdzKml60n4nmWzlCwy/aLlurxXcQV95kTTE15bevrcYNv1zurz66udirj45fN6PFDCBBro3bMJLJ+nP7zWLbL5OtrpwJlhnwjfJwwvj5hwCj598W+b6OHzcbTRVG6+IfHUPC4QoIBAQCAs2JQPTd1NhtidqvK51L/VEblImTZbPl6/rxbPr1lfs24+K+zLcdJzeZhej78VzSfh3tOR7FLQ67loRPXHshUnAbproZNfXXXMXpZ7ufehOslg6Wf6P1AcIvF+IBgYBAQKClIlCf9xq6cfqNLQMrs2mhL4vG49LIopdvK5pXVzrXsrnqWX2+vh+3/PYc5gOPfNQR9x369frxOF2TNYhgWeGWGuZ68y21/aFdAYGAQNtFIPp+8tNxcV+WCypNrW9tiKvHl/lxK9OQ0OxYmM1GXH5UVlfabKMX1bU8C+vKN732EEaxiKbBAFmcPFd8dqZsbXWYXQvjdGvLi9M3WZMSrIY2yhpX3zBaHwsw4+b562s36AcEAgIBgZ1FwN5PFvr2orJo2tclTn5dOtEyDUnXt45s+tnk9W1TrnaietF0fesN+vlBINfvKVe9pmp1rvU3KcFqqpvL1S47VXAKFq6AQEAgIBAQCAgEBAIC+UDACFgswbJMC/PRoJ2tI66t+DUJbhp2FtlQPiAQEAgIBAQCAgGB2hCI4yCxBAsjpmxhbYZbal5wNNpSv5nQroBAQCAgEBAICLRdBOBO+LjrgGPQuKs1kiu/zYFgxX2rQRYQCAgEBAICAYGAQFMhYDykxgiWCZuq0nza5V4Cwcon4qGugEBAICAQEAgIBAQMARyydzD37wiNZFloii09jGsvRx1wREO4AgIBgYBAQCAgEBAICDQ1Aj4X4QimDr169dKzlhjOas0f2CJzntwD52316dNHzw5qzfcU2t66n8nw/YXvLzwD4RkIz0D7ewbgIBxE/v/6hkYZQxbc6wAAAABJRU5ErkJggg==;" vertex="1" parent="1">
          <mxGeometry x="83" y="178.5" width="982.22" height="561.5" as="geometry" />
        </mxCell>
        <mxCell id="5DRYtWeYvcXPRbmkQv9i-35" value="&lt;font style=&quot;font-size: 25px&quot; color=&quot;#ff0000&quot;&gt;&lt;b&gt;①&lt;/b&gt;&lt;/font&gt;" style="text;html=1;strokeColor=none;fillColor=none;align=center;verticalAlign=middle;whiteSpace=wrap;rounded=0;" parent="1" vertex="1">
          <mxGeometry x="40" y="910" width="40" height="20" as="geometry" />
        </mxCell>
        <mxCell id="5DRYtWeYvcXPRbmkQv9i-36" value="配置紙張大小，並且考量分頁精準定位 設置左上右下單元格跟隨左父格" style="text;html=1;align=left;verticalAlign=middle;resizable=0;points=[];autosize=1;fontFamily=Noto Sans TC;fontSize=14;" parent="1" vertex="1">
          <mxGeometry x="90" y="910" width="450" height="20" as="geometry" />
        </mxCell>
        <mxCell id="5DRYtWeYvcXPRbmkQv9i-38" value="單據樣式-貨運單套打（台灣稱套表），size（mm）：（多為定制尺寸）&lt;br&gt;套打在ERP中多為出貨單，支票，貨運單等場景使用，需要較精準的定位，打印不會偏移等需求" style="text;html=1;align=left;verticalAlign=middle;resizable=0;points=[];autosize=1;fontFamily=Noto Sans TC;fontSize=19;" parent="1" vertex="1">
          <mxGeometry x="70" y="20" width="810" height="50" as="geometry" />
        </mxCell>
        <mxCell id="5DRYtWeYvcXPRbmkQv9i-41" value="&lt;font color=&quot;#ff0000&quot;&gt;&lt;span style=&quot;font-size: 25px&quot;&gt;&lt;b&gt;②&lt;/b&gt;&lt;/span&gt;&lt;/font&gt;" style="text;html=1;strokeColor=none;fillColor=none;align=center;verticalAlign=middle;whiteSpace=wrap;rounded=0;" parent="1" vertex="1">
          <mxGeometry x="40" y="970" width="40" height="20" as="geometry" />
        </mxCell>
        <mxCell id="5DRYtWeYvcXPRbmkQv9i-42" value="配置公司logo（選用，一般場景公司logo會找印刷商設計風格後整批印製）" style="text;html=1;align=left;verticalAlign=middle;resizable=0;points=[];autosize=1;fontFamily=Noto Sans TC;fontSize=14;" parent="1" vertex="1">
          <mxGeometry x="90" y="970" width="480" height="20" as="geometry" />
        </mxCell>
        <mxCell id="5DRYtWeYvcXPRbmkQv9i-43" value="&lt;font color=&quot;#ff0000&quot;&gt;&lt;span style=&quot;font-size: 25px&quot;&gt;&lt;b&gt;③&lt;/b&gt;&lt;/span&gt;&lt;/font&gt;" style="text;html=1;strokeColor=none;fillColor=none;align=center;verticalAlign=middle;whiteSpace=wrap;rounded=0;" parent="1" vertex="1">
          <mxGeometry x="40" y="1030.5" width="40" height="20" as="geometry" />
        </mxCell>
        <mxCell id="5DRYtWeYvcXPRbmkQv9i-46" value="考量多公司別時 可動態切換公司名稱及地址，聯絡電話等資訊" style="text;html=1;align=left;verticalAlign=middle;resizable=0;points=[];autosize=1;fontFamily=Noto Sans TC;fontSize=14;" parent="1" vertex="1">
          <mxGeometry x="90" y="1031" width="400" height="20" as="geometry" />
        </mxCell>
        <mxCell id="5DRYtWeYvcXPRbmkQv9i-82" value="&lt;font color=&quot;#ff0000&quot;&gt;&lt;span style=&quot;font-size: 25px&quot;&gt;&lt;b&gt;⑤&lt;/b&gt;&lt;/span&gt;&lt;/font&gt;" style="text;html=1;strokeColor=none;fillColor=none;align=center;verticalAlign=middle;whiteSpace=wrap;rounded=0;" parent="1" vertex="1">
          <mxGeometry x="40" y="1150" width="40" height="20" as="geometry" />
        </mxCell>
        <mxCell id="5DRYtWeYvcXPRbmkQv9i-83" value="zip code" style="text;html=1;align=left;verticalAlign=middle;resizable=0;points=[];autosize=1;fontFamily=Noto Sans TC;fontSize=14;" parent="1" vertex="1">
          <mxGeometry x="90" y="1150" width="70" height="20" as="geometry" />
        </mxCell>
        <mxCell id="5DRYtWeYvcXPRbmkQv9i-84" value="&lt;font color=&quot;#ff0000&quot;&gt;&lt;span style=&quot;font-size: 25px&quot;&gt;&lt;b&gt;⑥&lt;/b&gt;&lt;/span&gt;&lt;/font&gt;" style="text;html=1;strokeColor=none;fillColor=none;align=center;verticalAlign=middle;whiteSpace=wrap;rounded=0;" parent="1" vertex="1">
          <mxGeometry x="40" y="1210" width="40" height="20" as="geometry" />
        </mxCell>
        <mxCell id="5DRYtWeYvcXPRbmkQv9i-85" value="寄送地址" style="text;html=1;align=left;verticalAlign=middle;resizable=0;points=[];autosize=1;fontFamily=Noto Sans TC;fontSize=14;" parent="1" vertex="1">
          <mxGeometry x="90" y="1210" width="70" height="20" as="geometry" />
        </mxCell>
        <mxCell id="eHAqkFgSr1H6kxsUId2k-2" value="&lt;font color=&quot;#ff0000&quot;&gt;&lt;span style=&quot;font-size: 25px&quot;&gt;&lt;b&gt;⑦&lt;/b&gt;&lt;/span&gt;&lt;/font&gt;" style="text;html=1;strokeColor=none;fillColor=none;align=center;verticalAlign=middle;whiteSpace=wrap;rounded=0;" parent="1" vertex="1">
          <mxGeometry x="40" y="1270" width="40" height="20" as="geometry" />
        </mxCell>
        <mxCell id="eHAqkFgSr1H6kxsUId2k-3" value="寄送公司全名" style="text;html=1;align=left;verticalAlign=middle;resizable=0;points=[];autosize=1;fontFamily=Noto Sans TC;fontSize=14;" parent="1" vertex="1">
          <mxGeometry x="90" y="1270" width="100" height="20" as="geometry" />
        </mxCell>
        <mxCell id="eHAqkFgSr1H6kxsUId2k-4" value="&lt;font color=&quot;#ff0000&quot;&gt;&lt;span style=&quot;font-size: 25px&quot;&gt;&lt;b&gt;⑧&lt;/b&gt;&lt;/span&gt;&lt;/font&gt;" style="text;html=1;strokeColor=none;fillColor=none;align=center;verticalAlign=middle;whiteSpace=wrap;rounded=0;" parent="1" vertex="1">
          <mxGeometry x="40" y="1330" width="40" height="20" as="geometry" />
        </mxCell>
        <mxCell id="eHAqkFgSr1H6kxsUId2k-5" value="收件單位+收件人" style="text;html=1;align=left;verticalAlign=middle;resizable=0;points=[];autosize=1;fontFamily=Noto Sans TC;fontSize=14;" parent="1" vertex="1">
          <mxGeometry x="90" y="1330" width="120" height="20" as="geometry" />
        </mxCell>
        <mxCell id="eHAqkFgSr1H6kxsUId2k-6" value="&lt;font color=&quot;#ff0000&quot;&gt;&lt;span style=&quot;font-size: 25px&quot;&gt;&lt;b&gt;⑨&lt;/b&gt;&lt;/span&gt;&lt;/font&gt;" style="text;html=1;strokeColor=none;fillColor=none;align=center;verticalAlign=middle;whiteSpace=wrap;rounded=0;" parent="1" vertex="1">
          <mxGeometry x="40" y="1390" width="40" height="20" as="geometry" />
        </mxCell>
        <mxCell id="eHAqkFgSr1H6kxsUId2k-7" value="收件人聯絡電話" style="text;html=1;align=left;verticalAlign=middle;resizable=0;points=[];autosize=1;fontFamily=Noto Sans TC;fontSize=14;" parent="1" vertex="1">
          <mxGeometry x="90" y="1390" width="110" height="20" as="geometry" />
        </mxCell>
        <mxCell id="5DRYtWeYvcXPRbmkQv9i-4" value="&lt;font style=&quot;font-size: 25px&quot; color=&quot;#ff0000&quot;&gt;&lt;b&gt;①&lt;/b&gt;&lt;/font&gt;" style="text;html=1;strokeColor=none;fillColor=none;align=center;verticalAlign=middle;whiteSpace=wrap;rounded=0;" parent="1" vertex="1">
          <mxGeometry x="70" y="140" width="40" height="20" as="geometry" />
        </mxCell>
        <mxCell id="5DRYtWeYvcXPRbmkQv9i-5" value="&lt;font color=&quot;#ff0000&quot;&gt;&lt;span style=&quot;font-size: 25px&quot;&gt;&lt;b&gt;②&lt;/b&gt;&lt;/span&gt;&lt;/font&gt;" style="text;html=1;strokeColor=none;fillColor=none;align=center;verticalAlign=middle;whiteSpace=wrap;rounded=0;" parent="1" vertex="1">
          <mxGeometry x="135" y="230" width="40" height="20" as="geometry" />
        </mxCell>
        <mxCell id="5DRYtWeYvcXPRbmkQv9i-6" value="" style="rounded=0;whiteSpace=wrap;html=1;fillColor=none;strokeColor=#FF0000;strokeWidth=3;" parent="1" vertex="1">
          <mxGeometry x="175" y="240" width="845" height="490" as="geometry" />
        </mxCell>
      </root>
    </mxGraphModel>
  </diagram>
</mxfile>
